$MeshFormat
4.1 0 8
$EndMeshFormat
$PhysicalNames
7
1 1 "Γ¹"
1 2 "Γ²"
1 3 "Γ³⁻"
1 4 "Γ³⁺"
1 5 "Γ⁴"
1 6 "Γ⁵"
2 7 "Ω"
$EndPhysicalNames
$Entities
8 8 2 0
1 0 0 0 0 
2 2 0 0 0 
3 2 1 0 0 
4 0 1 0 0 
5 0 1 0 0 
6 2 1 0 0 
7 2 2 0 0 
8 0 2 0 0 
1 0 0 0 2 0 0 1 1 2 1 -2 
2 2 0 0 2 1 0 1 2 2 2 -3 
3 0 1 0 2 1 0 1 3 2 4 -3 
4 0 0 0 0 1 0 1 5 2 4 -1 
5 0 1 0 2 1 0 1 4 2 5 -6 
6 2 1 0 2 2 0 1 2 2 6 -7 
7 0 2 0 2 2 0 1 6 2 7 -8 
8 0 1 0 0 2 0 1 5 2 8 -5 
1 0 0 0 2 1 0 1 7 4 1 2 -3 4 
2 0 1 0 2 2 0 1 7 4 5 6 7 8 
$EndEntities
$Nodes
18 306 1 306
0 1 0 1
1
0 0 0
0 2 0 1
2
2 0 0
0 3 0 1
3
2 1 0
0 4 0 1
4
0 1 0
0 5 0 1
5
0 1 0
0 6 0 1
6
2 1 0
0 7 0 1
7
2 2 0
0 8 0 1
8
0 2 0
1 1 0 15
9
10
11
12
13
14
15
16
17
18
19
20
21
22
23
0.1249999999997459 0 0
0.2499999999995463 0 0
0.3749999999991868 0 0
0.4999999999988219 0 0
0.624999999998457 0 0
0.7499999999980922 0 0
0.8749999999977273 0 0
0.9999999999973842 0 0
1.124999999997692 0 0
1.249999999998022 0 0
1.374999999998352 0 0
1.499999999998681 0 0
1.624999999999011 0 0
1.749999999999341 0 0
1.87499999999967 0 0
1 2 0 7
24
25
26
27
28
29
30
2 0.1249999999997731 0
2 0.2499999999994109 0
2 0.3749999999990461 0
2 0.4999999999986921 0
2 0.6249999999990109 0
2 0.7499999999993406 0
2 0.8749999999996703 0
1 3 0 15
31
32
33
34
35
36
37
38
39
40
41
42
43
44
45
0.1249999999997459 1 0
0.2499999999995463 1 0
0.3749999999991868 1 0
0.4999999999988219 1 0
0.624999999998457 1 0
0.7499999999980922 1 0
0.8749999999977273 1 0
0.9999999999973842 1 0
1.124999999997692 1 0
1.249999999998022 1 0
1.374999999998352 1 0
1.499999999998681 1 0
1.624999999999011 1 0
1.749999999999341 1 0
1.87499999999967 1 0
1 4 0 7
46
47
48
49
50
51
52
0 0.8749999999995012 0
0 0.7500000000003471 0
0 0.625000000001214 0
0 0.5000000000020595 0
0 0.3750000000015609 0
0 0.2500000000010405 0
0 0.1250000000005203 0
1 5 0 15
53
54
55
56
57
58
59
60
61
62
63
64
65
66
67
0.1249999999997459 1 0
0.2499999999995463 1 0
0.3749999999991868 1 0
0.4999999999988219 1 0
0.624999999998457 1 0
0.7499999999980922 1 0
0.8749999999977273 1 0
0.9999999999973842 1 0
1.124999999997692 1 0
1.249999999998022 1 0
1.374999999998352 1 0
1.499999999998681 1 0
1.624999999999011 1 0
1.749999999999341 1 0
1.87499999999967 1 0
1 6 0 7
68
69
70
71
72
73
74
2 1.125 0
2 1.25 0
2 1.375 0
2 1.5 0
2 1.625 0
2 1.75 0
2 1.875 0
1 7 0 15
75
76
77
78
79
80
81
82
83
84
85
86
87
88
89
1.87499999999948 2 0
1.749999999999002 2 0
1.624999999999826 2 0
1.500000000000694 2 0
1.375000000001561 2 0
1.250000000002428 2 0
1.125000000003295 2 0
1.000000000004119 2 0
0.875000000003642 2 0
0.7500000000031217 2 0
0.6250000000026015 2 0
0.500000000002081 2 0
0.3750000000015608 2 0
0.2500000000010405 2 0
0.1250000000005203 2 0
1 8 0 7
90
91
92
93
94
95
96
0 1.875 0
0 1.75 0
0 1.625 0
0 1.5 0
0 1.375 0
0 1.25 0
0 1.125 0
2 1 0 105
97
98
99
100
101
102
103
104
105
106
107
108
109
110
111
112
113
114
115
116
117
118
119
120
121
122
123
124
125
126
127
128
129
130
131
132
133
134
135
136
137
138
139
140
141
142
143
144
145
146
147
148
149
150
151
152
153
154
155
156
157
158
159
160
161
162
163
164
165
166
167
168
169
170
171
172
173
174
175
176
177
178
179
180
181
182
183
184
185
186
187
188
189
190
191
192
193
194
195
196
197
198
199
200
201
0.1249999999997459 0.1250000000004736 0
0.1249999999997459 0.2500000000009387 0
0.1249999999997459 0.3750000000014037 0
0.1249999999997459 0.5000000000018491 0
0.1249999999997458 0.6250000000010764 0
0.1249999999997458 0.7500000000002839 0
0.1249999999997458 0.8749999999995118 0
0.2499999999995463 0.1250000000004269 0
0.2499999999995463 0.2500000000008368 0
0.2499999999995463 0.3750000000012466 0
0.2499999999995463 0.5000000000016386 0
0.2499999999995463 0.6250000000009388 0
0.2499999999995463 0.7500000000002214 0
0.2499999999995463 0.8749999999995223 0
0.3749999999991868 0.1250000000003802 0
0.3749999999991868 0.250000000000735 0
0.3749999999991868 0.3750000000010894 0
0.3749999999991868 0.5000000000014281 0
0.3749999999991868 0.625000000000801 0
0.3749999999991868 0.7500000000001583 0
0.3749999999991868 0.8749999999995329 0
0.4999999999988219 0.1250000000003335 0
0.499999999998822 0.2500000000006332 0
0.499999999998822 0.3750000000009321 0
0.4999999999988219 0.5000000000012176 0
0.4999999999988219 0.6250000000006634 0
0.499999999998822 0.7500000000000955 0
0.499999999998822 0.8749999999995434 0
0.624999999998457 0.1250000000002867 0
0.624999999998457 0.2500000000005312 0
0.624999999998457 0.375000000000775 0
0.624999999998457 0.5000000000010071 0
0.624999999998457 0.6250000000005257 0
0.624999999998457 0.7500000000000326 0
0.624999999998457 0.8749999999995541 0
0.749999999998092 0.1250000000002401 0
0.7499999999980922 0.2500000000004294 0
0.7499999999980922 0.3750000000006178 0
0.7499999999980922 0.5000000000007966 0
0.7499999999980922 0.625000000000388 0
0.7499999999980922 0.7499999999999696 0
0.7499999999980922 0.8749999999995647 0
0.8749999999977273 0.1250000000001933 0
0.874999999997727 0.2500000000003276 0
0.8749999999977272 0.3750000000004607 0
0.8749999999977273 0.5000000000005863 0
0.8749999999977273 0.6250000000002502 0
0.8749999999977274 0.7499999999999067 0
0.8749999999977273 0.8749999999995752 0
0.9999999999973842 0.1250000000001467 0
0.9999999999973842 0.2500000000002257 0
0.9999999999973843 0.3750000000003034 0
0.9999999999973842 0.5000000000003756 0
0.9999999999973841 0.6250000000001124 0
0.999999999997384 0.7499999999998439 0
0.999999999997384 0.8749999999995857 0
1.124999999997692 0.1250000000001 0
1.124999999997692 0.2500000000001239 0
1.124999999997692 0.3750000000001464 0
1.124999999997692 0.5000000000001653 0
1.124999999997692 0.6249999999999748 0
1.124999999997692 0.7499999999997808 0
1.124999999997692 0.8749999999995962 0
1.249999999998022 0.1250000000000533 0
1.249999999998022 0.2500000000000221 0
1.249999999998022 0.3749999999999892 0
1.249999999998022 0.4999999999999548 0
1.249999999998022 0.6249999999998371 0
1.249999999998022 0.749999999999718 0
1.249999999998022 0.8749999999996069 0
1.374999999998352 0.1250000000000066 0
1.374999999998352 0.2499999999999202 0
1.374999999998352 0.3749999999998319 0
1.374999999998352 0.4999999999997445 0
1.374999999998352 0.6249999999996992 0
1.374999999998352 0.7499999999996552 0
1.374999999998352 0.8749999999996175 0
1.499999999998681 0.1249999999999599 0
1.499999999998681 0.2499999999998184 0
1.499999999998681 0.3749999999996748 0
1.499999999998681 0.4999999999995339 0
1.499999999998681 0.6249999999995616 0
1.499999999998681 0.7499999999995923 0
1.499999999998681 0.874999999999628 0
1.624999999999011 0.1249999999999132 0
1.624999999999011 0.2499999999997164 0
1.624999999999011 0.3749999999995177 0
1.624999999999011 0.4999999999993235 0
1.624999999999011 0.6249999999994239 0
1.624999999999011 0.7499999999995295 0
1.624999999999011 0.8749999999996386 0
1.749999999999341 0.1249999999998665 0
1.749999999999341 0.2499999999996146 0
1.749999999999341 0.3749999999993605 0
1.749999999999341 0.499999999999113 0
1.749999999999341 0.6249999999992862 0
1.749999999999341 0.7499999999994664 0
1.749999999999341 0.8749999999996491 0
1.87499999999967 0.1249999999998198 0
1.87499999999967 0.2499999999995128 0
1.87499999999967 0.3749999999992032 0
1.874999999999671 0.4999999999989025 0
1.87499999999967 0.6249999999991486 0
1.87499999999967 0.7499999999994034 0
1.874999999999671 0.8749999999996597 0
2 2 0 105
202
203
204
205
206
207
208
209
210
211
212
213
214
215
216
217
218
219
220
221
222
223
224
225
226
227
228
229
230
231
232
233
234
235
236
237
238
239
240
241
242
243
244
245
246
247
248
249
250
251
252
253
254
255
256
257
258
259
260
261
262
263
264
265
266
267
268
269
270
271
272
273
274
275
276
277
278
279
280
281
282
283
284
285
286
287
288
289
290
291
292
293
294
295
296
297
298
299
300
301
302
303
304
305
306
0.1249999999998427 1.125 0
0.1249999999999395 1.25 0
0.1250000000000362 1.375 0
0.125000000000133 1.5 0
0.1250000000002298 1.625 0
0.1250000000003267 1.75 0
0.1250000000004235 1.875 0
0.249999999999733 1.125 0
0.2499999999999199 1.25 0
0.2500000000001066 1.375 0
0.2500000000002934 1.5 0
0.2500000000004801 1.625 0
0.250000000000667 1.75 0
0.2500000000008537 1.875 0
0.3749999999994835 1.125 0
0.3749999999997802 1.25 0
0.375000000000077 1.375 0
0.3750000000003738 1.5 0
0.3750000000006705 1.625 0
0.3750000000009672 1.75 0
0.3750000000012641 1.875 0
0.4999999999992293 1.125 0
0.4999999999996366 1.25 0
0.5000000000000441 1.375 0
0.5000000000004513 1.5 0
0.500000000000859 1.625 0
0.5000000000012662 1.75 0
0.5000000000016737 1.875 0
0.624999999998975 1.125 0
0.6249999999994931 1.25 0
0.6250000000000111 1.375 0
0.6250000000005294 1.5 0
0.6250000000010472 1.625 0
0.6250000000015654 1.75 0
0.6250000000020834 1.875 0
0.7499999999987207 1.125 0
0.7499999999993495 1.25 0
0.7499999999999781 1.375 0
0.750000000000607 1.5 0
0.7500000000012356 1.625 0
0.7500000000018642 1.75 0
0.750000000002493 1.875 0
0.8749999999984666 1.125 0
0.874999999999206 1.25 0
0.8749999999999454 1.375 0
0.8750000000006846 1.5 0
0.875000000001424 1.625 0
0.8750000000021632 1.75 0
0.8750000000029026 1.875 0
0.9999999999982261 1.125 0
0.9999999999990681 1.25 0
0.9999999999999096 1.375 0
1.000000000000752 1.5 0
1.000000000001593 1.625 0
1.000000000002435 1.75 0
1.000000000003277 1.875 0
1.124999999998393 1.125 0
1.124999999999093 1.25 0
1.124999999999793 1.375 0
1.125000000000494 1.5 0
1.125000000001194 1.625 0
1.125000000001894 1.75 0
1.125000000002595 1.875 0
1.249999999998572 1.125 0
1.249999999999124 1.25 0
1.249999999999674 1.375 0
1.250000000000225 1.5 0
1.250000000000776 1.625 0
1.250000000001327 1.75 0
1.250000000001877 1.875 0
1.374999999998753 1.125 0
1.374999999999154 1.25 0
1.374999999999555 1.375 0
1.374999999999957 1.5 0
1.375000000000357 1.625 0
1.375000000000759 1.75 0
1.37500000000116 1.875 0
1.499999999998933 1.125 0
1.499999999999185 1.25 0
1.499999999999436 1.375 0
1.499999999999688 1.5 0
1.499999999999939 1.625 0
1.500000000000191 1.75 0
1.500000000000443 1.875 0
1.624999999999113 1.125 0
1.624999999999215 1.25 0
1.624999999999317 1.375 0
1.624999999999419 1.5 0
1.624999999999521 1.625 0
1.624999999999623 1.75 0
1.624999999999724 1.875 0
1.749999999999298 1.125 0
1.749999999999256 1.25 0
1.749999999999214 1.375 0
1.749999999999172 1.5 0
1.749999999999129 1.625 0
1.749999999999087 1.75 0
1.749999999999045 1.875 0
1.874999999999646 1.125 0
1.874999999999623 1.25 0
1.874999999999598 1.375 0
1.874999999999575 1.5 0
1.874999999999551 1.625 0
1.874999999999527 1.75 0
1.874999999999503 1.875 0
$EndNodes
$Elements
10 608 1 608
1 1 1 16
1 1 9 
2 9 10 
3 10 11 
4 11 12 
5 12 13 
6 13 14 
7 14 15 
8 15 16 
9 16 17 
10 17 18 
11 18 19 
12 19 20 
13 20 21 
14 21 22 
15 22 23 
16 23 2 
1 2 1 8
17 2 24 
18 24 25 
19 25 26 
20 26 27 
21 27 28 
22 28 29 
23 29 30 
24 30 3 
1 3 1 16
25 4 31 
26 31 32 
27 32 33 
28 33 34 
29 34 35 
30 35 36 
31 36 37 
32 37 38 
33 38 39 
34 39 40 
35 40 41 
36 41 42 
37 42 43 
38 43 44 
39 44 45 
40 45 3 
1 4 1 8
41 4 46 
42 46 47 
43 47 48 
44 48 49 
45 49 50 
46 50 51 
47 51 52 
48 52 1 
1 5 1 16
49 5 53 
50 53 54 
51 54 55 
52 55 56 
53 56 57 
54 57 58 
55 58 59 
56 59 60 
57 60 61 
58 61 62 
59 62 63 
60 63 64 
61 64 65 
62 65 66 
63 66 67 
64 67 6 
1 6 1 8
65 6 68 
66 68 69 
67 69 70 
68 70 71 
69 71 72 
70 72 73 
71 73 74 
72 74 7 
1 7 1 16
73 7 75 
74 75 76 
75 76 77 
76 77 78 
77 78 79 
78 79 80 
79 80 81 
80 81 82 
81 82 83 
82 83 84 
83 84 85 
84 85 86 
85 86 87 
86 87 88 
87 88 89 
88 89 8 
1 8 1 8
89 8 90 
90 90 91 
91 91 92 
92 92 93 
93 93 94 
94 94 95 
95 95 96 
96 96 5 
2 1 2 256
97 1 9 52 
98 52 9 97 
99 52 97 51 
100 51 97 98 
101 51 98 50 
102 50 98 99 
103 50 99 49 
104 49 99 100 
105 49 100 48 
106 48 100 101 
107 48 101 47 
108 47 101 102 
109 47 102 46 
110 46 102 103 
111 46 103 4 
112 4 103 31 
113 9 10 97 
114 97 10 104 
115 97 104 98 
116 98 104 105 
117 98 105 99 
118 99 105 106 
119 99 106 100 
120 100 106 107 
121 100 107 101 
122 101 107 108 
123 101 108 102 
124 102 108 109 
125 102 109 103 
126 103 109 110 
127 103 110 31 
128 31 110 32 
129 10 11 104 
130 104 11 111 
131 104 111 105 
132 105 111 112 
133 105 112 106 
134 106 112 113 
135 106 113 107 
136 107 113 114 
137 107 114 108 
138 108 114 115 
139 108 115 109 
140 109 115 116 
141 109 116 110 
142 110 116 117 
143 110 117 32 
144 32 117 33 
145 11 12 111 
146 111 12 118 
147 111 118 112 
148 112 118 119 
149 112 119 113 
150 113 119 120 
151 113 120 114 
152 114 120 121 
153 114 121 115 
154 115 121 122 
155 115 122 116 
156 116 122 123 
157 116 123 117 
158 117 123 124 
159 117 124 33 
160 33 124 34 
161 12 13 118 
162 118 13 125 
163 118 125 119 
164 119 125 126 
165 119 126 120 
166 120 126 127 
167 120 127 121 
168 121 127 128 
169 121 128 122 
170 122 128 129 
171 122 129 123 
172 123 129 130 
173 123 130 124 
174 124 130 131 
175 124 131 34 
176 34 131 35 
177 13 14 125 
178 125 14 132 
179 125 132 126 
180 126 132 133 
181 126 133 127 
182 127 133 134 
183 127 134 128 
184 128 134 135 
185 128 135 129 
186 129 135 136 
187 129 136 130 
188 130 136 137 
189 130 137 131 
190 131 137 138 
191 131 138 35 
192 35 138 36 
193 14 15 132 
194 132 15 139 
195 132 139 133 
196 133 139 140 
197 133 140 134 
198 134 140 141 
199 134 141 135 
200 135 141 142 
201 135 142 136 
202 136 142 143 
203 136 143 137 
204 137 143 144 
205 137 144 138 
206 138 144 145 
207 138 145 36 
208 36 145 37 
209 15 16 139 
210 139 16 146 
211 139 146 140 
212 140 146 147 
213 140 147 141 
214 141 147 148 
215 141 148 142 
216 142 148 149 
217 142 149 143 
218 143 149 150 
219 143 150 144 
220 144 150 151 
221 144 151 145 
222 145 151 152 
223 145 152 37 
224 37 152 38 
225 16 17 146 
226 146 17 153 
227 146 153 147 
228 147 153 154 
229 147 154 148 
230 148 154 155 
231 148 155 149 
232 149 155 156 
233 149 156 150 
234 150 156 157 
235 150 157 151 
236 151 157 158 
237 151 158 152 
238 152 158 159 
239 152 159 38 
240 38 159 39 
241 17 18 153 
242 153 18 160 
243 153 160 154 
244 154 160 161 
245 154 161 155 
246 155 161 162 
247 155 162 156 
248 156 162 163 
249 156 163 157 
250 157 163 164 
251 157 164 158 
252 158 164 165 
253 158 165 159 
254 159 165 166 
255 159 166 39 
256 39 166 40 
257 18 19 160 
258 160 19 167 
259 160 167 161 
260 161 167 168 
261 161 168 162 
262 162 168 169 
263 162 169 163 
264 163 169 170 
265 163 170 164 
266 164 170 171 
267 164 171 165 
268 165 171 172 
269 165 172 166 
270 166 172 173 
271 166 173 40 
272 40 173 41 
273 19 20 167 
274 167 20 174 
275 167 174 168 
276 168 174 175 
277 168 175 169 
278 169 175 176 
279 169 176 170 
280 170 176 177 
281 170 177 171 
282 171 177 178 
283 171 178 172 
284 172 178 179 
285 172 179 173 
286 173 179 180 
287 173 180 41 
288 41 180 42 
289 20 21 174 
290 174 21 181 
291 174 181 175 
292 175 181 182 
293 175 182 176 
294 176 182 183 
295 176 183 177 
296 177 183 184 
297 177 184 178 
298 178 184 185 
299 178 185 179 
300 179 185 186 
301 179 186 180 
302 180 186 187 
303 180 187 42 
304 42 187 43 
305 21 22 181 
306 181 22 188 
307 181 188 182 
308 182 188 189 
309 182 189 183 
310 183 189 190 
311 183 190 184 
312 184 190 191 
313 184 191 185 
314 185 191 192 
315 185 192 186 
316 186 192 193 
317 186 193 187 
318 187 193 194 
319 187 194 43 
320 43 194 44 
321 22 23 188 
322 188 23 195 
323 188 195 189 
324 189 195 196 
325 189 196 190 
326 190 196 197 
327 190 197 191 
328 191 197 198 
329 191 198 192 
330 192 198 199 
331 192 199 193 
332 193 199 200 
333 193 200 194 
334 194 200 201 
335 194 201 44 
336 44 201 45 
337 23 2 195 
338 195 2 24 
339 195 24 196 
340 196 24 25 
341 196 25 197 
342 197 25 26 
343 197 26 198 
344 198 26 27 
345 198 27 199 
346 199 27 28 
347 199 28 200 
348 200 28 29 
349 200 29 201 
350 201 29 30 
351 201 30 45 
352 45 30 3 
2 2 2 256
353 5 53 96 
354 96 53 202 
355 96 202 95 
356 95 202 203 
357 95 203 94 
358 94 203 204 
359 94 204 93 
360 93 204 205 
361 93 205 92 
362 92 205 206 
363 92 206 91 
364 91 206 207 
365 91 207 90 
366 90 207 208 
367 90 208 8 
368 8 208 89 
369 53 54 202 
370 202 54 209 
371 202 209 203 
372 203 209 210 
373 203 210 204 
374 204 210 211 
375 204 211 205 
376 205 211 212 
377 205 212 206 
378 206 212 213 
379 206 213 207 
380 207 213 214 
381 207 214 208 
382 208 214 215 
383 208 215 89 
384 89 215 88 
385 54 55 209 
386 209 55 216 
387 209 216 210 
388 210 216 217 
389 210 217 211 
390 211 217 218 
391 211 218 212 
392 212 218 219 
393 212 219 213 
394 213 219 220 
395 213 220 214 
396 214 220 221 
397 214 221 215 
398 215 221 222 
399 215 222 88 
400 88 222 87 
401 55 56 216 
402 216 56 223 
403 216 223 217 
404 217 223 224 
405 217 224 218 
406 218 224 225 
407 218 225 219 
408 219 225 226 
409 219 226 220 
410 220 226 227 
411 220 227 221 
412 221 227 228 
413 221 228 222 
414 222 228 229 
415 222 229 87 
416 87 229 86 
417 56 57 223 
418 223 57 230 
419 223 230 224 
420 224 230 231 
421 224 231 225 
422 225 231 232 
423 225 232 226 
424 226 232 233 
425 226 233 227 
426 227 233 234 
427 227 234 228 
428 228 234 235 
429 228 235 229 
430 229 235 236 
431 229 236 86 
432 86 236 85 
433 57 58 230 
434 230 58 237 
435 230 237 231 
436 231 237 238 
437 231 238 232 
438 232 238 239 
439 232 239 233 
440 233 239 240 
441 233 240 234 
442 234 240 241 
443 234 241 235 
444 235 241 242 
445 235 242 236 
446 236 242 243 
447 236 243 85 
448 85 243 84 
449 58 59 237 
450 237 59 244 
451 237 244 238 
452 238 244 245 
453 238 245 239 
454 239 245 246 
455 239 246 240 
456 240 246 247 
457 240 247 241 
458 241 247 248 
459 241 248 242 
460 242 248 249 
461 242 249 243 
462 243 249 250 
463 243 250 84 
464 84 250 83 
465 59 60 244 
466 244 60 251 
467 244 251 245 
468 245 251 252 
469 245 252 246 
470 246 252 253 
471 246 253 247 
472 247 253 254 
473 247 254 248 
474 248 254 255 
475 248 255 249 
476 249 255 256 
477 249 256 250 
478 250 256 257 
479 250 257 83 
480 83 257 82 
481 60 61 251 
482 251 61 258 
483 251 258 252 
484 252 258 259 
485 252 259 253 
486 253 259 260 
487 253 260 254 
488 254 260 261 
489 254 261 255 
490 255 261 262 
491 255 262 256 
492 256 262 263 
493 256 263 257 
494 257 263 264 
495 257 264 82 
496 82 264 81 
497 61 62 258 
498 258 62 265 
499 258 265 259 
500 259 265 266 
501 259 266 260 
502 260 266 267 
503 260 267 261 
504 261 267 268 
505 261 268 262 
506 262 268 269 
507 262 269 263 
508 263 269 270 
509 263 270 264 
510 264 270 271 
511 264 271 81 
512 81 271 80 
513 62 63 265 
514 265 63 272 
515 265 272 266 
516 266 272 273 
517 266 273 267 
518 267 273 274 
519 267 274 268 
520 268 274 275 
521 268 275 269 
522 269 275 276 
523 269 276 270 
524 270 276 277 
525 270 277 271 
526 271 277 278 
527 271 278 80 
528 80 278 79 
529 63 64 272 
530 272 64 279 
531 272 279 273 
532 273 279 280 
533 273 280 274 
534 274 280 281 
535 274 281 275 
536 275 281 282 
537 275 282 276 
538 276 282 283 
539 276 283 277 
540 277 283 284 
541 277 284 278 
542 278 284 285 
543 278 285 79 
544 79 285 78 
545 64 65 279 
546 279 65 286 
547 279 286 280 
548 280 286 287 
549 280 287 281 
550 281 287 288 
551 281 288 282 
552 282 288 289 
553 282 289 283 
554 283 289 290 
555 283 290 284 
556 284 290 291 
557 284 291 285 
558 285 291 292 
559 285 292 78 
560 78 292 77 
561 65 66 286 
562 286 66 293 
563 286 293 287 
564 287 293 294 
565 287 294 288 
566 288 294 295 
567 288 295 289 
568 289 295 296 
569 289 296 290 
570 290 296 297 
571 290 297 291 
572 291 297 298 
573 291 298 292 
574 292 298 299 
575 292 299 77 
576 77 299 76 
577 66 67 293 
578 293 67 300 
579 293 300 294 
580 294 300 301 
581 294 301 295 
582 295 301 302 
583 295 302 296 
584 296 302 303 
585 296 303 297 
586 297 303 304 
587 297 304 298 
588 298 304 305 
589 298 305 299 
590 299 305 306 
591 299 306 76 
592 76 306 75 
593 67 6 300 
594 300 6 68 
595 300 68 301 
596 301 68 69 
597 301 69 302 
598 302 69 70 
599 302 70 303 
600 303 70 71 
601 303 71 304 
602 304 71 72 
603 304 72 305 
604 305 72 73 
605 305 73 306 
606 306 73 74 
607 306 74 75 
608 75 74 7 
$EndElements
