$MeshFormat
4.1 0 8
$EndMeshFormat
$PhysicalNames
7
1 1 "Γ¹"
1 2 "Γ²"
1 3 "Γ³⁻"
1 4 "Γ³⁺"
1 5 "Γ⁴"
1 6 "Γ⁵"
2 7 "Ω"
$EndPhysicalNames
$Entities
8 8 2 0
1 0 0 0 0 
2 2 0 0 0 
3 2 1 0 0 
4 0 1 0 0 
5 0 1 0 0 
6 2 1 0 0 
7 2 2 0 0 
8 0 2 0 0 
1 0 0 0 2 0 0 1 1 2 1 -2 
2 2 0 0 2 1 0 1 2 2 2 -3 
3 0 1 0 2 1 0 1 3 2 4 -3 
4 0 0 0 0 1 0 1 5 2 4 -1 
5 0 1 0 2 1 0 1 4 2 5 -6 
6 2 1 0 2 2 0 1 2 2 6 -7 
7 0 2 0 2 2 0 1 6 2 7 -8 
8 0 1 0 0 2 0 1 5 2 8 -5 
1 0 0 0 2 1 0 1 7 4 1 2 -3 4 
2 0 1 0 2 2 0 1 7 4 5 6 7 8 
$EndEntities
$Nodes
18 12 1 12
0 1 0 1
1
0 0 0
0 2 0 1
2
2 0 0
0 3 0 1
3
2 1 0
0 4 0 1
4
0 1 0
0 5 0 1
5
0 1 0
0 6 0 1
6
2 1 0
0 7 0 1
7
2 2 0
0 8 0 1
8
0 2 0
1 1 0 1
9
0.9999999999973842 0 0
1 2 0 0
1 3 0 1
10
0.9999999999973842 1 0
1 4 0 0
1 5 0 1
11
0.9999999999973842 1 0
1 6 0 0
1 7 0 1
12
1.000000000004119 2 0
1 8 0 0
2 1 0 0
2 2 0 0
$EndNodes
$Elements
10 20 1 20
1 1 1 2
1 1 9 
2 9 2 
1 2 1 1
3 2 3 
1 3 1 2
4 4 10 
5 10 3 
1 4 1 1
6 4 1 
1 5 1 2
7 5 11 
8 11 6 
1 6 1 1
9 6 7 
1 7 1 2
10 7 12 
11 12 8 
1 8 1 1
12 8 5 
2 1 2 4
13 1 9 4 
14 4 9 10 
15 9 2 10 
16 10 2 3 
2 2 2 4
17 5 11 8 
18 8 11 12 
19 11 6 12 
20 12 6 7 
$EndElements
