$MeshFormat
4.1 0 8
$EndMeshFormat
$PhysicalNames
7
1 1 "Γ¹"
1 2 "Γ²"
1 3 "Γ³⁻"
1 4 "Γ³⁺"
1 5 "Γ⁴"
1 6 "Γ⁵"
2 7 "Ω"
$EndPhysicalNames
$Entities
8 8 2 0
1 0 0 0 0 
2 2 0 0 0 
3 2 1 0 0 
4 0 1 0 0 
5 0 1 0 0 
6 2 1 0 0 
7 2 2 0 0 
8 0 2 0 0 
1 0 0 0 2 0 0 1 1 2 1 -2 
2 2 0 0 2 1 0 1 2 2 2 -3 
3 0 1 0 2 1 0 1 3 2 4 -3 
4 0 0 0 0 1 0 1 5 2 4 -1 
5 0 1 0 2 1 0 1 4 2 5 -6 
6 2 1 0 2 2 0 1 2 2 6 -7 
7 0 2 0 2 2 0 1 6 2 7 -8 
8 0 1 0 0 2 0 1 5 2 8 -5 
1 0 0 0 2 1 0 1 7 4 1 2 -3 4 
2 0 1 0 2 2 0 1 7 4 5 6 7 8 
$EndEntities
$Nodes
18 1122 1 1122
0 1 0 1
1
0 0 0
0 2 0 1
2
2 0 0
0 3 0 1
3
2 1 0
0 4 0 1
4
0 1 0
0 5 0 1
5
0 1 0
0 6 0 1
6
2 1 0
0 7 0 1
7
2 2 0
0 8 0 1
8
0 2 0
1 1 0 31
9
10
11
12
13
14
15
16
17
18
19
20
21
22
23
24
25
26
27
28
29
30
31
32
33
34
35
36
37
38
39
0.06249999999988091 0 0
0.1249999999997459 0 0
0.1874999999996474 0 0
0.2499999999995463 0 0
0.3124999999993692 0 0
0.3749999999991868 0 0
0.4374999999990044 0 0
0.4999999999988219 0 0
0.5624999999986394 0 0
0.624999999998457 0 0
0.6874999999982746 0 0
0.7499999999980922 0 0
0.8124999999979098 0 0
0.8749999999977273 0 0
0.9374999999975449 0 0
0.9999999999973842 0 0
1.062499999997527 0 0
1.124999999997692 0 0
1.187499999997857 0 0
1.249999999998022 0 0
1.312499999998187 0 0
1.374999999998352 0 0
1.437499999998516 0 0
1.499999999998681 0 0
1.562499999998846 0 0
1.624999999999011 0 0
1.687499999999176 0 0
1.749999999999341 0 0
1.812499999999506 0 0
1.87499999999967 0 0
1.937499999999835 0 0
1 2 0 15
40
41
42
43
44
45
46
47
48
49
50
51
52
53
54
2 0.06249999999987293 0
2 0.1249999999997731 0
2 0.1874999999995934 0
2 0.2499999999994109 0
2 0.3124999999992285 0
2 0.3749999999990461 0
2 0.4374999999988636 0
2 0.4999999999986921 0
2 0.562499999998846 0
2 0.6249999999990109 0
2 0.6874999999991758 0
2 0.7499999999993406 0
2 0.8124999999995055 0
2 0.8749999999996703 0
2 0.9374999999998351 0
1 3 0 31
55
56
57
58
59
60
61
62
63
64
65
66
67
68
69
70
71
72
73
74
75
76
77
78
79
80
81
82
83
84
85
0.06249999999988091 1 0
0.1249999999997459 1 0
0.1874999999996474 1 0
0.2499999999995463 1 0
0.3124999999993692 1 0
0.3749999999991868 1 0
0.4374999999990044 1 0
0.4999999999988219 1 0
0.5624999999986394 1 0
0.624999999998457 1 0
0.6874999999982746 1 0
0.7499999999980922 1 0
0.8124999999979098 1 0
0.8749999999977273 1 0
0.9374999999975449 1 0
0.9999999999973842 1 0
1.062499999997527 1 0
1.124999999997692 1 0
1.187499999997857 1 0
1.249999999998022 1 0
1.312499999998187 1 0
1.374999999998352 1 0
1.437499999998516 1 0
1.499999999998681 1 0
1.562499999998846 1 0
1.624999999999011 1 0
1.687499999999176 1 0
1.749999999999341 1 0
1.812499999999506 1 0
1.87499999999967 1 0
1.937499999999835 1 0
1 4 0 15
86
87
88
89
90
91
92
93
94
95
96
97
98
99
100
0 0.9374999999997398 0
0 0.8749999999995012 0
0 0.8124999999999132 0
0 0.7500000000003471 0
0 0.6875000000007805 0
0 0.625000000001214 0
0 0.5625000000016476 0
0 0.5000000000020595 0
0 0.437500000001821 0
0 0.3750000000015609 0
0 0.3125000000013007 0
0 0.2500000000010405 0
0 0.1875000000007804 0
0 0.1250000000005203 0
0 0.06250000000026013 0
1 5 0 31
101
102
103
104
105
106
107
108
109
110
111
112
113
114
115
116
117
118
119
120
121
122
123
124
125
126
127
128
129
130
131
0.06249999999988091 1 0
0.1249999999997459 1 0
0.1874999999996474 1 0
0.2499999999995463 1 0
0.3124999999993692 1 0
0.3749999999991868 1 0
0.4374999999990044 1 0
0.4999999999988219 1 0
0.5624999999986394 1 0
0.624999999998457 1 0
0.6874999999982746 1 0
0.7499999999980922 1 0
0.8124999999979098 1 0
0.8749999999977273 1 0
0.9374999999975449 1 0
0.9999999999973842 1 0
1.062499999997527 1 0
1.124999999997692 1 0
1.187499999997857 1 0
1.249999999998022 1 0
1.312499999998187 1 0
1.374999999998352 1 0
1.437499999998516 1 0
1.499999999998681 1 0
1.562499999998846 1 0
1.624999999999011 1 0
1.687499999999176 1 0
1.749999999999341 1 0
1.812499999999506 1 0
1.87499999999967 1 0
1.937499999999835 1 0
1 6 0 15
132
133
134
135
136
137
138
139
140
141
142
143
144
145
146
2 1.0625 0
2 1.125 0
2 1.1875 0
2 1.25 0
2 1.3125 0
2 1.375 0
2 1.4375 0
2 1.5 0
2 1.5625 0
2 1.625 0
2 1.6875 0
2 1.75 0
2 1.8125 0
2 1.875 0
2 1.9375 0
1 7 0 31
147
148
149
150
151
152
153
154
155
156
157
158
159
160
161
162
163
164
165
166
167
168
169
170
171
172
173
174
175
176
177
1.93749999999974 2 0
1.87499999999948 2 0
1.812499999999219 2 0
1.749999999999002 2 0
1.687499999999393 2 0
1.624999999999826 2 0
1.56250000000026 2 0
1.500000000000694 2 0
1.437500000001128 2 0
1.375000000001561 2 0
1.312500000001995 2 0
1.250000000002428 2 0
1.187500000002862 2 0
1.125000000003295 2 0
1.062500000003729 2 0
1.000000000004119 2 0
0.937500000003902 2 0
0.875000000003642 2 0
0.8125000000033817 2 0
0.7500000000031217 2 0
0.6875000000028615 2 0
0.6250000000026015 2 0
0.5625000000023412 2 0
0.500000000002081 2 0
0.437500000001821 2 0
0.3750000000015608 2 0
0.3125000000013007 2 0
0.2500000000010405 2 0
0.1875000000007805 2 0
0.1250000000005203 2 0
0.06250000000026024 2 0
1 8 0 15
178
179
180
181
182
183
184
185
186
187
188
189
190
191
192
0 1.9375 0
0 1.875 0
0 1.8125 0
0 1.75 0
0 1.6875 0
0 1.625 0
0 1.5625 0
0 1.5 0
0 1.4375 0
0 1.375 0
0 1.3125 0
0 1.25 0
0 1.1875 0
0 1.125 0
0 1.0625 0
2 1 0 465
193
194
195
196
197
198
199
200
201
202
203
204
205
206
207
208
209
210
211
212
213
214
215
216
217
218
219
220
221
222
223
224
225
226
227
228
229
230
231
232
233
234
235
236
237
238
239
240
241
242
243
244
245
246
247
248
249
250
251
252
253
254
255
256
257
258
259
260
261
262
263
264
265
266
267
268
269
270
271
272
273
274
275
276
277
278
279
280
281
282
283
284
285
286
287
288
289
290
291
292
293
294
295
296
297
298
299
300
301
302
303
304
305
306
307
308
309
310
311
312
313
314
315
316
317
318
319
320
321
322
323
324
325
326
327
328
329
330
331
332
333
334
335
336
337
338
339
340
341
342
343
344
345
346
347
348
349
350
351
352
353
354
355
356
357
358
359
360
361
362
363
364
365
366
367
368
369
370
371
372
373
374
375
376
377
378
379
380
381
382
383
384
385
386
387
388
389
390
391
392
393
394
395
396
397
398
399
400
401
402
403
404
405
406
407
408
409
410
411
412
413
414
415
416
417
418
419
420
421
422
423
424
425
426
427
428
429
430
431
432
433
434
435
436
437
438
439
440
441
442
443
444
445
446
447
448
449
450
451
452
453
454
455
456
457
458
459
460
461
462
463
464
465
466
467
468
469
470
471
472
473
474
475
476
477
478
479
480
481
482
483
484
485
486
487
488
489
490
491
492
493
494
495
496
497
498
499
500
501
502
503
504
505
506
507
508
509
510
511
512
513
514
515
516
517
518
519
520
521
522
523
524
525
526
527
528
529
530
531
532
533
534
535
536
537
538
539
540
541
542
543
544
545
546
547
548
549
550
551
552
553
554
555
556
557
558
559
560
561
562
563
564
565
566
567
568
569
570
571
572
573
574
575
576
577
578
579
580
581
582
583
584
585
586
587
588
589
590
591
592
593
594
595
596
597
598
599
600
601
602
603
604
605
606
607
608
609
610
611
612
613
614
615
616
617
618
619
620
621
622
623
624
625
626
627
628
629
630
631
632
633
634
635
636
637
638
639
640
641
642
643
644
645
646
647
648
649
650
651
652
653
654
655
656
657
0.0624999999998809 0.06250000000024804 0
0.0624999999998809 0.1250000000004969 0
0.06249999999988091 0.1875000000007433 0
0.06249999999988091 0.2500000000009896 0
0.0624999999998809 0.3125000000012359 0
0.0624999999998809 0.3750000000014823 0
0.06249999999988092 0.4375000000017287 0
0.06249999999988091 0.5000000000019543 0
0.06249999999988089 0.5625000000015602 0
0.06249999999988091 0.6250000000011453 0
0.0624999999998809 0.6875000000007302 0
0.06249999999988092 0.7500000000003156 0
0.06249999999988089 0.8124999999999004 0
0.06249999999988091 0.8749999999995064 0
0.06249999999988092 0.9374999999997429 0
0.1249999999997458 0.06250000000023594 0
0.1249999999997458 0.1250000000004735 0
0.1249999999997459 0.1875000000007062 0
0.1249999999997459 0.2500000000009386 0
0.1249999999997458 0.3125000000011712 0
0.1249999999997459 0.3750000000014037 0
0.1249999999997459 0.4375000000016362 0
0.1249999999997459 0.5000000000018491 0
0.1249999999997459 0.5625000000014727 0
0.1249999999997458 0.6250000000010764 0
0.1249999999997458 0.6875000000006802 0
0.1249999999997459 0.750000000000284 0
0.1249999999997459 0.8124999999998879 0
0.1249999999997459 0.8749999999995119 0
0.1249999999997459 0.9374999999997459 0
0.1874999999996474 0.06250000000022383 0
0.1874999999996474 0.1250000000004502 0
0.1874999999996474 0.1875000000006691 0
0.1874999999996474 0.2500000000008878 0
0.1874999999996474 0.3125000000011064 0
0.1874999999996475 0.3750000000013251 0
0.1874999999996474 0.4375000000015438 0
0.1874999999996475 0.5000000000017438 0
0.1874999999996474 0.5625000000013848 0
0.1874999999996474 0.6250000000010074 0
0.1874999999996474 0.6875000000006301 0
0.1874999999996474 0.7500000000002526 0
0.1874999999996474 0.812499999999875 0
0.1874999999996474 0.8749999999995171 0
0.1874999999996474 0.9374999999997485 0
0.2499999999995463 0.06250000000021173 0
0.2499999999995463 0.1250000000004269 0
0.2499999999995463 0.187500000000632 0
0.2499999999995463 0.2500000000008367 0
0.2499999999995463 0.3125000000010417 0
0.2499999999995463 0.3750000000012465 0
0.2499999999995463 0.4375000000014513 0
0.2499999999995463 0.5000000000016386 0
0.2499999999995463 0.5625000000012973 0
0.2499999999995463 0.6250000000009388 0
0.2499999999995463 0.68750000000058 0
0.2499999999995463 0.7500000000002213 0
0.2499999999995463 0.8124999999998621 0
0.2499999999995463 0.8749999999995222 0
0.2499999999995463 0.9374999999997516 0
0.3124999999993692 0.06250000000019963 0
0.3124999999993692 0.1250000000004035 0
0.3124999999993692 0.1875000000005949 0
0.3124999999993692 0.2500000000007859 0
0.3124999999993693 0.312500000000977 0
0.3124999999993692 0.3750000000011679 0
0.3124999999993692 0.4375000000013589 0
0.3124999999993692 0.5000000000015333 0
0.3124999999993692 0.5625000000012098 0
0.3124999999993692 0.6250000000008699 0
0.3124999999993692 0.6875000000005299 0
0.3124999999993692 0.7500000000001898 0
0.3124999999993692 0.8124999999998495 0
0.3124999999993692 0.8749999999995275 0
0.3124999999993692 0.9374999999997546 0
0.3749999999991868 0.06250000000018753 0
0.3749999999991868 0.1250000000003802 0
0.3749999999991868 0.1875000000005578 0
0.3749999999991868 0.250000000000735 0
0.3749999999991868 0.3125000000009122 0
0.3749999999991868 0.3750000000010893 0
0.3749999999991868 0.4375000000012665 0
0.3749999999991868 0.5000000000014281 0
0.3749999999991869 0.5625000000011223 0
0.3749999999991868 0.625000000000801 0
0.3749999999991868 0.6875000000004797 0
0.3749999999991868 0.7500000000001585 0
0.3749999999991868 0.8124999999998368 0
0.3749999999991868 0.8749999999995328 0
0.3749999999991868 0.9374999999997577 0
0.4374999999990044 0.06250000000017543 0
0.4374999999990042 0.1250000000003569 0
0.4374999999990044 0.1875000000005208 0
0.4374999999990044 0.2500000000006841 0
0.4374999999990044 0.3125000000008474 0
0.4374999999990044 0.3750000000010107 0
0.4374999999990044 0.4375000000011741 0
0.4374999999990044 0.5000000000013228 0
0.4374999999990044 0.5625000000010348 0
0.4374999999990044 0.6250000000007322 0
0.4374999999990044 0.6875000000004295 0
0.4374999999990044 0.7500000000001269 0
0.4374999999990044 0.8124999999998239 0
0.4374999999990044 0.8749999999995381 0
0.4374999999990044 0.9374999999997605 0
0.4999999999988218 0.06250000000016333 0
0.4999999999988218 0.1250000000003335 0
0.4999999999988218 0.1875000000004836 0
0.4999999999988219 0.2500000000006331 0
0.4999999999988219 0.3125000000007827 0
0.4999999999988219 0.3750000000009322 0
0.499999999998822 0.4375000000010817 0
0.4999999999988219 0.5000000000012176 0
0.4999999999988218 0.5625000000009474 0
0.4999999999988219 0.6250000000006634 0
0.4999999999988219 0.6875000000003794 0
0.4999999999988219 0.7500000000000954 0
0.4999999999988219 0.8124999999998113 0
0.4999999999988219 0.8749999999995435 0
0.4999999999988219 0.9374999999997636 0
0.5624999999986396 0.06250000000015123 0
0.5624999999986394 0.1250000000003101 0
0.5624999999986394 0.1875000000004465 0
0.5624999999986395 0.2500000000005823 0
0.5624999999986394 0.312500000000718 0
0.5624999999986393 0.3750000000008537 0
0.5624999999986394 0.4375000000009892 0
0.5624999999986394 0.5000000000011123 0
0.5624999999986394 0.5625000000008598 0
0.5624999999986394 0.6250000000005945 0
0.5624999999986394 0.6875000000003291 0
0.5624999999986394 0.7500000000000639 0
0.5624999999986394 0.8124999999997986 0
0.5624999999986394 0.8749999999995487 0
0.5624999999986394 0.9374999999997666 0
0.624999999998457 0.06250000000013912 0
0.624999999998457 0.1250000000002868 0
0.6249999999984568 0.1875000000004095 0
0.624999999998457 0.2500000000005312 0
0.6249999999984568 0.3125000000006531 0
0.6249999999984572 0.375000000000775 0
0.624999999998457 0.4375000000008968 0
0.624999999998457 0.5000000000010071 0
0.624999999998457 0.5625000000007719 0
0.624999999998457 0.6250000000005257 0
0.624999999998457 0.687500000000279 0
0.624999999998457 0.7500000000000326 0
0.624999999998457 0.8124999999997857 0
0.624999999998457 0.8749999999995539 0
0.624999999998457 0.9374999999997694 0
0.6874999999982745 0.06250000000012704 0
0.6874999999982746 0.1250000000002634 0
0.6874999999982746 0.1875000000003724 0
0.6874999999982744 0.2500000000004803 0
0.6874999999982746 0.3125000000005884 0
0.6874999999982745 0.3750000000006964 0
0.6874999999982744 0.4375000000008044 0
0.6874999999982746 0.5000000000009018 0
0.6874999999982746 0.5625000000006845 0
0.6874999999982746 0.6250000000004569 0
0.6874999999982746 0.6875000000002289 0
0.6874999999982746 0.7500000000000013 0
0.6874999999982746 0.8124999999997731 0
0.6874999999982746 0.8749999999995592 0
0.6874999999982746 0.9374999999997725 0
0.7499999999980922 0.06250000000011492 0
0.7499999999980922 0.1250000000002401 0
0.7499999999980922 0.1875000000003353 0
0.7499999999980922 0.2500000000004295 0
0.7499999999980922 0.3125000000005236 0
0.7499999999980922 0.3750000000006179 0
0.7499999999980922 0.437500000000712 0
0.7499999999980922 0.5000000000007966 0
0.7499999999980922 0.562500000000597 0
0.7499999999980922 0.625000000000388 0
0.7499999999980922 0.6875000000001786 0
0.7499999999980922 0.7499999999999697 0
0.7499999999980922 0.8124999999997604 0
0.7499999999980922 0.8749999999995646 0
0.7499999999980922 0.9374999999997756 0
0.8124999999979098 0.06250000000010282 0
0.8124999999979097 0.1250000000002167 0
0.8124999999979098 0.1875000000002982 0
0.8124999999979099 0.2500000000003785 0
0.8124999999979099 0.312500000000459 0
0.8124999999979097 0.3750000000005393 0
0.8124999999979096 0.4375000000006196 0
0.8124999999979096 0.5000000000006912 0
0.8124999999979098 0.5625000000005094 0
0.8124999999979098 0.6250000000003192 0
0.8124999999979099 0.6875000000001285 0
0.8124999999979099 0.749999999999938 0
0.8124999999979098 0.8124999999997475 0
0.8124999999979098 0.8749999999995699 0
0.8124999999979098 0.9374999999997786 0
0.874999999997727 0.06250000000009072 0
0.8749999999977273 0.1250000000001934 0
0.8749999999977275 0.1875000000002611 0
0.8749999999977274 0.2500000000003276 0
0.874999999997727 0.3125000000003941 0
0.8749999999977273 0.3750000000004606 0
0.8749999999977273 0.4375000000005271 0
0.8749999999977273 0.5000000000005863 0
0.8749999999977273 0.562500000000422 0
0.8749999999977273 0.6250000000002502 0
0.8749999999977273 0.6875000000000782 0
0.8749999999977273 0.7499999999999065 0
0.8749999999977274 0.8124999999997349 0
0.8749999999977273 0.8749999999995752 0
0.8749999999977273 0.9374999999997813 0
0.9374999999975447 0.06250000000007862 0
0.9374999999975446 0.1250000000001701 0
0.9374999999975449 0.187500000000224 0
0.9374999999975449 0.2500000000002767 0
0.9374999999975449 0.3125000000003294 0
0.9374999999975447 0.3750000000003821 0
0.9374999999975449 0.4375000000004348 0
0.9374999999975449 0.5000000000004808 0
0.9374999999975449 0.5625000000003345 0
0.9374999999975449 0.6250000000001815 0
0.9374999999975449 0.6875000000000283 0
0.9374999999975449 0.7499999999998753 0
0.9374999999975449 0.8124999999997222 0
0.9374999999975449 0.8749999999995803 0
0.9374999999975449 0.9374999999997845 0
0.9999999999973841 0.06250000000006652 0
0.999999999997384 0.1250000000001467 0
0.9999999999973842 0.1875000000001869 0
0.9999999999973843 0.2500000000002257 0
0.999999999997384 0.3125000000002646 0
0.9999999999973844 0.3750000000003035 0
0.9999999999973842 0.4375000000003423 0
0.9999999999973842 0.5000000000003756 0
0.9999999999973842 0.5625000000002468 0
0.9999999999973841 0.6250000000001124 0
0.999999999997384 0.6874999999999782 0
0.9999999999973842 0.7499999999998439 0
0.9999999999973844 0.8124999999997093 0
0.9999999999973842 0.8749999999995857 0
0.9999999999973844 0.9374999999997875 0
1.062499999997527 0.06250000000005441 0
1.062499999997527 0.1250000000001234 0
1.062499999997527 0.1875000000001498 0
1.062499999997527 0.2500000000001748 0
1.062499999997527 0.3125000000001998 0
1.062499999997527 0.3750000000002249 0
1.062499999997527 0.4375000000002499 0
1.062499999997527 0.5000000000002706 0
1.062499999997527 0.5625000000001591 0
1.062499999997527 0.6250000000000436 0
1.062499999997527 0.6874999999999282 0
1.062499999997527 0.7499999999998125 0
1.062499999997527 0.8124999999996967 0
1.062499999997527 0.874999999999591 0
1.062499999997527 0.9374999999997903 0
1.124999999997692 0.06250000000004231 0
1.124999999997692 0.1250000000001 0
1.124999999997692 0.1875000000001127 0
1.124999999997692 0.250000000000124 0
1.124999999997692 0.3125000000001351 0
1.124999999997692 0.3750000000001463 0
1.124999999997692 0.4375000000001574 0
1.124999999997692 0.5000000000001653 0
1.124999999997692 0.5625000000000716 0
1.124999999997692 0.6249999999999748 0
1.124999999997692 0.687499999999878 0
1.124999999997692 0.749999999999781 0
1.124999999997692 0.8124999999996838 0
1.124999999997692 0.8749999999995963 0
1.124999999997692 0.9374999999997935 0
1.187499999997857 0.06250000000003021 0
1.187499999997857 0.1250000000000766 0
1.187499999997857 0.1875000000000756 0
1.187499999997857 0.2500000000000729 0
1.187499999997857 0.3125000000000704 0
1.187499999997857 0.3750000000000677 0
1.187499999997857 0.4375000000000651 0
1.187499999997857 0.5000000000000603 0
1.187499999997857 0.5624999999999841 0
1.187499999997857 0.6249999999999057 0
1.187499999997857 0.6874999999998278 0
1.187499999997857 0.7499999999997494 0
1.187499999997857 0.8124999999996712 0
1.187499999997857 0.8749999999996017 0
1.187499999997857 0.9374999999997965 0
1.249999999998022 0.06250000000001811 0
1.249999999998022 0.1250000000000533 0
1.249999999998022 0.1875000000000385 0
1.249999999998022 0.250000000000022 0
1.249999999998022 0.3125000000000056 0
1.249999999998022 0.3749999999999891 0
1.249999999998022 0.4374999999999727 0
1.249999999998022 0.4999999999999548 0
1.249999999998022 0.5624999999998966 0
1.249999999998022 0.6249999999998371 0
1.249999999998022 0.6874999999997776 0
1.249999999998022 0.7499999999997179 0
1.249999999998022 0.8124999999996585 0
1.249999999998022 0.8749999999996068 0
1.249999999998022 0.9374999999997994 0
1.312499999998186 0.06250000000000601 0
1.312499999998186 0.1250000000000299 0
1.312499999998187 0.1875000000000014 0
1.312499999998187 0.2499999999999711 0
1.312499999998187 0.3124999999999408 0
1.312499999998187 0.3749999999999105 0
1.312499999998187 0.4374999999998802 0
1.312499999998187 0.4999999999998496 0
1.312499999998187 0.5624999999998092 0
1.312499999998187 0.6249999999997681 0
1.312499999998187 0.6874999999997274 0
1.312499999998187 0.7499999999996866 0
1.312499999998187 0.8124999999996456 0
1.312499999998187 0.8749999999996123 0
1.312499999998187 0.9374999999998022 0
1.374999999998352 0.06249999999999394 0
1.374999999998352 0.1250000000000066 0
1.374999999998352 0.1874999999999644 0
1.374999999998352 0.2499999999999201 0
1.374999999998352 0.3124999999998761 0
1.374999999998352 0.374999999999832 0
1.374999999998352 0.4374999999997878 0
1.374999999998352 0.4999999999997445 0
1.374999999998352 0.5624999999997217 0
1.374999999998352 0.6249999999996992 0
1.374999999998352 0.6874999999996773 0
1.374999999998352 0.7499999999996553 0
1.374999999998352 0.812499999999633 0
1.374999999998352 0.8749999999996174 0
1.374999999998352 0.9374999999998055 0
1.437499999998517 0.06249999999998183 0
1.437499999998516 0.1249999999999833 0
1.437499999998517 0.1874999999999273 0
1.437499999998516 0.2499999999998693 0
1.437499999998516 0.3124999999998113 0
1.437499999998516 0.3749999999997535 0
1.437499999998516 0.4374999999996954 0
1.437499999998516 0.4999999999996393 0
1.437499999998516 0.562499999999634 0
1.437499999998516 0.6249999999996304 0
1.437499999998516 0.6874999999996271 0
1.437499999998516 0.7499999999996237 0
1.437499999998516 0.8124999999996201 0
1.437499999998516 0.8749999999996227 0
1.437499999998516 0.9374999999998083 0
1.499999999998681 0.06249999999996973 0
1.499999999998681 0.1249999999999599 0
1.499999999998681 0.1874999999998901 0
1.499999999998681 0.2499999999998183 0
1.499999999998681 0.3124999999997465 0
1.499999999998681 0.3749999999996749 0
1.499999999998681 0.437499999999603 0
1.499999999998681 0.4999999999995339 0
1.499999999998681 0.5624999999995465 0
1.499999999998681 0.6249999999995616 0
1.499999999998681 0.6874999999995769 0
1.499999999998681 0.7499999999995921 0
1.499999999998681 0.8124999999996074 0
1.499999999998681 0.8749999999996279 0
1.499999999998681 0.9374999999998112 0
1.562499999998846 0.06249999999995763 0
1.562499999998846 0.1249999999999366 0
1.562499999998846 0.1874999999998531 0
1.562499999998846 0.2499999999997674 0
1.562499999998846 0.3124999999996818 0
1.562499999998846 0.3749999999995963 0
1.562499999998846 0.4374999999995106 0
1.562499999998846 0.4999999999994288 0
1.562499999998846 0.5624999999994588 0
1.562499999998846 0.6249999999994927 0
1.562499999998846 0.6874999999995267 0
1.562499999998846 0.7499999999995607 0
1.562499999998846 0.8124999999995948 0
1.562499999998846 0.8749999999996332 0
1.562499999998846 0.9374999999998143 0
1.624999999999011 0.06249999999994553 0
1.624999999999011 0.1249999999999132 0
1.624999999999011 0.1874999999998159 0
1.624999999999011 0.2499999999997165 0
1.624999999999011 0.312499999999617 0
1.624999999999011 0.3749999999995177 0
1.624999999999011 0.4374999999994181 0
1.624999999999011 0.4999999999993235 0
1.624999999999011 0.5624999999993713 0
1.624999999999011 0.6249999999994239 0
1.624999999999011 0.6874999999994765 0
1.624999999999011 0.7499999999995294 0
1.624999999999011 0.8124999999995819 0
1.624999999999011 0.8749999999996385 0
1.624999999999011 0.9374999999998175 0
1.687499999999176 0.06249999999993343 0
1.687499999999176 0.1249999999998899 0
1.687499999999176 0.1874999999997788 0
1.687499999999176 0.2499999999996655 0
1.687499999999176 0.3124999999995524 0
1.687499999999176 0.3749999999994391 0
1.687499999999176 0.4374999999993258 0
1.687499999999176 0.4999999999992183 0
1.687499999999176 0.5624999999992838 0
1.687499999999176 0.6249999999993551 0
1.687499999999176 0.6874999999994263 0
1.687499999999176 0.7499999999994981 0
1.687499999999176 0.8124999999995692 0
1.687499999999176 0.8749999999996438 0
1.687499999999176 0.9374999999998203 0
1.74999999999934 0.06249999999992133 0
1.749999999999341 0.1249999999998665 0
1.749999999999341 0.1874999999997418 0
1.749999999999341 0.2499999999996146 0
1.749999999999341 0.3124999999994875 0
1.74999999999934 0.3749999999993605 0
1.749999999999341 0.4374999999992333 0
1.749999999999341 0.499999999999113 0
1.749999999999341 0.5624999999991963 0
1.749999999999341 0.6249999999992862 0
1.749999999999341 0.6874999999993764 0
1.749999999999341 0.7499999999994665 0
1.749999999999341 0.8124999999995566 0
1.749999999999341 0.8749999999996492 0
1.749999999999341 0.9374999999998231 0
1.812499999999506 0.06249999999990923 0
1.812499999999506 0.1249999999998432 0
1.812499999999505 0.1874999999997047 0
1.812499999999506 0.2499999999995637 0
1.812499999999505 0.3124999999994228 0
1.812499999999506 0.3749999999992819 0
1.812499999999505 0.4374999999991409 0
1.812499999999506 0.4999999999990078 0
1.812499999999506 0.5624999999991088 0
1.812499999999506 0.6249999999992174 0
1.812499999999506 0.6874999999993262 0
1.812499999999506 0.749999999999435 0
1.812499999999506 0.8124999999995437 0
1.812499999999505 0.8749999999996545 0
1.812499999999506 0.9374999999998263 0
1.87499999999967 0.06249999999989712 0
1.87499999999967 0.1249999999998198 0
1.87499999999967 0.1874999999996676 0
1.87499999999967 0.2499999999995128 0
1.874999999999671 0.3124999999993581 0
1.87499999999967 0.3749999999992032 0
1.87499999999967 0.4374999999990485 0
1.874999999999671 0.4999999999989025 0
1.87499999999967 0.5624999999990211 0
1.87499999999967 0.6249999999991486 0
1.87499999999967 0.687499999999276 0
1.87499999999967 0.7499999999994035 0
1.874999999999671 0.812499999999531 0
1.87499999999967 0.8749999999996598 0
1.87499999999967 0.9374999999998292 0
1.937499999999835 0.06249999999988502 0
1.937499999999835 0.1249999999997965 0
1.937499999999835 0.1874999999996305 0
1.937499999999835 0.2499999999994619 0
1.937499999999835 0.3124999999992932 0
1.937499999999835 0.3749999999991246 0
1.937499999999835 0.4374999999989559 0
1.937499999999835 0.4999999999987973 0
1.937499999999835 0.5624999999989334 0
1.937499999999835 0.6249999999990797 0
1.937499999999835 0.6874999999992261 0
1.937499999999835 0.7499999999993719 0
1.937499999999835 0.8124999999995182 0
1.937499999999835 0.8749999999996652 0
1.937499999999835 0.937499999999832 0
2 2 0 465
658
659
660
661
662
663
664
665
666
667
668
669
670
671
672
673
674
675
676
677
678
679
680
681
682
683
684
685
686
687
688
689
690
691
692
693
694
695
696
697
698
699
700
701
702
703
704
705
706
707
708
709
710
711
712
713
714
715
716
717
718
719
720
721
722
723
724
725
726
727
728
729
730
731
732
733
734
735
736
737
738
739
740
741
742
743
744
745
746
747
748
749
750
751
752
753
754
755
756
757
758
759
760
761
762
763
764
765
766
767
768
769
770
771
772
773
774
775
776
777
778
779
780
781
782
783
784
785
786
787
788
789
790
791
792
793
794
795
796
797
798
799
800
801
802
803
804
805
806
807
808
809
810
811
812
813
814
815
816
817
818
819
820
821
822
823
824
825
826
827
828
829
830
831
832
833
834
835
836
837
838
839
840
841
842
843
844
845
846
847
848
849
850
851
852
853
854
855
856
857
858
859
860
861
862
863
864
865
866
867
868
869
870
871
872
873
874
875
876
877
878
879
880
881
882
883
884
885
886
887
888
889
890
891
892
893
894
895
896
897
898
899
900
901
902
903
904
905
906
907
908
909
910
911
912
913
914
915
916
917
918
919
920
921
922
923
924
925
926
927
928
929
930
931
932
933
934
935
936
937
938
939
940
941
942
943
944
945
946
947
948
949
950
951
952
953
954
955
956
957
958
959
960
961
962
963
964
965
966
967
968
969
970
971
972
973
974
975
976
977
978
979
980
981
982
983
984
985
986
987
988
989
990
991
992
993
994
995
996
997
998
999
1000
1001
1002
1003
1004
1005
1006
1007
1008
1009
1010
1011
1012
1013
1014
1015
1016
1017
1018
1019
1020
1021
1022
1023
1024
1025
1026
1027
1028
1029
1030
1031
1032
1033
1034
1035
1036
1037
1038
1039
1040
1041
1042
1043
1044
1045
1046
1047
1048
1049
1050
1051
1052
1053
1054
1055
1056
1057
1058
1059
1060
1061
1062
1063
1064
1065
1066
1067
1068
1069
1070
1071
1072
1073
1074
1075
1076
1077
1078
1079
1080
1081
1082
1083
1084
1085
1086
1087
1088
1089
1090
1091
1092
1093
1094
1095
1096
1097
1098
1099
1100
1101
1102
1103
1104
1105
1106
1107
1108
1109
1110
1111
1112
1113
1114
1115
1116
1117
1118
1119
1120
1121
1122
0.06249999999990462 1.0625 0
0.06249999999992832 1.125 0
0.06249999999995202 1.1875 0
0.06249999999997576 1.25 0
0.06249999999999946 1.3125 0
0.06250000000002316 1.375 0
0.06250000000004687 1.4375 0
0.06250000000007057 1.5 0
0.06250000000009427 1.5625 0
0.06250000000011798 1.625 0
0.06250000000014168 1.6875 0
0.06250000000016541 1.75 0
0.06250000000018911 1.8125 0
0.06250000000021282 1.875 0
0.06250000000023655 1.9375 0
0.1249999999997943 1.0625 0
0.1249999999998427 1.125 0
0.124999999999891 1.1875 0
0.1249999999999394 1.25 0
0.1249999999999878 1.3125 0
0.1250000000000362 1.375 0
0.1250000000000847 1.4375 0
0.1250000000001331 1.5 0
0.1250000000001815 1.5625 0
0.1250000000002298 1.625 0
0.1250000000002782 1.6875 0
0.1250000000003266 1.75 0
0.125000000000375 1.8125 0
0.1250000000004234 1.875 0
0.1250000000004718 1.9375 0
0.1874999999997183 1.0625 0
0.1874999999997891 1.125 0
0.1874999999998599 1.1875 0
0.1874999999999307 1.25 0
0.1875000000000015 1.3125 0
0.1875000000000723 1.375 0
0.1875000000001431 1.4375 0
0.187500000000214 1.5 0
0.1875000000002848 1.5625 0
0.1875000000003556 1.625 0
0.1875000000004264 1.6875 0
0.1875000000004972 1.75 0
0.187500000000568 1.8125 0
0.1875000000006389 1.875 0
0.1875000000007097 1.9375 0
0.2499999999996397 1.0625 0
0.2499999999997331 1.125 0
0.2499999999998265 1.1875 0
0.2499999999999198 1.25 0
0.2500000000000132 1.3125 0
0.2500000000001066 1.375 0
0.2500000000002 1.4375 0
0.2500000000002933 1.5 0
0.2500000000003868 1.5625 0
0.2500000000004802 1.625 0
0.2500000000005735 1.6875 0
0.250000000000667 1.75 0
0.2500000000007604 1.8125 0
0.2500000000008538 1.875 0
0.2500000000009471 1.9375 0
0.3124999999994899 1.0625 0
0.3124999999996107 1.125 0
0.3124999999997314 1.1875 0
0.3124999999998522 1.25 0
0.3124999999999727 1.3125 0
0.3125000000000936 1.375 0
0.3125000000002143 1.4375 0
0.312500000000335 1.5 0
0.3125000000004557 1.5625 0
0.3125000000005764 1.625 0
0.3125000000006972 1.6875 0
0.3125000000008178 1.75 0
0.3125000000009385 1.8125 0
0.3125000000010593 1.875 0
0.3125000000011801 1.9375 0
0.3749999999993353 1.0625 0
0.3749999999994835 1.125 0
0.374999999999632 1.1875 0
0.3749999999997802 1.25 0
0.3749999999999286 1.3125 0
0.375000000000077 1.375 0
0.3750000000002254 1.4375 0
0.3750000000003738 1.5 0
0.3750000000005222 1.5625 0
0.3750000000006705 1.625 0
0.3750000000008189 1.6875 0
0.3750000000009672 1.75 0
0.3750000000011156 1.8125 0
0.3750000000012641 1.875 0
0.3750000000014124 1.9375 0
0.4374999999991804 1.0625 0
0.4374999999993565 1.125 0
0.4374999999995324 1.1875 0
0.4374999999997084 1.25 0
0.4374999999998845 1.3125 0
0.4375000000000607 1.375 0
0.4375000000002366 1.4375 0
0.4375000000004126 1.5 0
0.4375000000005887 1.5625 0
0.4375000000007648 1.625 0
0.4375000000009407 1.6875 0
0.4375000000011168 1.75 0
0.4375000000012929 1.8125 0
0.437500000001469 1.875 0
0.437500000001645 1.9375 0
0.4999999999990257 1.0625 0
0.4999999999992293 1.125 0
0.4999999999994329 1.1875 0
0.4999999999996367 1.25 0
0.4999999999998403 1.3125 0
0.500000000000044 1.375 0
0.5000000000002478 1.4375 0
0.5000000000004514 1.5 0
0.5000000000006553 1.5625 0
0.5000000000008589 1.625 0
0.5000000000010625 1.6875 0
0.5000000000012661 1.75 0
0.5000000000014699 1.8125 0
0.5000000000016738 1.875 0
0.5000000000018774 1.9375 0
0.5624999999988707 1.0625 0
0.5624999999991023 1.125 0
0.5624999999993334 1.1875 0
0.562499999999565 1.25 0
0.5624999999997962 1.3125 0
0.5625000000000275 1.375 0
0.5625000000002589 1.4375 0
0.5625000000004903 1.5 0
0.5625000000007216 1.5625 0
0.562500000000953 1.625 0
0.5625000000011844 1.6875 0
0.5625000000014158 1.75 0
0.5625000000016471 1.8125 0
0.5625000000018785 1.875 0
0.5625000000021099 1.9375 0
0.6249999999987161 1.0625 0
0.624999999998975 1.125 0
0.6249999999992342 1.1875 0
0.6249999999994931 1.25 0
0.624999999999752 1.3125 0
0.6250000000000111 1.375 0
0.6250000000002702 1.4375 0
0.6250000000005294 1.5 0
0.6250000000007883 1.5625 0
0.6250000000010472 1.625 0
0.6250000000013063 1.6875 0
0.6250000000015654 1.75 0
0.6250000000018243 1.8125 0
0.6250000000020834 1.875 0
0.6250000000023426 1.9375 0
0.6874999999985612 1.0625 0
0.687499999998848 1.125 0
0.6874999999991347 1.1875 0
0.6874999999994214 1.25 0
0.687499999999708 1.3125 0
0.6874999999999944 1.375 0
0.6875000000002813 1.4375 0
0.6875000000005682 1.5 0
0.6875000000008546 1.5625 0
0.6875000000011415 1.625 0
0.6875000000014282 1.6875 0
0.6875000000017149 1.75 0
0.6875000000020013 1.8125 0
0.6875000000022882 1.875 0
0.6875000000025748 1.9375 0
0.7499999999984066 1.0625 0
0.7499999999987208 1.125 0
0.7499999999990352 1.1875 0
0.7499999999993496 1.25 0
0.7499999999996638 1.3125 0
0.7499999999999782 1.375 0
0.7500000000002927 1.4375 0
0.7500000000006071 1.5 0
0.7500000000009213 1.5625 0
0.7500000000012357 1.625 0
0.7500000000015499 1.6875 0
0.7500000000018643 1.75 0
0.7500000000021787 1.8125 0
0.7500000000024931 1.875 0
0.7500000000028075 1.9375 0
0.8124999999982518 1.0625 0
0.8124999999985938 1.125 0
0.8124999999989357 1.1875 0
0.8124999999992777 1.25 0
0.8124999999996196 1.3125 0
0.8124999999999618 1.375 0
0.8125000000003038 1.4375 0
0.8125000000006457 1.5 0
0.8125000000009877 1.5625 0
0.8125000000013298 1.625 0
0.8125000000016718 1.6875 0
0.8125000000020137 1.75 0
0.8125000000023557 1.8125 0
0.8125000000026976 1.875 0
0.8125000000030396 1.9375 0
0.8749999999980967 1.0625 0
0.8749999999984664 1.125 0
0.8749999999988362 1.1875 0
0.8749999999992059 1.25 0
0.8749999999995758 1.3125 0
0.8749999999999454 1.375 0
0.875000000000315 1.4375 0
0.8750000000006847 1.5 0
0.8750000000010542 1.5625 0
0.8750000000014238 1.625 0
0.8750000000017936 1.6875 0
0.8750000000021635 1.75 0
0.875000000002533 1.8125 0
0.8750000000029027 1.875 0
0.8750000000032724 1.9375 0
0.9374999999979422 1.0625 0
0.9374999999983394 1.125 0
0.9374999999987369 1.1875 0
0.9374999999991339 1.25 0
0.9374999999995316 1.3125 0
0.9374999999999289 1.375 0
0.9375000000003261 1.4375 0
0.9375000000007235 1.5 0
0.9375000000011208 1.5625 0
0.9375000000015181 1.625 0
0.9375000000019155 1.6875 0
0.9375000000023127 1.75 0
0.9375000000027099 1.8125 0
0.9375000000031074 1.875 0
0.9375000000035046 1.9375 0
0.9999999999978051 1.0625 0
0.9999999999982261 1.125 0
0.9999999999986471 1.1875 0
0.9999999999990681 1.25 0
0.9999999999994886 1.3125 0
0.9999999999999096 1.375 0
1.000000000000331 1.4375 0
1.000000000000752 1.5 0
1.000000000001173 1.5625 0
1.000000000001594 1.625 0
1.000000000002015 1.6875 0
1.000000000002435 1.75 0
1.000000000002856 1.8125 0
1.000000000003277 1.875 0
1.000000000003698 1.9375 0
1.062499999997915 1.0625 0
1.062499999998302 1.125 0
1.06249999999869 1.1875 0
1.062499999999078 1.25 0
1.062499999999465 1.3125 0
1.062499999999853 1.375 0
1.06250000000024 1.4375 0
1.062500000000628 1.5 0
1.062500000001016 1.5625 0
1.062500000001403 1.625 0
1.062500000001791 1.6875 0
1.062500000002178 1.75 0
1.062500000002566 1.8125 0
1.062500000002954 1.875 0
1.062500000003341 1.9375 0
1.124999999998042 1.0625 0
1.124999999998392 1.125 0
1.124999999998743 1.1875 0
1.124999999999093 1.25 0
1.124999999999443 1.3125 0
1.124999999999793 1.375 0
1.125000000000143 1.4375 0
1.125000000000494 1.5 0
1.125000000000844 1.5625 0
1.125000000001194 1.625 0
1.125000000001544 1.6875 0
1.125000000001894 1.75 0
1.125000000002245 1.8125 0
1.125000000002595 1.875 0
1.125000000002945 1.9375 0
1.18749999999817 1.0625 0
1.187499999998483 1.125 0
1.187499999998795 1.1875 0
1.187499999999108 1.25 0
1.187499999999421 1.3125 0
1.187499999999734 1.375 0
1.187500000000047 1.4375 0
1.187500000000359 1.5 0
1.187500000000672 1.5625 0
1.187500000000985 1.625 0
1.187500000001298 1.6875 0
1.18750000000161 1.75 0
1.187500000001923 1.8125 0
1.187500000002236 1.875 0
1.187500000002549 1.9375 0
1.249999999998297 1.0625 0
1.249999999998573 1.125 0
1.249999999998848 1.1875 0
1.249999999999123 1.25 0
1.249999999999399 1.3125 0
1.249999999999674 1.375 0
1.249999999999949 1.4375 0
1.250000000000225 1.5 0
1.2500000000005 1.5625 0
1.250000000000776 1.625 0
1.250000000001051 1.6875 0
1.250000000001326 1.75 0
1.250000000001602 1.8125 0
1.250000000001877 1.875 0
1.250000000002153 1.9375 0
1.312499999998425 1.0625 0
1.312499999998662 1.125 0
1.312499999998901 1.1875 0
1.312499999999139 1.25 0
1.312499999999377 1.3125 0
1.312499999999615 1.375 0
1.312499999999853 1.4375 0
1.312500000000091 1.5 0
1.312500000000329 1.5625 0
1.312500000000567 1.625 0
1.312500000000805 1.6875 0
1.312500000001042 1.75 0
1.312500000001281 1.8125 0
1.312500000001518 1.875 0
1.312500000001757 1.9375 0
1.374999999998552 1.0625 0
1.374999999998753 1.125 0
1.374999999998953 1.1875 0
1.374999999999154 1.25 0
1.374999999999354 1.3125 0
1.374999999999555 1.375 0
1.374999999999756 1.4375 0
1.374999999999956 1.5 0
1.375000000000157 1.5625 0
1.375000000000357 1.625 0
1.375000000000558 1.6875 0
1.375000000000759 1.75 0
1.375000000000959 1.8125 0
1.37500000000116 1.875 0
1.375000000001361 1.9375 0
1.43749999999868 1.0625 0
1.437499999998842 1.125 0
1.437499999999006 1.1875 0
1.437499999999169 1.25 0
1.437499999999332 1.3125 0
1.437499999999496 1.375 0
1.437499999999659 1.4375 0
1.437499999999822 1.5 0
1.437499999999985 1.5625 0
1.437500000000149 1.625 0
1.437500000000312 1.6875 0
1.437500000000475 1.75 0
1.437500000000638 1.8125 0
1.437500000000801 1.875 0
1.437500000000964 1.9375 0
1.499999999998807 1.0625 0
1.499999999998932 1.125 0
1.499999999999059 1.1875 0
1.499999999999185 1.25 0
1.49999999999931 1.3125 0
1.499999999999436 1.375 0
1.499999999999562 1.4375 0
1.499999999999688 1.5 0
1.499999999999813 1.5625 0
1.49999999999994 1.625 0
1.500000000000065 1.6875 0
1.500000000000191 1.75 0
1.500000000000317 1.8125 0
1.500000000000443 1.875 0
1.500000000000568 1.9375 0
1.562499999998935 1.0625 0
1.562499999999023 1.125 0
1.562499999999111 1.1875 0
1.5624999999992 1.25 0
1.562499999999288 1.3125 0
1.562499999999376 1.375 0
1.562499999999464 1.4375 0
1.562499999999553 1.5 0
1.562499999999641 1.5625 0
1.56249999999973 1.625 0
1.562499999999818 1.6875 0
1.562499999999907 1.75 0
1.562499999999995 1.8125 0
1.562500000000083 1.875 0
1.562500000000172 1.9375 0
1.624999999999062 1.0625 0
1.624999999999113 1.125 0
1.624999999999164 1.1875 0
1.624999999999215 1.25 0
1.624999999999266 1.3125 0
1.624999999999317 1.375 0
1.624999999999368 1.4375 0
1.624999999999419 1.5 0
1.62499999999947 1.5625 0
1.624999999999521 1.625 0
1.624999999999571 1.6875 0
1.624999999999623 1.75 0
1.624999999999674 1.8125 0
1.624999999999724 1.875 0
1.624999999999776 1.9375 0
1.687499999999189 1.0625 0
1.687499999999203 1.125 0
1.687499999999216 1.1875 0
1.68749999999923 1.25 0
1.687499999999243 1.3125 0
1.687499999999257 1.375 0
1.687499999999271 1.4375 0
1.687499999999284 1.5 0
1.687499999999298 1.5625 0
1.687499999999311 1.625 0
1.687499999999325 1.6875 0
1.687499999999338 1.75 0
1.687499999999352 1.8125 0
1.687499999999366 1.875 0
1.687499999999379 1.9375 0
1.749999999999319 1.0625 0
1.749999999999298 1.125 0
1.749999999999277 1.1875 0
1.749999999999255 1.25 0
1.749999999999235 1.3125 0
1.749999999999214 1.375 0
1.749999999999192 1.4375 0
1.749999999999172 1.5 0
1.74999999999915 1.5625 0
1.749999999999129 1.625 0
1.749999999999108 1.6875 0
1.749999999999087 1.75 0
1.749999999999065 1.8125 0
1.749999999999045 1.875 0
1.749999999999024 1.9375 0
1.812499999999487 1.0625 0
1.81249999999947 1.125 0
1.812499999999452 1.1875 0
1.812499999999434 1.25 0
1.812499999999416 1.3125 0
1.812499999999398 1.375 0
1.81249999999938 1.4375 0
1.812499999999363 1.5 0
1.812499999999344 1.5625 0
1.812499999999326 1.625 0
1.812499999999309 1.6875 0
1.812499999999291 1.75 0
1.812499999999273 1.8125 0
1.812499999999255 1.875 0
1.812499999999237 1.9375 0
1.874999999999658 1.0625 0
1.874999999999647 1.125 0
1.874999999999635 1.1875 0
1.874999999999623 1.25 0
1.874999999999611 1.3125 0
1.874999999999599 1.375 0
1.874999999999587 1.4375 0
1.874999999999575 1.5 0
1.874999999999563 1.5625 0
1.874999999999551 1.625 0
1.874999999999539 1.6875 0
1.874999999999527 1.75 0
1.874999999999515 1.8125 0
1.874999999999503 1.875 0
1.874999999999492 1.9375 0
1.937499999999829 1.0625 0
1.937499999999823 1.125 0
1.937499999999817 1.1875 0
1.937499999999812 1.25 0
1.937499999999805 1.3125 0
1.937499999999799 1.375 0
1.937499999999793 1.4375 0
1.937499999999788 1.5 0
1.937499999999782 1.5625 0
1.937499999999776 1.625 0
1.93749999999977 1.6875 0
1.937499999999764 1.75 0
1.937499999999758 1.8125 0
1.937499999999752 1.875 0
1.937499999999745 1.9375 0
$EndNodes
$Elements
10 2240 1 2240
1 1 1 32
1 1 9 
2 9 10 
3 10 11 
4 11 12 
5 12 13 
6 13 14 
7 14 15 
8 15 16 
9 16 17 
10 17 18 
11 18 19 
12 19 20 
13 20 21 
14 21 22 
15 22 23 
16 23 24 
17 24 25 
18 25 26 
19 26 27 
20 27 28 
21 28 29 
22 29 30 
23 30 31 
24 31 32 
25 32 33 
26 33 34 
27 34 35 
28 35 36 
29 36 37 
30 37 38 
31 38 39 
32 39 2 
1 2 1 16
33 2 40 
34 40 41 
35 41 42 
36 42 43 
37 43 44 
38 44 45 
39 45 46 
40 46 47 
41 47 48 
42 48 49 
43 49 50 
44 50 51 
45 51 52 
46 52 53 
47 53 54 
48 54 3 
1 3 1 32
49 4 55 
50 55 56 
51 56 57 
52 57 58 
53 58 59 
54 59 60 
55 60 61 
56 61 62 
57 62 63 
58 63 64 
59 64 65 
60 65 66 
61 66 67 
62 67 68 
63 68 69 
64 69 70 
65 70 71 
66 71 72 
67 72 73 
68 73 74 
69 74 75 
70 75 76 
71 76 77 
72 77 78 
73 78 79 
74 79 80 
75 80 81 
76 81 82 
77 82 83 
78 83 84 
79 84 85 
80 85 3 
1 4 1 16
81 4 86 
82 86 87 
83 87 88 
84 88 89 
85 89 90 
86 90 91 
87 91 92 
88 92 93 
89 93 94 
90 94 95 
91 95 96 
92 96 97 
93 97 98 
94 98 99 
95 99 100 
96 100 1 
1 5 1 32
97 5 101 
98 101 102 
99 102 103 
100 103 104 
101 104 105 
102 105 106 
103 106 107 
104 107 108 
105 108 109 
106 109 110 
107 110 111 
108 111 112 
109 112 113 
110 113 114 
111 114 115 
112 115 116 
113 116 117 
114 117 118 
115 118 119 
116 119 120 
117 120 121 
118 121 122 
119 122 123 
120 123 124 
121 124 125 
122 125 126 
123 126 127 
124 127 128 
125 128 129 
126 129 130 
127 130 131 
128 131 6 
1 6 1 16
129 6 132 
130 132 133 
131 133 134 
132 134 135 
133 135 136 
134 136 137 
135 137 138 
136 138 139 
137 139 140 
138 140 141 
139 141 142 
140 142 143 
141 143 144 
142 144 145 
143 145 146 
144 146 7 
1 7 1 32
145 7 147 
146 147 148 
147 148 149 
148 149 150 
149 150 151 
150 151 152 
151 152 153 
152 153 154 
153 154 155 
154 155 156 
155 156 157 
156 157 158 
157 158 159 
158 159 160 
159 160 161 
160 161 162 
161 162 163 
162 163 164 
163 164 165 
164 165 166 
165 166 167 
166 167 168 
167 168 169 
168 169 170 
169 170 171 
170 171 172 
171 172 173 
172 173 174 
173 174 175 
174 175 176 
175 176 177 
176 177 8 
1 8 1 16
177 8 178 
178 178 179 
179 179 180 
180 180 181 
181 181 182 
182 182 183 
183 183 184 
184 184 185 
185 185 186 
186 186 187 
187 187 188 
188 188 189 
189 189 190 
190 190 191 
191 191 192 
192 192 5 
2 1 2 1024
193 1 9 100 
194 100 9 193 
195 100 193 99 
196 99 193 194 
197 99 194 98 
198 98 194 195 
199 98 195 97 
200 97 195 196 
201 97 196 96 
202 96 196 197 
203 96 197 95 
204 95 197 198 
205 95 198 94 
206 94 198 199 
207 94 199 93 
208 93 199 200 
209 93 200 92 
210 92 200 201 
211 92 201 91 
212 91 201 202 
213 91 202 90 
214 90 202 203 
215 90 203 89 
216 89 203 204 
217 89 204 88 
218 88 204 205 
219 88 205 87 
220 87 205 206 
221 87 206 86 
222 86 206 207 
223 86 207 4 
224 4 207 55 
225 9 10 193 
226 193 10 208 
227 193 208 194 
228 194 208 209 
229 194 209 195 
230 195 209 210 
231 195 210 196 
232 196 210 211 
233 196 211 197 
234 197 211 212 
235 197 212 198 
236 198 212 213 
237 198 213 199 
238 199 213 214 
239 199 214 200 
240 200 214 215 
241 200 215 201 
242 201 215 216 
243 201 216 202 
244 202 216 217 
245 202 217 203 
246 203 217 218 
247 203 218 204 
248 204 218 219 
249 204 219 205 
250 205 219 220 
251 205 220 206 
252 206 220 221 
253 206 221 207 
254 207 221 222 
255 207 222 55 
256 55 222 56 
257 10 11 208 
258 208 11 223 
259 208 223 209 
260 209 223 224 
261 209 224 210 
262 210 224 225 
263 210 225 211 
264 211 225 226 
265 211 226 212 
266 212 226 227 
267 212 227 213 
268 213 227 228 
269 213 228 214 
270 214 228 229 
271 214 229 215 
272 215 229 230 
273 215 230 216 
274 216 230 231 
275 216 231 217 
276 217 231 232 
277 217 232 218 
278 218 232 233 
279 218 233 219 
280 219 233 234 
281 219 234 220 
282 220 234 235 
283 220 235 221 
284 221 235 236 
285 221 236 222 
286 222 236 237 
287 222 237 56 
288 56 237 57 
289 11 12 223 
290 223 12 238 
291 223 238 224 
292 224 238 239 
293 224 239 225 
294 225 239 240 
295 225 240 226 
296 226 240 241 
297 226 241 227 
298 227 241 242 
299 227 242 228 
300 228 242 243 
301 228 243 229 
302 229 243 244 
303 229 244 230 
304 230 244 245 
305 230 245 231 
306 231 245 246 
307 231 246 232 
308 232 246 247 
309 232 247 233 
310 233 247 248 
311 233 248 234 
312 234 248 249 
313 234 249 235 
314 235 249 250 
315 235 250 236 
316 236 250 251 
317 236 251 237 
318 237 251 252 
319 237 252 57 
320 57 252 58 
321 12 13 238 
322 238 13 253 
323 238 253 239 
324 239 253 254 
325 239 254 240 
326 240 254 255 
327 240 255 241 
328 241 255 256 
329 241 256 242 
330 242 256 257 
331 242 257 243 
332 243 257 258 
333 243 258 244 
334 244 258 259 
335 244 259 245 
336 245 259 260 
337 245 260 246 
338 246 260 261 
339 246 261 247 
340 247 261 262 
341 247 262 248 
342 248 262 263 
343 248 263 249 
344 249 263 264 
345 249 264 250 
346 250 264 265 
347 250 265 251 
348 251 265 266 
349 251 266 252 
350 252 266 267 
351 252 267 58 
352 58 267 59 
353 13 14 253 
354 253 14 268 
355 253 268 254 
356 254 268 269 
357 254 269 255 
358 255 269 270 
359 255 270 256 
360 256 270 271 
361 256 271 257 
362 257 271 272 
363 257 272 258 
364 258 272 273 
365 258 273 259 
366 259 273 274 
367 259 274 260 
368 260 274 275 
369 260 275 261 
370 261 275 276 
371 261 276 262 
372 262 276 277 
373 262 277 263 
374 263 277 278 
375 263 278 264 
376 264 278 279 
377 264 279 265 
378 265 279 280 
379 265 280 266 
380 266 280 281 
381 266 281 267 
382 267 281 282 
383 267 282 59 
384 59 282 60 
385 14 15 268 
386 268 15 283 
387 268 283 269 
388 269 283 284 
389 269 284 270 
390 270 284 285 
391 270 285 271 
392 271 285 286 
393 271 286 272 
394 272 286 287 
395 272 287 273 
396 273 287 288 
397 273 288 274 
398 274 288 289 
399 274 289 275 
400 275 289 290 
401 275 290 276 
402 276 290 291 
403 276 291 277 
404 277 291 292 
405 277 292 278 
406 278 292 293 
407 278 293 279 
408 279 293 294 
409 279 294 280 
410 280 294 295 
411 280 295 281 
412 281 295 296 
413 281 296 282 
414 282 296 297 
415 282 297 60 
416 60 297 61 
417 15 16 283 
418 283 16 298 
419 283 298 284 
420 284 298 299 
421 284 299 285 
422 285 299 300 
423 285 300 286 
424 286 300 301 
425 286 301 287 
426 287 301 302 
427 287 302 288 
428 288 302 303 
429 288 303 289 
430 289 303 304 
431 289 304 290 
432 290 304 305 
433 290 305 291 
434 291 305 306 
435 291 306 292 
436 292 306 307 
437 292 307 293 
438 293 307 308 
439 293 308 294 
440 294 308 309 
441 294 309 295 
442 295 309 310 
443 295 310 296 
444 296 310 311 
445 296 311 297 
446 297 311 312 
447 297 312 61 
448 61 312 62 
449 16 17 298 
450 298 17 313 
451 298 313 299 
452 299 313 314 
453 299 314 300 
454 300 314 315 
455 300 315 301 
456 301 315 316 
457 301 316 302 
458 302 316 317 
459 302 317 303 
460 303 317 318 
461 303 318 304 
462 304 318 319 
463 304 319 305 
464 305 319 320 
465 305 320 306 
466 306 320 321 
467 306 321 307 
468 307 321 322 
469 307 322 308 
470 308 322 323 
471 308 323 309 
472 309 323 324 
473 309 324 310 
474 310 324 325 
475 310 325 311 
476 311 325 326 
477 311 326 312 
478 312 326 327 
479 312 327 62 
480 62 327 63 
481 17 18 313 
482 313 18 328 
483 313 328 314 
484 314 328 329 
485 314 329 315 
486 315 329 330 
487 315 330 316 
488 316 330 331 
489 316 331 317 
490 317 331 332 
491 317 332 318 
492 318 332 333 
493 318 333 319 
494 319 333 334 
495 319 334 320 
496 320 334 335 
497 320 335 321 
498 321 335 336 
499 321 336 322 
500 322 336 337 
501 322 337 323 
502 323 337 338 
503 323 338 324 
504 324 338 339 
505 324 339 325 
506 325 339 340 
507 325 340 326 
508 326 340 341 
509 326 341 327 
510 327 341 342 
511 327 342 63 
512 63 342 64 
513 18 19 328 
514 328 19 343 
515 328 343 329 
516 329 343 344 
517 329 344 330 
518 330 344 345 
519 330 345 331 
520 331 345 346 
521 331 346 332 
522 332 346 347 
523 332 347 333 
524 333 347 348 
525 333 348 334 
526 334 348 349 
527 334 349 335 
528 335 349 350 
529 335 350 336 
530 336 350 351 
531 336 351 337 
532 337 351 352 
533 337 352 338 
534 338 352 353 
535 338 353 339 
536 339 353 354 
537 339 354 340 
538 340 354 355 
539 340 355 341 
540 341 355 356 
541 341 356 342 
542 342 356 357 
543 342 357 64 
544 64 357 65 
545 19 20 343 
546 343 20 358 
547 343 358 344 
548 344 358 359 
549 344 359 345 
550 345 359 360 
551 345 360 346 
552 346 360 361 
553 346 361 347 
554 347 361 362 
555 347 362 348 
556 348 362 363 
557 348 363 349 
558 349 363 364 
559 349 364 350 
560 350 364 365 
561 350 365 351 
562 351 365 366 
563 351 366 352 
564 352 366 367 
565 352 367 353 
566 353 367 368 
567 353 368 354 
568 354 368 369 
569 354 369 355 
570 355 369 370 
571 355 370 356 
572 356 370 371 
573 356 371 357 
574 357 371 372 
575 357 372 65 
576 65 372 66 
577 20 21 358 
578 358 21 373 
579 358 373 359 
580 359 373 374 
581 359 374 360 
582 360 374 375 
583 360 375 361 
584 361 375 376 
585 361 376 362 
586 362 376 377 
587 362 377 363 
588 363 377 378 
589 363 378 364 
590 364 378 379 
591 364 379 365 
592 365 379 380 
593 365 380 366 
594 366 380 381 
595 366 381 367 
596 367 381 382 
597 367 382 368 
598 368 382 383 
599 368 383 369 
600 369 383 384 
601 369 384 370 
602 370 384 385 
603 370 385 371 
604 371 385 386 
605 371 386 372 
606 372 386 387 
607 372 387 66 
608 66 387 67 
609 21 22 373 
610 373 22 388 
611 373 388 374 
612 374 388 389 
613 374 389 375 
614 375 389 390 
615 375 390 376 
616 376 390 391 
617 376 391 377 
618 377 391 392 
619 377 392 378 
620 378 392 393 
621 378 393 379 
622 379 393 394 
623 379 394 380 
624 380 394 395 
625 380 395 381 
626 381 395 396 
627 381 396 382 
628 382 396 397 
629 382 397 383 
630 383 397 398 
631 383 398 384 
632 384 398 399 
633 384 399 385 
634 385 399 400 
635 385 400 386 
636 386 400 401 
637 386 401 387 
638 387 401 402 
639 387 402 67 
640 67 402 68 
641 22 23 388 
642 388 23 403 
643 388 403 389 
644 389 403 404 
645 389 404 390 
646 390 404 405 
647 390 405 391 
648 391 405 406 
649 391 406 392 
650 392 406 407 
651 392 407 393 
652 393 407 408 
653 393 408 394 
654 394 408 409 
655 394 409 395 
656 395 409 410 
657 395 410 396 
658 396 410 411 
659 396 411 397 
660 397 411 412 
661 397 412 398 
662 398 412 413 
663 398 413 399 
664 399 413 414 
665 399 414 400 
666 400 414 415 
667 400 415 401 
668 401 415 416 
669 401 416 402 
670 402 416 417 
671 402 417 68 
672 68 417 69 
673 23 24 403 
674 403 24 418 
675 403 418 404 
676 404 418 419 
677 404 419 405 
678 405 419 420 
679 405 420 406 
680 406 420 421 
681 406 421 407 
682 407 421 422 
683 407 422 408 
684 408 422 423 
685 408 423 409 
686 409 423 424 
687 409 424 410 
688 410 424 425 
689 410 425 411 
690 411 425 426 
691 411 426 412 
692 412 426 427 
693 412 427 413 
694 413 427 428 
695 413 428 414 
696 414 428 429 
697 414 429 415 
698 415 429 430 
699 415 430 416 
700 416 430 431 
701 416 431 417 
702 417 431 432 
703 417 432 69 
704 69 432 70 
705 24 25 418 
706 418 25 433 
707 418 433 419 
708 419 433 434 
709 419 434 420 
710 420 434 435 
711 420 435 421 
712 421 435 436 
713 421 436 422 
714 422 436 437 
715 422 437 423 
716 423 437 438 
717 423 438 424 
718 424 438 439 
719 424 439 425 
720 425 439 440 
721 425 440 426 
722 426 440 441 
723 426 441 427 
724 427 441 442 
725 427 442 428 
726 428 442 443 
727 428 443 429 
728 429 443 444 
729 429 444 430 
730 430 444 445 
731 430 445 431 
732 431 445 446 
733 431 446 432 
734 432 446 447 
735 432 447 70 
736 70 447 71 
737 25 26 433 
738 433 26 448 
739 433 448 434 
740 434 448 449 
741 434 449 435 
742 435 449 450 
743 435 450 436 
744 436 450 451 
745 436 451 437 
746 437 451 452 
747 437 452 438 
748 438 452 453 
749 438 453 439 
750 439 453 454 
751 439 454 440 
752 440 454 455 
753 440 455 441 
754 441 455 456 
755 441 456 442 
756 442 456 457 
757 442 457 443 
758 443 457 458 
759 443 458 444 
760 444 458 459 
761 444 459 445 
762 445 459 460 
763 445 460 446 
764 446 460 461 
765 446 461 447 
766 447 461 462 
767 447 462 71 
768 71 462 72 
769 26 27 448 
770 448 27 463 
771 448 463 449 
772 449 463 464 
773 449 464 450 
774 450 464 465 
775 450 465 451 
776 451 465 466 
777 451 466 452 
778 452 466 467 
779 452 467 453 
780 453 467 468 
781 453 468 454 
782 454 468 469 
783 454 469 455 
784 455 469 470 
785 455 470 456 
786 456 470 471 
787 456 471 457 
788 457 471 472 
789 457 472 458 
790 458 472 473 
791 458 473 459 
792 459 473 474 
793 459 474 460 
794 460 474 475 
795 460 475 461 
796 461 475 476 
797 461 476 462 
798 462 476 477 
799 462 477 72 
800 72 477 73 
801 27 28 463 
802 463 28 478 
803 463 478 464 
804 464 478 479 
805 464 479 465 
806 465 479 480 
807 465 480 466 
808 466 480 481 
809 466 481 467 
810 467 481 482 
811 467 482 468 
812 468 482 483 
813 468 483 469 
814 469 483 484 
815 469 484 470 
816 470 484 485 
817 470 485 471 
818 471 485 486 
819 471 486 472 
820 472 486 487 
821 472 487 473 
822 473 487 488 
823 473 488 474 
824 474 488 489 
825 474 489 475 
826 475 489 490 
827 475 490 476 
828 476 490 491 
829 476 491 477 
830 477 491 492 
831 477 492 73 
832 73 492 74 
833 28 29 478 
834 478 29 493 
835 478 493 479 
836 479 493 494 
837 479 494 480 
838 480 494 495 
839 480 495 481 
840 481 495 496 
841 481 496 482 
842 482 496 497 
843 482 497 483 
844 483 497 498 
845 483 498 484 
846 484 498 499 
847 484 499 485 
848 485 499 500 
849 485 500 486 
850 486 500 501 
851 486 501 487 
852 487 501 502 
853 487 502 488 
854 488 502 503 
855 488 503 489 
856 489 503 504 
857 489 504 490 
858 490 504 505 
859 490 505 491 
860 491 505 506 
861 491 506 492 
862 492 506 507 
863 492 507 74 
864 74 507 75 
865 29 30 493 
866 493 30 508 
867 493 508 494 
868 494 508 509 
869 494 509 495 
870 495 509 510 
871 495 510 496 
872 496 510 511 
873 496 511 497 
874 497 511 512 
875 497 512 498 
876 498 512 513 
877 498 513 499 
878 499 513 514 
879 499 514 500 
880 500 514 515 
881 500 515 501 
882 501 515 516 
883 501 516 502 
884 502 516 517 
885 502 517 503 
886 503 517 518 
887 503 518 504 
888 504 518 519 
889 504 519 505 
890 505 519 520 
891 505 520 506 
892 506 520 521 
893 506 521 507 
894 507 521 522 
895 507 522 75 
896 75 522 76 
897 30 31 508 
898 508 31 523 
899 508 523 509 
900 509 523 524 
901 509 524 510 
902 510 524 525 
903 510 525 511 
904 511 525 526 
905 511 526 512 
906 512 526 527 
907 512 527 513 
908 513 527 528 
909 513 528 514 
910 514 528 529 
911 514 529 515 
912 515 529 530 
913 515 530 516 
914 516 530 531 
915 516 531 517 
916 517 531 532 
917 517 532 518 
918 518 532 533 
919 518 533 519 
920 519 533 534 
921 519 534 520 
922 520 534 535 
923 520 535 521 
924 521 535 536 
925 521 536 522 
926 522 536 537 
927 522 537 76 
928 76 537 77 
929 31 32 523 
930 523 32 538 
931 523 538 524 
932 524 538 539 
933 524 539 525 
934 525 539 540 
935 525 540 526 
936 526 540 541 
937 526 541 527 
938 527 541 542 
939 527 542 528 
940 528 542 543 
941 528 543 529 
942 529 543 544 
943 529 544 530 
944 530 544 545 
945 530 545 531 
946 531 545 546 
947 531 546 532 
948 532 546 547 
949 532 547 533 
950 533 547 548 
951 533 548 534 
952 534 548 549 
953 534 549 535 
954 535 549 550 
955 535 550 536 
956 536 550 551 
957 536 551 537 
958 537 551 552 
959 537 552 77 
960 77 552 78 
961 32 33 538 
962 538 33 553 
963 538 553 539 
964 539 553 554 
965 539 554 540 
966 540 554 555 
967 540 555 541 
968 541 555 556 
969 541 556 542 
970 542 556 557 
971 542 557 543 
972 543 557 558 
973 543 558 544 
974 544 558 559 
975 544 559 545 
976 545 559 560 
977 545 560 546 
978 546 560 561 
979 546 561 547 
980 547 561 562 
981 547 562 548 
982 548 562 563 
983 548 563 549 
984 549 563 564 
985 549 564 550 
986 550 564 565 
987 550 565 551 
988 551 565 566 
989 551 566 552 
990 552 566 567 
991 552 567 78 
992 78 567 79 
993 33 34 553 
994 553 34 568 
995 553 568 554 
996 554 568 569 
997 554 569 555 
998 555 569 570 
999 555 570 556 
1000 556 570 571 
1001 556 571 557 
1002 557 571 572 
1003 557 572 558 
1004 558 572 573 
1005 558 573 559 
1006 559 573 574 
1007 559 574 560 
1008 560 574 575 
1009 560 575 561 
1010 561 575 576 
1011 561 576 562 
1012 562 576 577 
1013 562 577 563 
1014 563 577 578 
1015 563 578 564 
1016 564 578 579 
1017 564 579 565 
1018 565 579 580 
1019 565 580 566 
1020 566 580 581 
1021 566 581 567 
1022 567 581 582 
1023 567 582 79 
1024 79 582 80 
1025 34 35 568 
1026 568 35 583 
1027 568 583 569 
1028 569 583 584 
1029 569 584 570 
1030 570 584 585 
1031 570 585 571 
1032 571 585 586 
1033 571 586 572 
1034 572 586 587 
1035 572 587 573 
1036 573 587 588 
1037 573 588 574 
1038 574 588 589 
1039 574 589 575 
1040 575 589 590 
1041 575 590 576 
1042 576 590 591 
1043 576 591 577 
1044 577 591 592 
1045 577 592 578 
1046 578 592 593 
1047 578 593 579 
1048 579 593 594 
1049 579 594 580 
1050 580 594 595 
1051 580 595 581 
1052 581 595 596 
1053 581 596 582 
1054 582 596 597 
1055 582 597 80 
1056 80 597 81 
1057 35 36 583 
1058 583 36 598 
1059 583 598 584 
1060 584 598 599 
1061 584 599 585 
1062 585 599 600 
1063 585 600 586 
1064 586 600 601 
1065 586 601 587 
1066 587 601 602 
1067 587 602 588 
1068 588 602 603 
1069 588 603 589 
1070 589 603 604 
1071 589 604 590 
1072 590 604 605 
1073 590 605 591 
1074 591 605 606 
1075 591 606 592 
1076 592 606 607 
1077 592 607 593 
1078 593 607 608 
1079 593 608 594 
1080 594 608 609 
1081 594 609 595 
1082 595 609 610 
1083 595 610 596 
1084 596 610 611 
1085 596 611 597 
1086 597 611 612 
1087 597 612 81 
1088 81 612 82 
1089 36 37 598 
1090 598 37 613 
1091 598 613 599 
1092 599 613 614 
1093 599 614 600 
1094 600 614 615 
1095 600 615 601 
1096 601 615 616 
1097 601 616 602 
1098 602 616 617 
1099 602 617 603 
1100 603 617 618 
1101 603 618 604 
1102 604 618 619 
1103 604 619 605 
1104 605 619 620 
1105 605 620 606 
1106 606 620 621 
1107 606 621 607 
1108 607 621 622 
1109 607 622 608 
1110 608 622 623 
1111 608 623 609 
1112 609 623 624 
1113 609 624 610 
1114 610 624 625 
1115 610 625 611 
1116 611 625 626 
1117 611 626 612 
1118 612 626 627 
1119 612 627 82 
1120 82 627 83 
1121 37 38 613 
1122 613 38 628 
1123 613 628 614 
1124 614 628 629 
1125 614 629 615 
1126 615 629 630 
1127 615 630 616 
1128 616 630 631 
1129 616 631 617 
1130 617 631 632 
1131 617 632 618 
1132 618 632 633 
1133 618 633 619 
1134 619 633 634 
1135 619 634 620 
1136 620 634 635 
1137 620 635 621 
1138 621 635 636 
1139 621 636 622 
1140 622 636 637 
1141 622 637 623 
1142 623 637 638 
1143 623 638 624 
1144 624 638 639 
1145 624 639 625 
1146 625 639 640 
1147 625 640 626 
1148 626 640 641 
1149 626 641 627 
1150 627 641 642 
1151 627 642 83 
1152 83 642 84 
1153 38 39 628 
1154 628 39 643 
1155 628 643 629 
1156 629 643 644 
1157 629 644 630 
1158 630 644 645 
1159 630 645 631 
1160 631 645 646 
1161 631 646 632 
1162 632 646 647 
1163 632 647 633 
1164 633 647 648 
1165 633 648 634 
1166 634 648 649 
1167 634 649 635 
1168 635 649 650 
1169 635 650 636 
1170 636 650 651 
1171 636 651 637 
1172 637 651 652 
1173 637 652 638 
1174 638 652 653 
1175 638 653 639 
1176 639 653 654 
1177 639 654 640 
1178 640 654 655 
1179 640 655 641 
1180 641 655 656 
1181 641 656 642 
1182 642 656 657 
1183 642 657 84 
1184 84 657 85 
1185 39 2 643 
1186 643 2 40 
1187 643 40 644 
1188 644 40 41 
1189 644 41 645 
1190 645 41 42 
1191 645 42 646 
1192 646 42 43 
1193 646 43 647 
1194 647 43 44 
1195 647 44 648 
1196 648 44 45 
1197 648 45 649 
1198 649 45 46 
1199 649 46 650 
1200 650 46 47 
1201 650 47 651 
1202 651 47 48 
1203 651 48 652 
1204 652 48 49 
1205 652 49 653 
1206 653 49 50 
1207 653 50 654 
1208 654 50 51 
1209 654 51 655 
1210 655 51 52 
1211 655 52 656 
1212 656 52 53 
1213 656 53 657 
1214 657 53 54 
1215 657 54 85 
1216 85 54 3 
2 2 2 1024
1217 5 101 192 
1218 192 101 658 
1219 192 658 191 
1220 191 658 659 
1221 191 659 190 
1222 190 659 660 
1223 190 660 189 
1224 189 660 661 
1225 189 661 188 
1226 188 661 662 
1227 188 662 187 
1228 187 662 663 
1229 187 663 186 
1230 186 663 664 
1231 186 664 185 
1232 185 664 665 
1233 185 665 184 
1234 184 665 666 
1235 184 666 183 
1236 183 666 667 
1237 183 667 182 
1238 182 667 668 
1239 182 668 181 
1240 181 668 669 
1241 181 669 180 
1242 180 669 670 
1243 180 670 179 
1244 179 670 671 
1245 179 671 178 
1246 178 671 672 
1247 178 672 8 
1248 8 672 177 
1249 101 102 658 
1250 658 102 673 
1251 658 673 659 
1252 659 673 674 
1253 659 674 660 
1254 660 674 675 
1255 660 675 661 
1256 661 675 676 
1257 661 676 662 
1258 662 676 677 
1259 662 677 663 
1260 663 677 678 
1261 663 678 664 
1262 664 678 679 
1263 664 679 665 
1264 665 679 680 
1265 665 680 666 
1266 666 680 681 
1267 666 681 667 
1268 667 681 682 
1269 667 682 668 
1270 668 682 683 
1271 668 683 669 
1272 669 683 684 
1273 669 684 670 
1274 670 684 685 
1275 670 685 671 
1276 671 685 686 
1277 671 686 672 
1278 672 686 687 
1279 672 687 177 
1280 177 687 176 
1281 102 103 673 
1282 673 103 688 
1283 673 688 674 
1284 674 688 689 
1285 674 689 675 
1286 675 689 690 
1287 675 690 676 
1288 676 690 691 
1289 676 691 677 
1290 677 691 692 
1291 677 692 678 
1292 678 692 693 
1293 678 693 679 
1294 679 693 694 
1295 679 694 680 
1296 680 694 695 
1297 680 695 681 
1298 681 695 696 
1299 681 696 682 
1300 682 696 697 
1301 682 697 683 
1302 683 697 698 
1303 683 698 684 
1304 684 698 699 
1305 684 699 685 
1306 685 699 700 
1307 685 700 686 
1308 686 700 701 
1309 686 701 687 
1310 687 701 702 
1311 687 702 176 
1312 176 702 175 
1313 103 104 688 
1314 688 104 703 
1315 688 703 689 
1316 689 703 704 
1317 689 704 690 
1318 690 704 705 
1319 690 705 691 
1320 691 705 706 
1321 691 706 692 
1322 692 706 707 
1323 692 707 693 
1324 693 707 708 
1325 693 708 694 
1326 694 708 709 
1327 694 709 695 
1328 695 709 710 
1329 695 710 696 
1330 696 710 711 
1331 696 711 697 
1332 697 711 712 
1333 697 712 698 
1334 698 712 713 
1335 698 713 699 
1336 699 713 714 
1337 699 714 700 
1338 700 714 715 
1339 700 715 701 
1340 701 715 716 
1341 701 716 702 
1342 702 716 717 
1343 702 717 175 
1344 175 717 174 
1345 104 105 703 
1346 703 105 718 
1347 703 718 704 
1348 704 718 719 
1349 704 719 705 
1350 705 719 720 
1351 705 720 706 
1352 706 720 721 
1353 706 721 707 
1354 707 721 722 
1355 707 722 708 
1356 708 722 723 
1357 708 723 709 
1358 709 723 724 
1359 709 724 710 
1360 710 724 725 
1361 710 725 711 
1362 711 725 726 
1363 711 726 712 
1364 712 726 727 
1365 712 727 713 
1366 713 727 728 
1367 713 728 714 
1368 714 728 729 
1369 714 729 715 
1370 715 729 730 
1371 715 730 716 
1372 716 730 731 
1373 716 731 717 
1374 717 731 732 
1375 717 732 174 
1376 174 732 173 
1377 105 106 718 
1378 718 106 733 
1379 718 733 719 
1380 719 733 734 
1381 719 734 720 
1382 720 734 735 
1383 720 735 721 
1384 721 735 736 
1385 721 736 722 
1386 722 736 737 
1387 722 737 723 
1388 723 737 738 
1389 723 738 724 
1390 724 738 739 
1391 724 739 725 
1392 725 739 740 
1393 725 740 726 
1394 726 740 741 
1395 726 741 727 
1396 727 741 742 
1397 727 742 728 
1398 728 742 743 
1399 728 743 729 
1400 729 743 744 
1401 729 744 730 
1402 730 744 745 
1403 730 745 731 
1404 731 745 746 
1405 731 746 732 
1406 732 746 747 
1407 732 747 173 
1408 173 747 172 
1409 106 107 733 
1410 733 107 748 
1411 733 748 734 
1412 734 748 749 
1413 734 749 735 
1414 735 749 750 
1415 735 750 736 
1416 736 750 751 
1417 736 751 737 
1418 737 751 752 
1419 737 752 738 
1420 738 752 753 
1421 738 753 739 
1422 739 753 754 
1423 739 754 740 
1424 740 754 755 
1425 740 755 741 
1426 741 755 756 
1427 741 756 742 
1428 742 756 757 
1429 742 757 743 
1430 743 757 758 
1431 743 758 744 
1432 744 758 759 
1433 744 759 745 
1434 745 759 760 
1435 745 760 746 
1436 746 760 761 
1437 746 761 747 
1438 747 761 762 
1439 747 762 172 
1440 172 762 171 
1441 107 108 748 
1442 748 108 763 
1443 748 763 749 
1444 749 763 764 
1445 749 764 750 
1446 750 764 765 
1447 750 765 751 
1448 751 765 766 
1449 751 766 752 
1450 752 766 767 
1451 752 767 753 
1452 753 767 768 
1453 753 768 754 
1454 754 768 769 
1455 754 769 755 
1456 755 769 770 
1457 755 770 756 
1458 756 770 771 
1459 756 771 757 
1460 757 771 772 
1461 757 772 758 
1462 758 772 773 
1463 758 773 759 
1464 759 773 774 
1465 759 774 760 
1466 760 774 775 
1467 760 775 761 
1468 761 775 776 
1469 761 776 762 
1470 762 776 777 
1471 762 777 171 
1472 171 777 170 
1473 108 109 763 
1474 763 109 778 
1475 763 778 764 
1476 764 778 779 
1477 764 779 765 
1478 765 779 780 
1479 765 780 766 
1480 766 780 781 
1481 766 781 767 
1482 767 781 782 
1483 767 782 768 
1484 768 782 783 
1485 768 783 769 
1486 769 783 784 
1487 769 784 770 
1488 770 784 785 
1489 770 785 771 
1490 771 785 786 
1491 771 786 772 
1492 772 786 787 
1493 772 787 773 
1494 773 787 788 
1495 773 788 774 
1496 774 788 789 
1497 774 789 775 
1498 775 789 790 
1499 775 790 776 
1500 776 790 791 
1501 776 791 777 
1502 777 791 792 
1503 777 792 170 
1504 170 792 169 
1505 109 110 778 
1506 778 110 793 
1507 778 793 779 
1508 779 793 794 
1509 779 794 780 
1510 780 794 795 
1511 780 795 781 
1512 781 795 796 
1513 781 796 782 
1514 782 796 797 
1515 782 797 783 
1516 783 797 798 
1517 783 798 784 
1518 784 798 799 
1519 784 799 785 
1520 785 799 800 
1521 785 800 786 
1522 786 800 801 
1523 786 801 787 
1524 787 801 802 
1525 787 802 788 
1526 788 802 803 
1527 788 803 789 
1528 789 803 804 
1529 789 804 790 
1530 790 804 805 
1531 790 805 791 
1532 791 805 806 
1533 791 806 792 
1534 792 806 807 
1535 792 807 169 
1536 169 807 168 
1537 110 111 793 
1538 793 111 808 
1539 793 808 794 
1540 794 808 809 
1541 794 809 795 
1542 795 809 810 
1543 795 810 796 
1544 796 810 811 
1545 796 811 797 
1546 797 811 812 
1547 797 812 798 
1548 798 812 813 
1549 798 813 799 
1550 799 813 814 
1551 799 814 800 
1552 800 814 815 
1553 800 815 801 
1554 801 815 816 
1555 801 816 802 
1556 802 816 817 
1557 802 817 803 
1558 803 817 818 
1559 803 818 804 
1560 804 818 819 
1561 804 819 805 
1562 805 819 820 
1563 805 820 806 
1564 806 820 821 
1565 806 821 807 
1566 807 821 822 
1567 807 822 168 
1568 168 822 167 
1569 111 112 808 
1570 808 112 823 
1571 808 823 809 
1572 809 823 824 
1573 809 824 810 
1574 810 824 825 
1575 810 825 811 
1576 811 825 826 
1577 811 826 812 
1578 812 826 827 
1579 812 827 813 
1580 813 827 828 
1581 813 828 814 
1582 814 828 829 
1583 814 829 815 
1584 815 829 830 
1585 815 830 816 
1586 816 830 831 
1587 816 831 817 
1588 817 831 832 
1589 817 832 818 
1590 818 832 833 
1591 818 833 819 
1592 819 833 834 
1593 819 834 820 
1594 820 834 835 
1595 820 835 821 
1596 821 835 836 
1597 821 836 822 
1598 822 836 837 
1599 822 837 167 
1600 167 837 166 
1601 112 113 823 
1602 823 113 838 
1603 823 838 824 
1604 824 838 839 
1605 824 839 825 
1606 825 839 840 
1607 825 840 826 
1608 826 840 841 
1609 826 841 827 
1610 827 841 842 
1611 827 842 828 
1612 828 842 843 
1613 828 843 829 
1614 829 843 844 
1615 829 844 830 
1616 830 844 845 
1617 830 845 831 
1618 831 845 846 
1619 831 846 832 
1620 832 846 847 
1621 832 847 833 
1622 833 847 848 
1623 833 848 834 
1624 834 848 849 
1625 834 849 835 
1626 835 849 850 
1627 835 850 836 
1628 836 850 851 
1629 836 851 837 
1630 837 851 852 
1631 837 852 166 
1632 166 852 165 
1633 113 114 838 
1634 838 114 853 
1635 838 853 839 
1636 839 853 854 
1637 839 854 840 
1638 840 854 855 
1639 840 855 841 
1640 841 855 856 
1641 841 856 842 
1642 842 856 857 
1643 842 857 843 
1644 843 857 858 
1645 843 858 844 
1646 844 858 859 
1647 844 859 845 
1648 845 859 860 
1649 845 860 846 
1650 846 860 861 
1651 846 861 847 
1652 847 861 862 
1653 847 862 848 
1654 848 862 863 
1655 848 863 849 
1656 849 863 864 
1657 849 864 850 
1658 850 864 865 
1659 850 865 851 
1660 851 865 866 
1661 851 866 852 
1662 852 866 867 
1663 852 867 165 
1664 165 867 164 
1665 114 115 853 
1666 853 115 868 
1667 853 868 854 
1668 854 868 869 
1669 854 869 855 
1670 855 869 870 
1671 855 870 856 
1672 856 870 871 
1673 856 871 857 
1674 857 871 872 
1675 857 872 858 
1676 858 872 873 
1677 858 873 859 
1678 859 873 874 
1679 859 874 860 
1680 860 874 875 
1681 860 875 861 
1682 861 875 876 
1683 861 876 862 
1684 862 876 877 
1685 862 877 863 
1686 863 877 878 
1687 863 878 864 
1688 864 878 879 
1689 864 879 865 
1690 865 879 880 
1691 865 880 866 
1692 866 880 881 
1693 866 881 867 
1694 867 881 882 
1695 867 882 164 
1696 164 882 163 
1697 115 116 868 
1698 868 116 883 
1699 868 883 869 
1700 869 883 884 
1701 869 884 870 
1702 870 884 885 
1703 870 885 871 
1704 871 885 886 
1705 871 886 872 
1706 872 886 887 
1707 872 887 873 
1708 873 887 888 
1709 873 888 874 
1710 874 888 889 
1711 874 889 875 
1712 875 889 890 
1713 875 890 876 
1714 876 890 891 
1715 876 891 877 
1716 877 891 892 
1717 877 892 878 
1718 878 892 893 
1719 878 893 879 
1720 879 893 894 
1721 879 894 880 
1722 880 894 895 
1723 880 895 881 
1724 881 895 896 
1725 881 896 882 
1726 882 896 897 
1727 882 897 163 
1728 163 897 162 
1729 116 117 883 
1730 883 117 898 
1731 883 898 884 
1732 884 898 899 
1733 884 899 885 
1734 885 899 900 
1735 885 900 886 
1736 886 900 901 
1737 886 901 887 
1738 887 901 902 
1739 887 902 888 
1740 888 902 903 
1741 888 903 889 
1742 889 903 904 
1743 889 904 890 
1744 890 904 905 
1745 890 905 891 
1746 891 905 906 
1747 891 906 892 
1748 892 906 907 
1749 892 907 893 
1750 893 907 908 
1751 893 908 894 
1752 894 908 909 
1753 894 909 895 
1754 895 909 910 
1755 895 910 896 
1756 896 910 911 
1757 896 911 897 
1758 897 911 912 
1759 897 912 162 
1760 162 912 161 
1761 117 118 898 
1762 898 118 913 
1763 898 913 899 
1764 899 913 914 
1765 899 914 900 
1766 900 914 915 
1767 900 915 901 
1768 901 915 916 
1769 901 916 902 
1770 902 916 917 
1771 902 917 903 
1772 903 917 918 
1773 903 918 904 
1774 904 918 919 
1775 904 919 905 
1776 905 919 920 
1777 905 920 906 
1778 906 920 921 
1779 906 921 907 
1780 907 921 922 
1781 907 922 908 
1782 908 922 923 
1783 908 923 909 
1784 909 923 924 
1785 909 924 910 
1786 910 924 925 
1787 910 925 911 
1788 911 925 926 
1789 911 926 912 
1790 912 926 927 
1791 912 927 161 
1792 161 927 160 
1793 118 119 913 
1794 913 119 928 
1795 913 928 914 
1796 914 928 929 
1797 914 929 915 
1798 915 929 930 
1799 915 930 916 
1800 916 930 931 
1801 916 931 917 
1802 917 931 932 
1803 917 932 918 
1804 918 932 933 
1805 918 933 919 
1806 919 933 934 
1807 919 934 920 
1808 920 934 935 
1809 920 935 921 
1810 921 935 936 
1811 921 936 922 
1812 922 936 937 
1813 922 937 923 
1814 923 937 938 
1815 923 938 924 
1816 924 938 939 
1817 924 939 925 
1818 925 939 940 
1819 925 940 926 
1820 926 940 941 
1821 926 941 927 
1822 927 941 942 
1823 927 942 160 
1824 160 942 159 
1825 119 120 928 
1826 928 120 943 
1827 928 943 929 
1828 929 943 944 
1829 929 944 930 
1830 930 944 945 
1831 930 945 931 
1832 931 945 946 
1833 931 946 932 
1834 932 946 947 
1835 932 947 933 
1836 933 947 948 
1837 933 948 934 
1838 934 948 949 
1839 934 949 935 
1840 935 949 950 
1841 935 950 936 
1842 936 950 951 
1843 936 951 937 
1844 937 951 952 
1845 937 952 938 
1846 938 952 953 
1847 938 953 939 
1848 939 953 954 
1849 939 954 940 
1850 940 954 955 
1851 940 955 941 
1852 941 955 956 
1853 941 956 942 
1854 942 956 957 
1855 942 957 159 
1856 159 957 158 
1857 120 121 943 
1858 943 121 958 
1859 943 958 944 
1860 944 958 959 
1861 944 959 945 
1862 945 959 960 
1863 945 960 946 
1864 946 960 961 
1865 946 961 947 
1866 947 961 962 
1867 947 962 948 
1868 948 962 963 
1869 948 963 949 
1870 949 963 964 
1871 949 964 950 
1872 950 964 965 
1873 950 965 951 
1874 951 965 966 
1875 951 966 952 
1876 952 966 967 
1877 952 967 953 
1878 953 967 968 
1879 953 968 954 
1880 954 968 969 
1881 954 969 955 
1882 955 969 970 
1883 955 970 956 
1884 956 970 971 
1885 956 971 957 
1886 957 971 972 
1887 957 972 158 
1888 158 972 157 
1889 121 122 958 
1890 958 122 973 
1891 958 973 959 
1892 959 973 974 
1893 959 974 960 
1894 960 974 975 
1895 960 975 961 
1896 961 975 976 
1897 961 976 962 
1898 962 976 977 
1899 962 977 963 
1900 963 977 978 
1901 963 978 964 
1902 964 978 979 
1903 964 979 965 
1904 965 979 980 
1905 965 980 966 
1906 966 980 981 
1907 966 981 967 
1908 967 981 982 
1909 967 982 968 
1910 968 982 983 
1911 968 983 969 
1912 969 983 984 
1913 969 984 970 
1914 970 984 985 
1915 970 985 971 
1916 971 985 986 
1917 971 986 972 
1918 972 986 987 
1919 972 987 157 
1920 157 987 156 
1921 122 123 973 
1922 973 123 988 
1923 973 988 974 
1924 974 988 989 
1925 974 989 975 
1926 975 989 990 
1927 975 990 976 
1928 976 990 991 
1929 976 991 977 
1930 977 991 992 
1931 977 992 978 
1932 978 992 993 
1933 978 993 979 
1934 979 993 994 
1935 979 994 980 
1936 980 994 995 
1937 980 995 981 
1938 981 995 996 
1939 981 996 982 
1940 982 996 997 
1941 982 997 983 
1942 983 997 998 
1943 983 998 984 
1944 984 998 999 
1945 984 999 985 
1946 985 999 1000 
1947 985 1000 986 
1948 986 1000 1001 
1949 986 1001 987 
1950 987 1001 1002 
1951 987 1002 156 
1952 156 1002 155 
1953 123 124 988 
1954 988 124 1003 
1955 988 1003 989 
1956 989 1003 1004 
1957 989 1004 990 
1958 990 1004 1005 
1959 990 1005 991 
1960 991 1005 1006 
1961 991 1006 992 
1962 992 1006 1007 
1963 992 1007 993 
1964 993 1007 1008 
1965 993 1008 994 
1966 994 1008 1009 
1967 994 1009 995 
1968 995 1009 1010 
1969 995 1010 996 
1970 996 1010 1011 
1971 996 1011 997 
1972 997 1011 1012 
1973 997 1012 998 
1974 998 1012 1013 
1975 998 1013 999 
1976 999 1013 1014 
1977 999 1014 1000 
1978 1000 1014 1015 
1979 1000 1015 1001 
1980 1001 1015 1016 
1981 1001 1016 1002 
1982 1002 1016 1017 
1983 1002 1017 155 
1984 155 1017 154 
1985 124 125 1003 
1986 1003 125 1018 
1987 1003 1018 1004 
1988 1004 1018 1019 
1989 1004 1019 1005 
1990 1005 1019 1020 
1991 1005 1020 1006 
1992 1006 1020 1021 
1993 1006 1021 1007 
1994 1007 1021 1022 
1995 1007 1022 1008 
1996 1008 1022 1023 
1997 1008 1023 1009 
1998 1009 1023 1024 
1999 1009 1024 1010 
2000 1010 1024 1025 
2001 1010 1025 1011 
2002 1011 1025 1026 
2003 1011 1026 1012 
2004 1012 1026 1027 
2005 1012 1027 1013 
2006 1013 1027 1028 
2007 1013 1028 1014 
2008 1014 1028 1029 
2009 1014 1029 1015 
2010 1015 1029 1030 
2011 1015 1030 1016 
2012 1016 1030 1031 
2013 1016 1031 1017 
2014 1017 1031 1032 
2015 1017 1032 154 
2016 154 1032 153 
2017 125 126 1018 
2018 1018 126 1033 
2019 1018 1033 1019 
2020 1019 1033 1034 
2021 1019 1034 1020 
2022 1020 1034 1035 
2023 1020 1035 1021 
2024 1021 1035 1036 
2025 1021 1036 1022 
2026 1022 1036 1037 
2027 1022 1037 1023 
2028 1023 1037 1038 
2029 1023 1038 1024 
2030 1024 1038 1039 
2031 1024 1039 1025 
2032 1025 1039 1040 
2033 1025 1040 1026 
2034 1026 1040 1041 
2035 1026 1041 1027 
2036 1027 1041 1042 
2037 1027 1042 1028 
2038 1028 1042 1043 
2039 1028 1043 1029 
2040 1029 1043 1044 
2041 1029 1044 1030 
2042 1030 1044 1045 
2043 1030 1045 1031 
2044 1031 1045 1046 
2045 1031 1046 1032 
2046 1032 1046 1047 
2047 1032 1047 153 
2048 153 1047 152 
2049 126 127 1033 
2050 1033 127 1048 
2051 1033 1048 1034 
2052 1034 1048 1049 
2053 1034 1049 1035 
2054 1035 1049 1050 
2055 1035 1050 1036 
2056 1036 1050 1051 
2057 1036 1051 1037 
2058 1037 1051 1052 
2059 1037 1052 1038 
2060 1038 1052 1053 
2061 1038 1053 1039 
2062 1039 1053 1054 
2063 1039 1054 1040 
2064 1040 1054 1055 
2065 1040 1055 1041 
2066 1041 1055 1056 
2067 1041 1056 1042 
2068 1042 1056 1057 
2069 1042 1057 1043 
2070 1043 1057 1058 
2071 1043 1058 1044 
2072 1044 1058 1059 
2073 1044 1059 1045 
2074 1045 1059 1060 
2075 1045 1060 1046 
2076 1046 1060 1061 
2077 1046 1061 1047 
2078 1047 1061 1062 
2079 1047 1062 152 
2080 152 1062 151 
2081 127 128 1048 
2082 1048 128 1063 
2083 1048 1063 1049 
2084 1049 1063 1064 
2085 1049 1064 1050 
2086 1050 1064 1065 
2087 1050 1065 1051 
2088 1051 1065 1066 
2089 1051 1066 1052 
2090 1052 1066 1067 
2091 1052 1067 1053 
2092 1053 1067 1068 
2093 1053 1068 1054 
2094 1054 1068 1069 
2095 1054 1069 1055 
2096 1055 1069 1070 
2097 1055 1070 1056 
2098 1056 1070 1071 
2099 1056 1071 1057 
2100 1057 1071 1072 
2101 1057 1072 1058 
2102 1058 1072 1073 
2103 1058 1073 1059 
2104 1059 1073 1074 
2105 1059 1074 1060 
2106 1060 1074 1075 
2107 1060 1075 1061 
2108 1061 1075 1076 
2109 1061 1076 1062 
2110 1062 1076 1077 
2111 1062 1077 151 
2112 151 1077 150 
2113 128 129 1063 
2114 1063 129 1078 
2115 1063 1078 1064 
2116 1064 1078 1079 
2117 1064 1079 1065 
2118 1065 1079 1080 
2119 1065 1080 1066 
2120 1066 1080 1081 
2121 1066 1081 1067 
2122 1067 1081 1082 
2123 1067 1082 1068 
2124 1068 1082 1083 
2125 1068 1083 1069 
2126 1069 1083 1084 
2127 1069 1084 1070 
2128 1070 1084 1085 
2129 1070 1085 1071 
2130 1071 1085 1086 
2131 1071 1086 1072 
2132 1072 1086 1087 
2133 1072 1087 1073 
2134 1073 1087 1088 
2135 1073 1088 1074 
2136 1074 1088 1089 
2137 1074 1089 1075 
2138 1075 1089 1090 
2139 1075 1090 1076 
2140 1076 1090 1091 
2141 1076 1091 1077 
2142 1077 1091 1092 
2143 1077 1092 150 
2144 150 1092 149 
2145 129 130 1078 
2146 1078 130 1093 
2147 1078 1093 1079 
2148 1079 1093 1094 
2149 1079 1094 1080 
2150 1080 1094 1095 
2151 1080 1095 1081 
2152 1081 1095 1096 
2153 1081 1096 1082 
2154 1082 1096 1097 
2155 1082 1097 1083 
2156 1083 1097 1098 
2157 1083 1098 1084 
2158 1084 1098 1099 
2159 1084 1099 1085 
2160 1085 1099 1100 
2161 1085 1100 1086 
2162 1086 1100 1101 
2163 1086 1101 1087 
2164 1087 1101 1102 
2165 1087 1102 1088 
2166 1088 1102 1103 
2167 1088 1103 1089 
2168 1089 1103 1104 
2169 1089 1104 1090 
2170 1090 1104 1105 
2171 1090 1105 1091 
2172 1091 1105 1106 
2173 1091 1106 1092 
2174 1092 1106 1107 
2175 1092 1107 149 
2176 149 1107 148 
2177 130 131 1093 
2178 1093 131 1108 
2179 1093 1108 1094 
2180 1094 1108 1109 
2181 1094 1109 1095 
2182 1095 1109 1110 
2183 1095 1110 1096 
2184 1096 1110 1111 
2185 1096 1111 1097 
2186 1097 1111 1112 
2187 1097 1112 1098 
2188 1098 1112 1113 
2189 1098 1113 1099 
2190 1099 1113 1114 
2191 1099 1114 1100 
2192 1100 1114 1115 
2193 1100 1115 1101 
2194 1101 1115 1116 
2195 1101 1116 1102 
2196 1102 1116 1117 
2197 1102 1117 1103 
2198 1103 1117 1118 
2199 1103 1118 1104 
2200 1104 1118 1119 
2201 1104 1119 1105 
2202 1105 1119 1120 
2203 1105 1120 1106 
2204 1106 1120 1121 
2205 1106 1121 1107 
2206 1107 1121 1122 
2207 1107 1122 148 
2208 148 1122 147 
2209 131 6 1108 
2210 1108 6 132 
2211 1108 132 1109 
2212 1109 132 133 
2213 1109 133 1110 
2214 1110 133 134 
2215 1110 134 1111 
2216 1111 134 135 
2217 1111 135 1112 
2218 1112 135 136 
2219 1112 136 1113 
2220 1113 136 137 
2221 1113 137 1114 
2222 1114 137 138 
2223 1114 138 1115 
2224 1115 138 139 
2225 1115 139 1116 
2226 1116 139 140 
2227 1116 140 1117 
2228 1117 140 141 
2229 1117 141 1118 
2230 1118 141 142 
2231 1118 142 1119 
2232 1119 142 143 
2233 1119 143 1120 
2234 1120 143 144 
2235 1120 144 1121 
2236 1121 144 145 
2237 1121 145 1122 
2238 1122 145 146 
2239 1122 146 147 
2240 147 146 7 
$EndElements
