$MeshFormat
4.1 0 8
$EndMeshFormat
$PhysicalNames
7
1 1 "Γ¹"
1 2 "Γ²"
1 3 "Γ³⁻"
1 4 "Γ³⁺"
1 5 "Γ⁴"
1 6 "Γ⁵"
2 7 "Ω"
$EndPhysicalNames
$Entities
8 8 2 0
1 0 0 0 0 
2 2 0 0 0 
3 2 1 0 0 
4 0 1 0 0 
5 0 1 0 0 
6 2 1 0 0 
7 2 2 0 0 
8 0 2 0 0 
1 0 0 0 2 0 0 1 1 2 1 -2 
2 2 0 0 2 1 0 1 2 2 2 -3 
3 0 1 0 2 1 0 1 3 2 4 -3 
4 0 0 0 0 1 0 1 5 2 4 -1 
5 0 1 0 2 1 0 1 4 2 5 -6 
6 2 1 0 2 2 0 1 2 2 6 -7 
7 0 2 0 2 2 0 1 6 2 7 -8 
8 0 1 0 0 2 0 1 5 2 8 -5 
1 0 0 0 2 1 0 1 7 4 1 2 -3 4 
2 0 1 0 2 2 0 1 7 4 5 6 7 8 
$EndEntities
$Nodes
18 30 1 30
0 1 0 1
1
0 0 0
0 2 0 1
2
2 0 0
0 3 0 1
3
2 1 0
0 4 0 1
4
0 1 0
0 5 0 1
5
0 1 0
0 6 0 1
6
2 1 0
0 7 0 1
7
2 2 0
0 8 0 1
8
0 2 0
1 1 0 3
9
10
11
0.4999999999988219 0 0
0.9999999999973842 0 0
1.499999999998681 0 0
1 2 0 1
12
2 0.4999999999986921 0
1 3 0 3
13
14
15
0.4999999999988219 1 0
0.9999999999973842 1 0
1.499999999998681 1 0
1 4 0 1
16
0 0.5000000000020595 0
1 5 0 3
17
18
19
0.4999999999988219 1 0
0.9999999999973842 1 0
1.499999999998681 1 0
1 6 0 1
20
2 1.5 0
1 7 0 3
21
22
23
1.500000000000694 2 0
1.000000000004119 2 0
0.500000000002081 2 0
1 8 0 1
24
0 1.5 0
2 1 0 3
25
26
27
0.4999999999988219 0.5000000000012176 0
0.9999999999973842 0.5000000000003756 0
1.499999999998681 0.4999999999995339 0
2 2 0 3
28
29
30
0.5000000000004514 1.5 0
1.000000000000751 1.5 0
1.499999999999688 1.5 0
$EndNodes
$Elements
10 56 1 56
1 1 1 4
1 1 9 
2 9 10 
3 10 11 
4 11 2 
1 2 1 2
5 2 12 
6 12 3 
1 3 1 4
7 4 13 
8 13 14 
9 14 15 
10 15 3 
1 4 1 2
11 4 16 
12 16 1 
1 5 1 4
13 5 17 
14 17 18 
15 18 19 
16 19 6 
1 6 1 2
17 6 20 
18 20 7 
1 7 1 4
19 7 21 
20 21 22 
21 22 23 
22 23 8 
1 8 1 2
23 8 24 
24 24 5 
2 1 2 16
25 1 9 16 
26 16 9 25 
27 16 25 4 
28 4 25 13 
29 9 10 25 
30 25 10 26 
31 25 26 13 
32 13 26 14 
33 10 11 26 
34 26 11 27 
35 26 27 14 
36 14 27 15 
37 11 2 27 
38 27 2 12 
39 27 12 15 
40 15 12 3 
2 2 2 16
41 5 17 24 
42 24 17 28 
43 24 28 8 
44 8 28 23 
45 17 18 28 
46 28 18 29 
47 28 29 23 
48 23 29 22 
49 18 19 29 
50 29 19 30 
51 29 30 22 
52 22 30 21 
53 19 6 30 
54 30 6 20 
55 30 20 21 
56 21 20 7 
$EndElements
