$MeshFormat
4.1 0 8
$EndMeshFormat
$PhysicalNames
7
1 1 "Γ¹"
1 2 "Γ²"
1 3 "Γ³⁻"
1 4 "Γ³⁺"
1 5 "Γ⁴"
1 6 "Γ⁵"
2 7 "Ω"
$EndPhysicalNames
$Entities
8 8 2 0
1 0 0 0 0 
2 2 0 0 0 
3 2 1 0 0 
4 0 1 0 0 
5 0 1 0 0 
6 2 1 0 0 
7 2 2 0 0 
8 0 2 0 0 
1 0 0 0 2 0 0 1 1 2 1 -2 
2 2 0 0 2 1 0 1 2 2 2 -3 
3 0 1 0 2 1 0 1 3 2 4 -3 
4 0 0 0 0 1 0 1 5 2 4 -1 
5 0 1 0 2 1 0 1 4 2 5 -6 
6 2 1 0 2 2 0 1 2 2 6 -7 
7 0 2 0 2 2 0 1 6 2 7 -8 
8 0 1 0 0 2 0 1 5 2 8 -5 
1 0 0 0 2 1 0 1 7 4 1 2 -3 4 
2 0 1 0 2 2 0 1 7 4 5 6 7 8 
$EndEntities
$Nodes
18 90 1 90
0 1 0 1
1
0 0 0
0 2 0 1
2
2 0 0
0 3 0 1
3
2 1 0
0 4 0 1
4
0 1 0
0 5 0 1
5
0 1 0
0 6 0 1
6
2 1 0
0 7 0 1
7
2 2 0
0 8 0 1
8
0 2 0
1 1 0 7
9
10
11
12
13
14
15
0.2499999999995463 0 0
0.4999999999988219 0 0
0.7499999999980922 0 0
0.9999999999973842 0 0
1.249999999998022 0 0
1.499999999998681 0 0
1.749999999999341 0 0
1 2 0 3
16
17
18
2 0.2499999999994109 0
2 0.4999999999986921 0
2 0.7499999999993406 0
1 3 0 7
19
20
21
22
23
24
25
0.2499999999995463 1 0
0.4999999999988219 1 0
0.7499999999980922 1 0
0.9999999999973842 1 0
1.249999999998022 1 0
1.499999999998681 1 0
1.749999999999341 1 0
1 4 0 3
26
27
28
0 0.7500000000003471 0
0 0.5000000000020595 0
0 0.2500000000010405 0
1 5 0 7
29
30
31
32
33
34
35
0.2499999999995463 1 0
0.4999999999988219 1 0
0.7499999999980922 1 0
0.9999999999973842 1 0
1.249999999998022 1 0
1.499999999998681 1 0
1.749999999999341 1 0
1 6 0 3
36
37
38
2 1.25 0
2 1.5 0
2 1.75 0
1 7 0 7
39
40
41
42
43
44
45
1.749999999999002 2 0
1.500000000000694 2 0
1.250000000002428 2 0
1.000000000004119 2 0
0.7500000000031217 2 0
0.500000000002081 2 0
0.2500000000010405 2 0
1 8 0 3
46
47
48
0 1.75 0
0 1.5 0
0 1.25 0
2 1 0 21
49
50
51
52
53
54
55
56
57
58
59
60
61
62
63
64
65
66
67
68
69
0.2499999999995463 0.2500000000008368 0
0.2499999999995463 0.5000000000016387 0
0.2499999999995463 0.7500000000002213 0
0.499999999998822 0.2500000000006332 0
0.4999999999988219 0.5000000000012177 0
0.4999999999988219 0.7500000000000954 0
0.7499999999980922 0.2500000000004294 0
0.7499999999980922 0.5000000000007967 0
0.7499999999980922 0.7499999999999697 0
0.9999999999973842 0.2500000000002257 0
0.9999999999973842 0.5000000000003757 0
0.9999999999973842 0.7499999999998439 0
1.249999999998022 0.2500000000000221 0
1.249999999998022 0.4999999999999547 0
1.249999999998022 0.7499999999997179 0
1.499999999998681 0.2499999999998184 0
1.499999999998681 0.4999999999995339 0
1.499999999998681 0.7499999999995921 0
1.749999999999341 0.2499999999996146 0
1.749999999999341 0.499999999999113 0
1.749999999999341 0.7499999999994665 0
2 2 0 21
70
71
72
73
74
75
76
77
78
79
80
81
82
83
84
85
86
87
88
89
90
0.2499999999999198 1.25 0
0.2500000000002934 1.5 0
0.250000000000667 1.75 0
0.4999999999996367 1.25 0
0.5000000000004514 1.5 0
0.5000000000012663 1.75 0
0.7499999999993497 1.25 0
0.7500000000006072 1.5 0
0.7500000000018644 1.75 0
0.9999999999990681 1.25 0
1.000000000000752 1.5 0
1.000000000002435 1.75 0
1.249999999999124 1.25 0
1.250000000000225 1.5 0
1.250000000001327 1.75 0
1.499999999999185 1.25 0
1.499999999999688 1.5 0
1.500000000000191 1.75 0
1.749999999999255 1.25 0
1.749999999999172 1.5 0
1.749999999999087 1.75 0
$EndNodes
$Elements
10 176 1 176
1 1 1 8
1 1 9 
2 9 10 
3 10 11 
4 11 12 
5 12 13 
6 13 14 
7 14 15 
8 15 2 
1 2 1 4
9 2 16 
10 16 17 
11 17 18 
12 18 3 
1 3 1 8
13 4 19 
14 19 20 
15 20 21 
16 21 22 
17 22 23 
18 23 24 
19 24 25 
20 25 3 
1 4 1 4
21 4 26 
22 26 27 
23 27 28 
24 28 1 
1 5 1 8
25 5 29 
26 29 30 
27 30 31 
28 31 32 
29 32 33 
30 33 34 
31 34 35 
32 35 6 
1 6 1 4
33 6 36 
34 36 37 
35 37 38 
36 38 7 
1 7 1 8
37 7 39 
38 39 40 
39 40 41 
40 41 42 
41 42 43 
42 43 44 
43 44 45 
44 45 8 
1 8 1 4
45 8 46 
46 46 47 
47 47 48 
48 48 5 
2 1 2 64
49 1 9 28 
50 28 9 49 
51 28 49 27 
52 27 49 50 
53 27 50 26 
54 26 50 51 
55 26 51 4 
56 4 51 19 
57 9 10 49 
58 49 10 52 
59 49 52 50 
60 50 52 53 
61 50 53 51 
62 51 53 54 
63 51 54 19 
64 19 54 20 
65 10 11 52 
66 52 11 55 
67 52 55 53 
68 53 55 56 
69 53 56 54 
70 54 56 57 
71 54 57 20 
72 20 57 21 
73 11 12 55 
74 55 12 58 
75 55 58 56 
76 56 58 59 
77 56 59 57 
78 57 59 60 
79 57 60 21 
80 21 60 22 
81 12 13 58 
82 58 13 61 
83 58 61 59 
84 59 61 62 
85 59 62 60 
86 60 62 63 
87 60 63 22 
88 22 63 23 
89 13 14 61 
90 61 14 64 
91 61 64 62 
92 62 64 65 
93 62 65 63 
94 63 65 66 
95 63 66 23 
96 23 66 24 
97 14 15 64 
98 64 15 67 
99 64 67 65 
100 65 67 68 
101 65 68 66 
102 66 68 69 
103 66 69 24 
104 24 69 25 
105 15 2 67 
106 67 2 16 
107 67 16 68 
108 68 16 17 
109 68 17 69 
110 69 17 18 
111 69 18 25 
112 25 18 3 
2 2 2 64
113 5 29 48 
114 48 29 70 
115 48 70 47 
116 47 70 71 
117 47 71 46 
118 46 71 72 
119 46 72 8 
120 8 72 45 
121 29 30 70 
122 70 30 73 
123 70 73 71 
124 71 73 74 
125 71 74 72 
126 72 74 75 
127 72 75 45 
128 45 75 44 
129 30 31 73 
130 73 31 76 
131 73 76 74 
132 74 76 77 
133 74 77 75 
134 75 77 78 
135 75 78 44 
136 44 78 43 
137 31 32 76 
138 76 32 79 
139 76 79 77 
140 77 79 80 
141 77 80 78 
142 78 80 81 
143 78 81 43 
144 43 81 42 
145 32 33 79 
146 79 33 82 
147 79 82 80 
148 80 82 83 
149 80 83 81 
150 81 83 84 
151 81 84 42 
152 42 84 41 
153 33 34 82 
154 82 34 85 
155 82 85 83 
156 83 85 86 
157 83 86 84 
158 84 86 87 
159 84 87 41 
160 41 87 40 
161 34 35 85 
162 85 35 88 
163 85 88 86 
164 86 88 89 
165 86 89 87 
166 87 89 90 
167 87 90 40 
168 40 90 39 
169 35 6 88 
170 88 6 36 
171 88 36 89 
172 89 36 37 
173 89 37 90 
174 90 37 38 
175 90 38 39 
176 39 38 7 
$EndElements
