$MeshFormat
4.1 0 8
$EndMeshFormat
$PhysicalNames
7
1 1 "Γ¹"
1 2 "Γ²"
1 3 "Γ³⁻"
1 4 "Γ³⁺"
1 5 "Γ⁴"
1 6 "Γ⁵"
2 7 "Ω"
$EndPhysicalNames
$Entities
6 8 2 0
1 0 0 0 0 
2 1 0 0 0 
3 1 2 0 0 
4 0 2 0 0 
5 0 1 0 0 
6 1 1 0 0 
1 0 0 0 1 0 0 1 1 2 1 -2 
2 1 0 0 1 1 0 1 2 2 2 -6 
3 0 1 0 1 1 0 1 3 2 5 -6 
4 0 0 0 0 1 0 1 5 2 5 -1 
5 0 1 0 1 1 0 1 4 2 5 -6 
6 1 1 0 1 2 0 1 2 2 6 -3 
7 0 2 0 1 2 0 1 6 2 3 -4 
8 0 1 0 0 2 0 1 5 2 4 -5 
1 0 0 0 1 1 0 1 7 4 1 2 -3 4 
2 0 1 0 1 2 0 1 7 4 5 6 7 8 
$EndEntities
$Nodes
16 30 1 30
0 1 0 1
1
0 0 0
0 2 0 1
2
1 0 0
0 3 0 1
3
1 2 0
0 4 0 1
4
0 2 0
0 5 0 1
5
0 1 0
0 6 0 1
6
1 1 0
1 1 0 2
7
8
0.333333333332501 0 0
0.6666666666657874 0 0
1 2 0 2
9
10
1 0.333333333332501 0
1 0.6666666666657874 0
1 3 0 2
11
12
0.333333333332501 1 0
0.6666666666657874 1 0
1 4 0 2
13
14
0 0.6666666666675918 0
0 0.3333333333347207 0
1 5 0 2
15
16
0.333333333332501 1 0
0.6666666666657874 1 0
1 6 0 2
17
18
1 1.333333333333333 0
1 1.666666666666667 0
1 7 0 2
19
20
0.6666666666675918 2 0
0.3333333333347207 2 0
1 8 0 2
21
22
0 1.666666666666667 0
0 1.333333333333333 0
2 1 0 4
23
24
25
26
0.333333333332501 0.3333333333339809 0
0.333333333332501 0.6666666666669903 0
0.6666666666657874 0.3333333333332408 0
0.6666666666657874 0.666666666666389 0
2 2 0 4
27
28
29
30
0.3333333333332409 1.333333333333333 0
0.3333333333339808 1.666666666666666 0
0.666666666666389 1.333333333333333 0
0.6666666666669903 1.666666666666666 0
$EndNodes
$Elements
10 60 1 60
1 1 1 3
1 1 7 
2 7 8 
3 8 2 
1 2 1 3
4 2 9 
5 9 10 
6 10 6 
1 3 1 3
7 5 11 
8 11 12 
9 12 6 
1 4 1 3
10 5 13 
11 13 14 
12 14 1 
1 5 1 3
13 5 15 
14 15 16 
15 16 6 
1 6 1 3
16 6 17 
17 17 18 
18 18 3 
1 7 1 3
19 3 19 
20 19 20 
21 20 4 
1 8 1 3
22 4 21 
23 21 22 
24 22 5 
2 1 2 18
25 1 7 23 
26 23 14 1 
27 14 23 24 
28 24 13 14 
29 13 24 11 
30 11 5 13 
31 7 8 25 
32 25 23 7 
33 23 25 26 
34 26 24 23 
35 24 26 12 
36 12 11 24 
37 8 2 9 
38 9 25 8 
39 25 9 10 
40 10 26 25 
41 26 10 6 
42 6 12 26 
2 2 2 18
43 5 15 22 
44 22 15 27 
45 22 27 21 
46 21 27 28 
47 21 28 4 
48 4 28 20 
49 15 16 27 
50 27 16 29 
51 27 29 28 
52 28 29 30 
53 28 30 20 
54 20 30 19 
55 16 6 29 
56 29 6 17 
57 29 17 30 
58 30 17 18 
59 30 18 19 
60 19 18 3 
$EndElements
