$MeshFormat
4.1 0 8
$EndMeshFormat
$PhysicalNames
7
1 1 "Γ¹"
1 2 "Γ²"
1 3 "Γ³⁻"
1 4 "Γ³⁺"
1 5 "Γ⁴"
1 6 "Γ⁵"
2 7 "Ω"
$EndPhysicalNames
$Entities
6 8 2 0
1 0 0 0 0 
2 1 0 0 0 
3 1 2 0 0 
4 0 2 0 0 
5 0 1 0 0 
6 1 1 0 0 
1 0 0 0 1 0 0 1 1 2 1 -2 
2 1 0 0 1 1 0 1 2 2 2 -6 
3 0 1 0 1 1 0 1 3 2 5 -6 
4 0 0 0 0 1 0 1 5 2 5 -1 
5 0 1 0 1 1 0 1 4 2 5 -6 
6 1 1 0 1 2 0 1 2 2 6 -3 
7 0 2 0 1 2 0 1 6 2 3 -4 
8 0 1 0 0 2 0 1 5 2 4 -5 
1 0 0 0 1 1 0 1 7 4 1 2 -3 4 
2 0 1 0 1 2 0 1 7 4 5 6 7 8 
$EndEntities
$Nodes
16 126 1 126
0 1 0 1
1
0 0 0
0 2 0 1
2
1 0 0
0 3 0 1
3
1 2 0
0 4 0 1
4
0 2 0
0 5 0 1
5
0 1 0
0 6 0 1
6
1 1 0
1 1 0 6
7
8
9
10
11
12
0.1428571428568666 0 0
0.2857142857135924 0 0
0.4285714285703183 0 0
0.5714285714274411 0 0
0.7142857142849607 0 0
0.8571428571424804 0 0
1 2 0 6
13
14
15
16
17
18
1 0.1428571428568666 0
1 0.2857142857135924 0
1 0.4285714285703183 0
1 0.5714285714274411 0
1 0.7142857142849607 0
1 0.8571428571424804 0
1 3 0 6
19
20
21
22
23
24
0.1428571428568666 1 0
0.2857142857135924 1 0
0.4285714285703183 1 0
0.5714285714274411 1 0
0.7142857142849607 1 0
0.8571428571424804 1 0
1 4 0 6
25
26
27
28
29
30
0 0.8571428571424606 0
0 0.714285714286309 0
0 0.5714285714301571 0
0 0.4285714285732124 0
0 0.285714285715475 0
0 0.1428571428577375 0
1 5 0 6
31
32
33
34
35
36
0.1428571428568666 1 0
0.2857142857135924 1 0
0.4285714285703183 1 0
0.5714285714274411 1 0
0.7142857142849607 1 0
0.8571428571424804 1 0
1 6 0 6
37
38
39
40
41
42
1 1.142857142857143 0
1 1.285714285714286 0
1 1.428571428571429 0
1 1.571428571428571 0
1 1.714285714285714 0
1 1.857142857142857 0
1 7 0 6
43
44
45
46
47
48
0.8571428571424606 2 0
0.714285714286309 2 0
0.5714285714301571 2 0
0.4285714285732124 2 0
0.285714285715475 2 0
0.1428571428577375 2 0
1 8 0 6
49
50
51
52
53
54
0 1.857142857142857 0
0 1.714285714285714 0
0 1.571428571428571 0
0 1.428571428571429 0
0 1.285714285714286 0
0 1.142857142857143 0
2 1 0 36
55
56
57
58
59
60
61
62
63
64
65
66
67
68
69
70
71
72
73
74
75
76
77
78
79
80
81
82
83
84
85
86
87
88
89
90
0.1428571428568666 0.1428571428576131 0
0.1428571428568666 0.2857142857152061 0
0.1428571428568666 0.428571428572799 0
0.1428571428568666 0.5714285714297692 0
0.1428571428568666 0.7142857142861163 0
0.1428571428568666 0.8571428571424635 0
0.2857142857135924 0.1428571428574887 0
0.2857142857135924 0.2857142857149372 0
0.2857142857135925 0.4285714285723854 0
0.2857142857135924 0.571428571429381 0
0.2857142857135924 0.7142857142859238 0
0.2857142857135924 0.8571428571424664 0
0.4285714285703183 0.1428571428573642 0
0.4285714285703183 0.2857142857146682 0
0.4285714285703183 0.4285714285719721 0
0.4285714285703183 0.5714285714289931 0
0.4285714285703184 0.7142857142857313 0
0.4285714285703183 0.8571428571424691 0
0.5714285714274411 0.1428571428572398 0
0.5714285714274411 0.2857142857143992 0
0.5714285714274411 0.4285714285715586 0
0.5714285714274411 0.5714285714286053 0
0.5714285714274411 0.7142857142855386 0
0.5714285714274411 0.857142857142472 0
0.7142857142849608 0.1428571428571154 0
0.7142857142849607 0.2857142857141303 0
0.7142857142849605 0.4285714285711452 0
0.7142857142849607 0.5714285714282171 0
0.7142857142849607 0.7142857142853458 0
0.7142857142849607 0.8571428571424746 0
0.8571428571424804 0.142857142856991 0
0.8571428571424802 0.2857142857138614 0
0.8571428571424802 0.4285714285707318 0
0.8571428571424804 0.571428571427829 0
0.8571428571424804 0.7142857142851533 0
0.8571428571424804 0.8571428571424775 0
2 2 0 36
91
92
93
94
95
96
97
98
99
100
101
102
103
104
105
106
107
108
109
110
111
112
113
114
115
116
117
118
119
120
121
122
123
124
125
126
0.142857142856991 1.142857142857143 0
0.1428571428571154 1.285714285714285 0
0.1428571428572398 1.428571428571429 0
0.1428571428573643 1.571428571428571 0
0.1428571428574887 1.714285714285714 0
0.1428571428576131 1.857142857142857 0
0.2857142857138614 1.142857142857143 0
0.2857142857141303 1.285714285714286 0
0.2857142857143993 1.428571428571428 0
0.2857142857146682 1.571428571428571 0
0.2857142857149371 1.714285714285715 0
0.2857142857152061 1.857142857142857 0
0.4285714285707317 1.142857142857143 0
0.4285714285711452 1.285714285714286 0
0.4285714285715586 1.428571428571428 0
0.4285714285719721 1.571428571428572 0
0.4285714285723854 1.714285714285715 0
0.4285714285727989 1.857142857142857 0
0.5714285714278292 1.142857142857143 0
0.5714285714282171 1.285714285714285 0
0.5714285714286053 1.428571428571428 0
0.5714285714289929 1.571428571428571 0
0.5714285714293811 1.714285714285714 0
0.5714285714297692 1.857142857142857 0
0.7142857142851533 1.142857142857143 0
0.7142857142853458 1.285714285714286 0
0.7142857142855386 1.428571428571428 0
0.7142857142857313 1.571428571428571 0
0.7142857142859238 1.714285714285715 0
0.7142857142861163 1.857142857142857 0
0.8571428571424775 1.142857142857143 0
0.8571428571424746 1.285714285714286 0
0.857142857142472 1.428571428571428 0
0.8571428571424691 1.571428571428572 0
0.8571428571424662 1.714285714285714 0
0.8571428571424635 1.857142857142857 0
$EndNodes
$Elements
10 252 1 252
1 1 1 7
1 1 7 
2 7 8 
3 8 9 
4 9 10 
5 10 11 
6 11 12 
7 12 2 
1 2 1 7
8 2 13 
9 13 14 
10 14 15 
11 15 16 
12 16 17 
13 17 18 
14 18 6 
1 3 1 7
15 5 19 
16 19 20 
17 20 21 
18 21 22 
19 22 23 
20 23 24 
21 24 6 
1 4 1 7
22 5 25 
23 25 26 
24 26 27 
25 27 28 
26 28 29 
27 29 30 
28 30 1 
1 5 1 7
29 5 31 
30 31 32 
31 32 33 
32 33 34 
33 34 35 
34 35 36 
35 36 6 
1 6 1 7
36 6 37 
37 37 38 
38 38 39 
39 39 40 
40 40 41 
41 41 42 
42 42 3 
1 7 1 7
43 3 43 
44 43 44 
45 44 45 
46 45 46 
47 46 47 
48 47 48 
49 48 4 
1 8 1 7
50 4 49 
51 49 50 
52 50 51 
53 51 52 
54 52 53 
55 53 54 
56 54 5 
2 1 2 98
57 1 7 55 
58 55 30 1 
59 30 55 56 
60 56 29 30 
61 29 56 57 
62 57 28 29 
63 28 57 58 
64 58 27 28 
65 27 58 59 
66 59 26 27 
67 26 59 60 
68 60 25 26 
69 25 60 19 
70 19 5 25 
71 7 8 61 
72 61 55 7 
73 55 61 62 
74 62 56 55 
75 56 62 63 
76 63 57 56 
77 57 63 64 
78 64 58 57 
79 58 64 65 
80 65 59 58 
81 59 65 66 
82 66 60 59 
83 60 66 20 
84 20 19 60 
85 8 9 67 
86 67 61 8 
87 61 67 68 
88 68 62 61 
89 62 68 69 
90 69 63 62 
91 63 69 70 
92 70 64 63 
93 64 70 71 
94 71 65 64 
95 65 71 72 
96 72 66 65 
97 66 72 21 
98 21 20 66 
99 9 10 73 
100 73 67 9 
101 67 73 74 
102 74 68 67 
103 68 74 75 
104 75 69 68 
105 69 75 76 
106 76 70 69 
107 70 76 77 
108 77 71 70 
109 71 77 78 
110 78 72 71 
111 72 78 22 
112 22 21 72 
113 10 11 79 
114 79 73 10 
115 73 79 80 
116 80 74 73 
117 74 80 81 
118 81 75 74 
119 75 81 82 
120 82 76 75 
121 76 82 83 
122 83 77 76 
123 77 83 84 
124 84 78 77 
125 78 84 23 
126 23 22 78 
127 11 12 85 
128 85 79 11 
129 79 85 86 
130 86 80 79 
131 80 86 87 
132 87 81 80 
133 81 87 88 
134 88 82 81 
135 82 88 89 
136 89 83 82 
137 83 89 90 
138 90 84 83 
139 84 90 24 
140 24 23 84 
141 12 2 13 
142 13 85 12 
143 85 13 14 
144 14 86 85 
145 86 14 15 
146 15 87 86 
147 87 15 16 
148 16 88 87 
149 88 16 17 
150 17 89 88 
151 89 17 18 
152 18 90 89 
153 90 18 6 
154 6 24 90 
2 2 2 98
155 5 31 54 
156 54 31 91 
157 54 91 53 
158 53 91 92 
159 53 92 52 
160 52 92 93 
161 52 93 51 
162 51 93 94 
163 51 94 50 
164 50 94 95 
165 50 95 49 
166 49 95 96 
167 49 96 4 
168 4 96 48 
169 31 32 91 
170 91 32 97 
171 91 97 92 
172 92 97 98 
173 92 98 93 
174 93 98 99 
175 93 99 94 
176 94 99 100 
177 94 100 95 
178 95 100 101 
179 95 101 96 
180 96 101 102 
181 96 102 48 
182 48 102 47 
183 32 33 97 
184 97 33 103 
185 97 103 98 
186 98 103 104 
187 98 104 99 
188 99 104 105 
189 99 105 100 
190 100 105 106 
191 100 106 101 
192 101 106 107 
193 101 107 102 
194 102 107 108 
195 102 108 47 
196 47 108 46 
197 33 34 103 
198 103 34 109 
199 103 109 104 
200 104 109 110 
201 104 110 105 
202 105 110 111 
203 105 111 106 
204 106 111 112 
205 106 112 107 
206 107 112 113 
207 107 113 108 
208 108 113 114 
209 108 114 46 
210 46 114 45 
211 34 35 109 
212 109 35 115 
213 109 115 110 
214 110 115 116 
215 110 116 111 
216 111 116 117 
217 111 117 112 
218 112 117 118 
219 112 118 113 
220 113 118 119 
221 113 119 114 
222 114 119 120 
223 114 120 45 
224 45 120 44 
225 35 36 115 
226 115 36 121 
227 115 121 116 
228 116 121 122 
229 116 122 117 
230 117 122 123 
231 117 123 118 
232 118 123 124 
233 118 124 119 
234 119 124 125 
235 119 125 120 
236 120 125 126 
237 120 126 44 
238 44 126 43 
239 36 6 121 
240 121 6 37 
241 121 37 122 
242 122 37 38 
243 122 38 123 
244 123 38 39 
245 123 39 124 
246 124 39 40 
247 124 40 125 
248 125 40 41 
249 125 41 126 
250 126 41 42 
251 126 42 43 
252 43 42 3 
$EndElements
