$MeshFormat
4.1 0 8
$EndMeshFormat
$PhysicalNames
7
1 1 "Γ¹"
1 2 "Γ²"
1 3 "Γ³⁻"
1 4 "Γ³⁺"
1 5 "Γ⁴"
1 6 "Γ⁵"
2 7 "Ω"
$EndPhysicalNames
$Entities
6 8 2 0
1 0 0 0 0 
2 1 0 0 0 
3 1 2 0 0 
4 0 2 0 0 
5 0 1 0 0 
6 1 1 0 0 
1 0 0 0 1 0 0 1 1 2 1 -2 
2 1 0 0 1 1 0 1 2 2 2 -6 
3 0 1 0 1 1 0 1 3 2 5 -6 
4 0 0 0 0 1 0 1 5 2 5 -1 
5 0 1 0 1 1 0 1 4 2 5 -6 
6 1 1 0 1 2 0 1 2 2 6 -3 
7 0 2 0 1 2 0 1 6 2 3 -4 
8 0 1 0 0 2 0 1 5 2 4 -5 
1 0 0 0 1 1 0 1 7 4 1 2 -3 4 
2 0 1 0 1 2 0 1 7 4 5 6 7 8 
$EndEntities
$Nodes
16 510 1 510
0 1 0 1
1
0 0 0
0 2 0 1
2
1 0 0
0 3 0 1
3
1 2 0
0 4 0 1
4
0 2 0
0 5 0 1
5
0 1 0
0 6 0 1
6
1 1 0
1 1 0 14
7
8
9
10
11
12
13
14
15
16
17
18
19
20
0.0666666666665325 0 0
0.1333333333330848 0 0
0.1999999999995569 0 0
0.266666666666029 0 0
0.3333333333325011 0 0
0.3999999999989731 0 0
0.4666666666654452 0 0
0.5333333333321025 0 0
0.599999999998945 0 0
0.6666666666657876 0 0
0.73333333333263 0 0
0.7999999999994725 0 0
0.8666666666663151 0 0
0.9333333333331575 0 0
1 2 0 14
21
22
23
24
25
26
27
28
29
30
31
32
33
34
1 0.0666666666665325 0
1 0.1333333333330848 0
1 0.1999999999995569 0
1 0.266666666666029 0
1 0.3333333333325011 0
1 0.3999999999989731 0
1 0.4666666666654452 0
1 0.5333333333321025 0
1 0.599999999998945 0
1 0.6666666666657876 0
1 0.73333333333263 0
1 0.7999999999994725 0
1 0.8666666666663151 0
1 0.9333333333331575 0
1 3 0 14
35
36
37
38
39
40
41
42
43
44
45
46
47
48
0.0666666666665325 1 0
0.1333333333330848 1 0
0.1999999999995569 1 0
0.266666666666029 1 0
0.3333333333325011 1 0
0.3999999999989731 1 0
0.4666666666654452 1 0
0.5333333333321025 1 0
0.599999999998945 1 0
0.6666666666657876 1 0
0.73333333333263 1 0
0.7999999999994725 1 0
0.8666666666663151 1 0
0.9333333333331575 1 0
1 4 0 14
49
50
51
52
53
54
55
56
57
58
59
60
61
62
0 0.9333333333330558 0
0 0.866666666666204 0
0 0.8 0
0 0.7333333333337959 0
0 0.6666666666675918 0
0 0.6000000000013874 0
0 0.5333333333351832 0
0 0.466666666668609 0
0 0.4000000000016649 0
0 0.3333333333347207 0
0 0.2666666666677765 0
0 0.2000000000008324 0
0 0.1333333333338883 0
0 0.06666666666694399 0
1 5 0 14
63
64
65
66
67
68
69
70
71
72
73
74
75
76
0.0666666666665325 1 0
0.1333333333330848 1 0
0.1999999999995569 1 0
0.266666666666029 1 0
0.3333333333325011 1 0
0.3999999999989731 1 0
0.4666666666654452 1 0
0.5333333333321025 1 0
0.599999999998945 1 0
0.6666666666657876 1 0
0.73333333333263 1 0
0.7999999999994725 1 0
0.8666666666663151 1 0
0.9333333333331575 1 0
1 6 0 14
77
78
79
80
81
82
83
84
85
86
87
88
89
90
1 1.066666666666667 0
1 1.133333333333333 0
1 1.2 0
1 1.266666666666667 0
1 1.333333333333333 0
1 1.4 0
1 1.466666666666667 0
1 1.533333333333333 0
1 1.6 0
1 1.666666666666667 0
1 1.733333333333333 0
1 1.8 0
1 1.866666666666667 0
1 1.933333333333333 0
1 7 0 14
91
92
93
94
95
96
97
98
99
100
101
102
103
104
0.9333333333330558 2 0
0.866666666666204 2 0
0.8 2 0
0.7333333333337959 2 0
0.6666666666675918 2 0
0.6000000000013874 2 0
0.5333333333351832 2 0
0.466666666668609 2 0
0.4000000000016649 2 0
0.3333333333347207 2 0
0.2666666666677765 2 0
0.2000000000008324 2 0
0.1333333333338883 2 0
0.06666666666694399 2 0
1 8 0 14
105
106
107
108
109
110
111
112
113
114
115
116
117
118
0 1.933333333333333 0
0 1.866666666666667 0
0 1.8 0
0 1.733333333333333 0
0 1.666666666666667 0
0 1.6 0
0 1.533333333333333 0
0 1.466666666666667 0
0 1.4 0
0 1.333333333333333 0
0 1.266666666666667 0
0 1.2 0
0 1.133333333333333 0
0 1.066666666666667 0
2 1 0 196
119
120
121
122
123
124
125
126
127
128
129
130
131
132
133
134
135
136
137
138
139
140
141
142
143
144
145
146
147
148
149
150
151
152
153
154
155
156
157
158
159
160
161
162
163
164
165
166
167
168
169
170
171
172
173
174
175
176
177
178
179
180
181
182
183
184
185
186
187
188
189
190
191
192
193
194
195
196
197
198
199
200
201
202
203
204
205
206
207
208
209
210
211
212
213
214
215
216
217
218
219
220
221
222
223
224
225
226
227
228
229
230
231
232
233
234
235
236
237
238
239
240
241
242
243
244
245
246
247
248
249
250
251
252
253
254
255
256
257
258
259
260
261
262
263
264
265
266
267
268
269
270
271
272
273
274
275
276
277
278
279
280
281
282
283
284
285
286
287
288
289
290
291
292
293
294
295
296
297
298
299
300
301
302
303
304
305
306
307
308
309
310
311
312
313
314
0.0666666666665325 0.06666666666691654 0
0.0666666666665325 0.1333333333338347 0
0.0666666666665325 0.2000000000007474 0
0.0666666666665325 0.2666666666676599 0
0.0666666666665325 0.3333333333345727 0
0.0666666666665325 0.4000000000014855 0
0.0666666666665325 0.4666666666683982 0
0.0666666666665325 0.5333333333349778 0
0.0666666666665325 0.6000000000012246 0
0.0666666666665325 0.6666666666674714 0
0.0666666666665325 0.7333333333337182 0
0.0666666666665325 0.7999999999999649 0
0.0666666666665325 0.8666666666662113 0
0.0666666666665325 0.9333333333330628 0
0.1333333333330848 0.06666666666688911 0
0.1333333333330848 0.1333333333337812 0
0.1333333333330848 0.2000000000006623 0
0.1333333333330848 0.2666666666675435 0
0.1333333333330848 0.3333333333344247 0
0.1333333333330848 0.4000000000013061 0
0.1333333333330848 0.4666666666681871 0
0.1333333333330848 0.5333333333347724 0
0.1333333333330848 0.6000000000010617 0
0.1333333333330848 0.6666666666673513 0
0.1333333333330848 0.7333333333336405 0
0.1333333333330848 0.7999999999999298 0
0.1333333333330848 0.8666666666662186 0
0.1333333333330848 0.9333333333330693 0
0.1999999999995569 0.06666666666686169 0
0.199999999999557 0.1333333333337276 0
0.1999999999995569 0.2000000000005773 0
0.1999999999995569 0.266666666667427 0
0.1999999999995569 0.3333333333342767 0
0.1999999999995569 0.4000000000011266 0
0.1999999999995569 0.4666666666679762 0
0.1999999999995569 0.533333333334567 0
0.1999999999995569 0.6000000000008989 0
0.1999999999995569 0.666666666667231 0
0.1999999999995569 0.7333333333335628 0
0.1999999999995569 0.7999999999998945 0
0.1999999999995569 0.8666666666662262 0
0.1999999999995569 0.933333333333076 0
0.266666666666029 0.06666666666683427 0
0.266666666666029 0.1333333333336741 0
0.266666666666029 0.2000000000004922 0
0.266666666666029 0.2666666666673104 0
0.266666666666029 0.3333333333341288 0
0.266666666666029 0.4000000000009471 0
0.266666666666029 0.4666666666677653 0
0.266666666666029 0.5333333333343616 0
0.266666666666029 0.6000000000007362 0
0.266666666666029 0.6666666666671106 0
0.266666666666029 0.733333333333485 0
0.266666666666029 0.7999999999998593 0
0.266666666666029 0.8666666666662337 0
0.266666666666029 0.9333333333330831 0
0.3333333333325011 0.06666666666680682 0
0.3333333333325011 0.1333333333336205 0
0.3333333333325011 0.2000000000004072 0
0.3333333333325011 0.266666666667194 0
0.3333333333325011 0.3333333333339809 0
0.3333333333325011 0.4000000000007676 0
0.3333333333325011 0.4666666666675543 0
0.3333333333325011 0.5333333333341564 0
0.3333333333325011 0.6000000000005734 0
0.3333333333325011 0.6666666666669903 0
0.3333333333325011 0.7333333333334073 0
0.3333333333325011 0.7999999999998242 0
0.3333333333325011 0.866666666666241 0
0.3333333333325011 0.9333333333330897 0
0.3999999999989732 0.0666666666667794 0
0.3999999999989732 0.1333333333335669 0
0.3999999999989731 0.2000000000003222 0
0.3999999999989731 0.2666666666670775 0
0.3999999999989732 0.3333333333338329 0
0.3999999999989732 0.4000000000005882 0
0.3999999999989731 0.4666666666673434 0
0.3999999999989731 0.5333333333339508 0
0.3999999999989731 0.6000000000004104 0
0.3999999999989731 0.6666666666668701 0
0.3999999999989731 0.7333333333333296 0
0.3999999999989731 0.7999999999997891 0
0.3999999999989731 0.8666666666662484 0
0.3999999999989731 0.9333333333330964 0
0.4666666666654453 0.06666666666675194 0
0.4666666666654453 0.1333333333335133 0
0.466666666665445 0.2000000000002372 0
0.4666666666654452 0.2666666666669609 0
0.4666666666654451 0.3333333333336849 0
0.4666666666654451 0.4000000000004087 0
0.4666666666654452 0.4666666666671325 0
0.4666666666654452 0.5333333333337457 0
0.4666666666654451 0.6000000000002477 0
0.4666666666654453 0.66666666666675 0
0.4666666666654452 0.7333333333332519 0
0.4666666666654453 0.7999999999997538 0
0.4666666666654453 0.8666666666662559 0
0.4666666666654452 0.9333333333331033 0
0.5333333333321025 0.06666666666672452 0
0.5333333333321025 0.1333333333334598 0
0.5333333333321025 0.2000000000001521 0
0.5333333333321025 0.2666666666668445 0
0.5333333333321025 0.333333333333537 0
0.5333333333321025 0.4000000000002292 0
0.5333333333321026 0.4666666666669215 0
0.5333333333321025 0.53333333333354 0
0.5333333333321025 0.6000000000000849 0
0.5333333333321025 0.6666666666666294 0
0.5333333333321025 0.7333333333331742 0
0.5333333333321025 0.7999999999997186 0
0.5333333333321025 0.8666666666662632 0
0.5333333333321025 0.93333333333311 0
0.5999999999989448 0.0666666666666971 0
0.5999999999989449 0.1333333333334062 0
0.599999999998945 0.2000000000000672 0
0.599999999998945 0.266666666666728 0
0.599999999998945 0.3333333333333889 0
0.5999999999989449 0.4000000000000498 0
0.599999999998945 0.4666666666667106 0
0.599999999998945 0.5333333333333349 0
0.599999999998945 0.5999999999999219 0
0.599999999998945 0.6666666666665093 0
0.599999999998945 0.7333333333330965 0
0.599999999998945 0.7999999999996835 0
0.599999999998945 0.8666666666662706 0
0.599999999998945 0.9333333333331169 0
0.6666666666657878 0.06666666666666968 0
0.6666666666657878 0.1333333333333527 0
0.6666666666657877 0.1999999999999821 0
0.6666666666657876 0.2666666666666114 0
0.6666666666657876 0.333333333333241 0
0.6666666666657877 0.3999999999998704 0
0.6666666666657874 0.4666666666664999 0
0.6666666666657876 0.5333333333331293 0
0.6666666666657876 0.5999999999997592 0
0.6666666666657876 0.666666666666389 0
0.6666666666657876 0.7333333333330185 0
0.6666666666657876 0.7999999999996484 0
0.6666666666657876 0.8666666666662781 0
0.6666666666657876 0.9333333333331235 0
0.73333333333263 0.06666666666664223 0
0.7333333333326301 0.1333333333332991 0
0.73333333333263 0.1999999999998971 0
0.7333333333326297 0.266666666666495 0
0.73333333333263 0.333333333333093 0
0.73333333333263 0.399999999999691 0
0.7333333333326297 0.4666666666662888 0
0.73333333333263 0.5333333333329241 0
0.73333333333263 0.5999999999995964 0
0.73333333333263 0.6666666666662686 0
0.73333333333263 0.733333333332941 0
0.73333333333263 0.7999999999996131 0
0.73333333333263 0.8666666666662854 0
0.73333333333263 0.9333333333331304 0
0.7999999999994725 0.06666666666661478 0
0.7999999999994725 0.1333333333332455 0
0.7999999999994725 0.199999999999812 0
0.7999999999994725 0.2666666666663785 0
0.7999999999994725 0.333333333332945 0
0.7999999999994725 0.3999999999995115 0
0.7999999999994725 0.466666666666078 0
0.7999999999994725 0.5333333333327185 0
0.7999999999994725 0.5999999999994334 0
0.7999999999994725 0.6666666666661485 0
0.7999999999994725 0.7333333333328631 0
0.7999999999994725 0.7999999999995778 0
0.7999999999994725 0.8666666666662928 0
0.7999999999994725 0.9333333333331373 0
0.8666666666663151 0.06666666666658735 0
0.8666666666663153 0.133333333333192 0
0.8666666666663151 0.199999999999727 0
0.8666666666663149 0.2666666666662619 0
0.866666666666315 0.333333333332797 0
0.8666666666663152 0.399999999999332 0
0.8666666666663152 0.466666666665867 0
0.8666666666663151 0.5333333333325133 0
0.8666666666663149 0.5999999999992709 0
0.8666666666663152 0.6666666666660281 0
0.8666666666663151 0.7333333333327854 0
0.8666666666663153 0.7999999999995427 0
0.8666666666663151 0.8666666666663003 0
0.8666666666663151 0.9333333333331439 0
0.9333333333331576 0.06666666666655993 0
0.9333333333331576 0.1333333333331384 0
0.9333333333331575 0.1999999999996419 0
0.9333333333331575 0.2666666666661455 0
0.9333333333331575 0.333333333332649 0
0.9333333333331574 0.3999999999991525 0
0.9333333333331575 0.4666666666656561 0
0.9333333333331575 0.5333333333323079 0
0.9333333333331575 0.5999999999991079 0
0.9333333333331575 0.666666666665908 0
0.9333333333331575 0.7333333333327077 0
0.9333333333331575 0.7999999999995077 0
0.9333333333331575 0.8666666666663077 0
0.9333333333331575 0.9333333333331506 0
2 2 0 196
315
316
317
318
319
320
321
322
323
324
325
326
327
328
329
330
331
332
333
334
335
336
337
338
339
340
341
342
343
344
345
346
347
348
349
350
351
352
353
354
355
356
357
358
359
360
361
362
363
364
365
366
367
368
369
370
371
372
373
374
375
376
377
378
379
380
381
382
383
384
385
386
387
388
389
390
391
392
393
394
395
396
397
398
399
400
401
402
403
404
405
406
407
408
409
410
411
412
413
414
415
416
417
418
419
420
421
422
423
424
425
426
427
428
429
430
431
432
433
434
435
436
437
438
439
440
441
442
443
444
445
446
447
448
449
450
451
452
453
454
455
456
457
458
459
460
461
462
463
464
465
466
467
468
469
470
471
472
473
474
475
476
477
478
479
480
481
482
483
484
485
486
487
488
489
490
491
492
493
494
495
496
497
498
499
500
501
502
503
504
505
506
507
508
509
510
0.06666666666655993 1.066666666666667 0
0.06666666666658735 1.133333333333333 0
0.0666666666666148 1.2 0
0.06666666666664223 1.266666666666667 0
0.06666666666666965 1.333333333333333 0
0.0666666666666971 1.4 0
0.06666666666672452 1.466666666666667 0
0.06666666666675194 1.533333333333333 0
0.0666666666667794 1.6 0
0.06666666666680682 1.666666666666667 0
0.06666666666683427 1.733333333333333 0
0.06666666666686169 1.8 0
0.06666666666688911 1.866666666666667 0
0.06666666666691654 1.933333333333333 0
0.1333333333331383 1.066666666666667 0
0.133333333333192 1.133333333333333 0
0.1333333333332455 1.2 0
0.1333333333332991 1.266666666666666 0
0.1333333333333526 1.333333333333333 0
0.1333333333334062 1.4 0
0.1333333333334598 1.466666666666667 0
0.1333333333335133 1.533333333333333 0
0.133333333333567 1.6 0
0.1333333333336205 1.666666666666667 0
0.133333333333674 1.733333333333333 0
0.1333333333337276 1.8 0
0.1333333333337812 1.866666666666667 0
0.1333333333338347 1.933333333333333 0
0.1999999999996419 1.066666666666667 0
0.199999999999727 1.133333333333333 0
0.199999999999812 1.2 0
0.199999999999897 1.266666666666667 0
0.1999999999999821 1.333333333333333 0
0.2000000000000672 1.4 0
0.2000000000001521 1.466666666666667 0
0.2000000000002372 1.533333333333333 0
0.2000000000003222 1.6 0
0.2000000000004072 1.666666666666667 0
0.2000000000004922 1.733333333333333 0
0.2000000000005773 1.8 0
0.2000000000006623 1.866666666666667 0
0.2000000000007474 1.933333333333333 0
0.2666666666661455 1.066666666666667 0
0.2666666666662619 1.133333333333333 0
0.2666666666663785 1.2 0
0.266666666666495 1.266666666666667 0
0.2666666666666114 1.333333333333334 0
0.266666666666728 1.4 0
0.2666666666668445 1.466666666666667 0
0.2666666666669609 1.533333333333333 0
0.2666666666670775 1.6 0
0.266666666667194 1.666666666666666 0
0.2666666666673104 1.733333333333333 0
0.266666666667427 1.8 0
0.2666666666675435 1.866666666666667 0
0.26666666666766 1.933333333333333 0
0.333333333332649 1.066666666666667 0
0.3333333333327971 1.133333333333333 0
0.3333333333329449 1.2 0
0.333333333333093 1.266666666666667 0
0.3333333333332409 1.333333333333333 0
0.3333333333333889 1.4 0
0.3333333333335369 1.466666666666667 0
0.3333333333336849 1.533333333333333 0
0.3333333333338329 1.6 0
0.3333333333339809 1.666666666666667 0
0.3333333333341288 1.733333333333333 0
0.3333333333342768 1.8 0
0.3333333333344247 1.866666666666667 0
0.3333333333345727 1.933333333333334 0
0.3999999999991525 1.066666666666667 0
0.3999999999993319 1.133333333333333 0
0.3999999999995114 1.2 0
0.399999999999691 1.266666666666667 0
0.3999999999998703 1.333333333333333 0
0.4000000000000498 1.4 0
0.4000000000002293 1.466666666666667 0
0.4000000000004088 1.533333333333333 0
0.4000000000005882 1.6 0
0.4000000000007677 1.666666666666667 0
0.4000000000009471 1.733333333333333 0
0.4000000000011265 1.8 0
0.4000000000013059 1.866666666666667 0
0.4000000000014856 1.933333333333333 0
0.4666666666656561 1.066666666666666 0
0.4666666666658669 1.133333333333333 0
0.4666666666660778 1.2 0
0.466666666666289 1.266666666666667 0
0.4666666666664998 1.333333333333334 0
0.4666666666667107 1.4 0
0.4666666666669215 1.466666666666667 0
0.4666666666671326 1.533333333333333 0
0.4666666666673434 1.6 0
0.4666666666675544 1.666666666666667 0
0.4666666666677654 1.733333333333333 0
0.4666666666679762 1.8 0
0.4666666666681872 1.866666666666667 0
0.4666666666683981 1.933333333333333 0
0.5333333333323077 1.066666666666667 0
0.5333333333325133 1.133333333333333 0
0.5333333333327187 1.2 0
0.5333333333329241 1.266666666666667 0
0.5333333333331295 1.333333333333333 0
0.5333333333333349 1.4 0
0.5333333333335403 1.466666666666667 0
0.5333333333337457 1.533333333333333 0
0.5333333333339508 1.6 0
0.5333333333341564 1.666666666666666 0
0.5333333333343616 1.733333333333333 0
0.533333333334567 1.8 0
0.5333333333347724 1.866666666666667 0
0.5333333333349778 1.933333333333334 0
0.5999999999991079 1.066666666666667 0
0.5999999999992707 1.133333333333333 0
0.5999999999994334 1.2 0
0.5999999999995964 1.266666666666667 0
0.5999999999997592 1.333333333333333 0
0.5999999999999219 1.4 0
0.6000000000000849 1.466666666666667 0
0.6000000000002477 1.533333333333333 0
0.6000000000004104 1.6 0
0.6000000000005734 1.666666666666667 0
0.6000000000007359 1.733333333333333 0
0.6000000000008989 1.8 0
0.6000000000010619 1.866666666666667 0
0.6000000000012244 1.933333333333333 0
0.6666666666659078 1.066666666666667 0
0.6666666666660281 1.133333333333333 0
0.6666666666661485 1.2 0
0.6666666666662686 1.266666666666667 0
0.666666666666389 1.333333333333333 0
0.6666666666665093 1.4 0
0.6666666666666297 1.466666666666667 0
0.66666666666675 1.533333333333333 0
0.6666666666668699 1.6 0
0.6666666666669903 1.666666666666666 0
0.6666666666671106 1.733333333333333 0
0.666666666667231 1.799999999999999 0
0.6666666666673513 1.866666666666667 0
0.6666666666674714 1.933333333333333 0
0.7333333333327074 1.066666666666667 0
0.7333333333327854 1.133333333333333 0
0.7333333333328631 1.2 0
0.733333333332941 1.266666666666667 0
0.7333333333330188 1.333333333333333 0
0.7333333333330965 1.4 0
0.7333333333331742 1.466666666666667 0
0.7333333333332517 1.533333333333333 0
0.7333333333333296 1.6 0
0.7333333333334073 1.666666666666666 0
0.733333333333485 1.733333333333333 0
0.7333333333335628 1.8 0
0.7333333333336405 1.866666666666667 0
0.7333333333337182 1.933333333333333 0
0.7999999999995077 1.066666666666667 0
0.799999999999543 1.133333333333333 0
0.799999999999578 1.2 0
0.7999999999996132 1.266666666666666 0
0.7999999999996485 1.333333333333334 0
0.7999999999996835 1.4 0
0.7999999999997186 1.466666666666667 0
0.7999999999997539 1.533333333333333 0
0.7999999999997888 1.6 0
0.7999999999998244 1.666666666666667 0
0.7999999999998593 1.733333333333333 0
0.7999999999998945 1.8 0
0.7999999999999295 1.866666666666667 0
0.7999999999999649 1.933333333333333 0
0.8666666666663077 1.066666666666667 0
0.8666666666663003 1.133333333333333 0
0.866666666666293 1.2 0
0.8666666666662854 1.266666666666667 0
0.8666666666662781 1.333333333333333 0
0.8666666666662706 1.4 0
0.8666666666662632 1.466666666666667 0
0.8666666666662559 1.533333333333333 0
0.8666666666662484 1.6 0
0.866666666666241 1.666666666666667 0
0.8666666666662337 1.733333333333333 0
0.8666666666662262 1.8 0
0.8666666666662188 1.866666666666667 0
0.8666666666662113 1.933333333333333 0
0.9333333333331508 1.066666666666667 0
0.9333333333331439 1.133333333333333 0
0.9333333333331371 1.2 0
0.9333333333331304 1.266666666666667 0
0.9333333333331235 1.333333333333334 0
0.9333333333331169 1.4 0
0.9333333333331102 1.466666666666667 0
0.9333333333331031 1.533333333333333 0
0.9333333333330964 1.6 0
0.9333333333330898 1.666666666666666 0
0.9333333333330829 1.733333333333333 0
0.933333333333076 1.8 0
0.9333333333330693 1.866666666666667 0
0.9333333333330627 1.933333333333333 0
$EndNodes
$Elements
10 1020 1 1020
1 1 1 15
1 1 7 
2 7 8 
3 8 9 
4 9 10 
5 10 11 
6 11 12 
7 12 13 
8 13 14 
9 14 15 
10 15 16 
11 16 17 
12 17 18 
13 18 19 
14 19 20 
15 20 2 
1 2 1 15
16 2 21 
17 21 22 
18 22 23 
19 23 24 
20 24 25 
21 25 26 
22 26 27 
23 27 28 
24 28 29 
25 29 30 
26 30 31 
27 31 32 
28 32 33 
29 33 34 
30 34 6 
1 3 1 15
31 5 35 
32 35 36 
33 36 37 
34 37 38 
35 38 39 
36 39 40 
37 40 41 
38 41 42 
39 42 43 
40 43 44 
41 44 45 
42 45 46 
43 46 47 
44 47 48 
45 48 6 
1 4 1 15
46 5 49 
47 49 50 
48 50 51 
49 51 52 
50 52 53 
51 53 54 
52 54 55 
53 55 56 
54 56 57 
55 57 58 
56 58 59 
57 59 60 
58 60 61 
59 61 62 
60 62 1 
1 5 1 15
61 5 63 
62 63 64 
63 64 65 
64 65 66 
65 66 67 
66 67 68 
67 68 69 
68 69 70 
69 70 71 
70 71 72 
71 72 73 
72 73 74 
73 74 75 
74 75 76 
75 76 6 
1 6 1 15
76 6 77 
77 77 78 
78 78 79 
79 79 80 
80 80 81 
81 81 82 
82 82 83 
83 83 84 
84 84 85 
85 85 86 
86 86 87 
87 87 88 
88 88 89 
89 89 90 
90 90 3 
1 7 1 15
91 3 91 
92 91 92 
93 92 93 
94 93 94 
95 94 95 
96 95 96 
97 96 97 
98 97 98 
99 98 99 
100 99 100 
101 100 101 
102 101 102 
103 102 103 
104 103 104 
105 104 4 
1 8 1 15
106 4 105 
107 105 106 
108 106 107 
109 107 108 
110 108 109 
111 109 110 
112 110 111 
113 111 112 
114 112 113 
115 113 114 
116 114 115 
117 115 116 
118 116 117 
119 117 118 
120 118 5 
2 1 2 450
121 1 7 119 
122 119 62 1 
123 62 119 120 
124 120 61 62 
125 61 120 121 
126 121 60 61 
127 60 121 122 
128 122 59 60 
129 59 122 123 
130 123 58 59 
131 58 123 124 
132 124 57 58 
133 57 124 125 
134 125 56 57 
135 56 125 126 
136 126 55 56 
137 55 126 127 
138 127 54 55 
139 54 127 128 
140 128 53 54 
141 53 128 129 
142 129 52 53 
143 52 129 130 
144 130 51 52 
145 51 130 131 
146 131 50 51 
147 50 131 132 
148 132 49 50 
149 49 132 35 
150 35 5 49 
151 7 8 133 
152 133 119 7 
153 119 133 134 
154 134 120 119 
155 120 134 135 
156 135 121 120 
157 121 135 136 
158 136 122 121 
159 122 136 137 
160 137 123 122 
161 123 137 138 
162 138 124 123 
163 124 138 139 
164 139 125 124 
165 125 139 140 
166 140 126 125 
167 126 140 141 
168 141 127 126 
169 127 141 142 
170 142 128 127 
171 128 142 143 
172 143 129 128 
173 129 143 144 
174 144 130 129 
175 130 144 145 
176 145 131 130 
177 131 145 146 
178 146 132 131 
179 132 146 36 
180 36 35 132 
181 8 9 147 
182 147 133 8 
183 133 147 148 
184 148 134 133 
185 134 148 149 
186 149 135 134 
187 135 149 150 
188 150 136 135 
189 136 150 151 
190 151 137 136 
191 137 151 152 
192 152 138 137 
193 138 152 153 
194 153 139 138 
195 139 153 154 
196 154 140 139 
197 140 154 155 
198 155 141 140 
199 141 155 156 
200 156 142 141 
201 142 156 157 
202 157 143 142 
203 143 157 158 
204 158 144 143 
205 144 158 159 
206 159 145 144 
207 145 159 160 
208 160 146 145 
209 146 160 37 
210 37 36 146 
211 9 10 161 
212 161 147 9 
213 147 161 162 
214 162 148 147 
215 148 162 163 
216 163 149 148 
217 149 163 164 
218 164 150 149 
219 150 164 165 
220 165 151 150 
221 151 165 166 
222 166 152 151 
223 152 166 167 
224 167 153 152 
225 153 167 168 
226 168 154 153 
227 154 168 169 
228 169 155 154 
229 155 169 170 
230 170 156 155 
231 156 170 171 
232 171 157 156 
233 157 171 172 
234 172 158 157 
235 158 172 173 
236 173 159 158 
237 159 173 174 
238 174 160 159 
239 160 174 38 
240 38 37 160 
241 10 11 175 
242 175 161 10 
243 161 175 176 
244 176 162 161 
245 162 176 177 
246 177 163 162 
247 163 177 178 
248 178 164 163 
249 164 178 179 
250 179 165 164 
251 165 179 180 
252 180 166 165 
253 166 180 181 
254 181 167 166 
255 167 181 182 
256 182 168 167 
257 168 182 183 
258 183 169 168 
259 169 183 184 
260 184 170 169 
261 170 184 185 
262 185 171 170 
263 171 185 186 
264 186 172 171 
265 172 186 187 
266 187 173 172 
267 173 187 188 
268 188 174 173 
269 174 188 39 
270 39 38 174 
271 11 12 189 
272 189 175 11 
273 175 189 190 
274 190 176 175 
275 176 190 191 
276 191 177 176 
277 177 191 192 
278 192 178 177 
279 178 192 193 
280 193 179 178 
281 179 193 194 
282 194 180 179 
283 180 194 195 
284 195 181 180 
285 181 195 196 
286 196 182 181 
287 182 196 197 
288 197 183 182 
289 183 197 198 
290 198 184 183 
291 184 198 199 
292 199 185 184 
293 185 199 200 
294 200 186 185 
295 186 200 201 
296 201 187 186 
297 187 201 202 
298 202 188 187 
299 188 202 40 
300 40 39 188 
301 12 13 203 
302 203 189 12 
303 189 203 204 
304 204 190 189 
305 190 204 205 
306 205 191 190 
307 191 205 206 
308 206 192 191 
309 192 206 207 
310 207 193 192 
311 193 207 208 
312 208 194 193 
313 194 208 209 
314 209 195 194 
315 195 209 210 
316 210 196 195 
317 196 210 211 
318 211 197 196 
319 197 211 212 
320 212 198 197 
321 198 212 213 
322 213 199 198 
323 199 213 214 
324 214 200 199 
325 200 214 215 
326 215 201 200 
327 201 215 216 
328 216 202 201 
329 202 216 41 
330 41 40 202 
331 13 14 217 
332 217 203 13 
333 203 217 218 
334 218 204 203 
335 204 218 219 
336 219 205 204 
337 205 219 220 
338 220 206 205 
339 206 220 221 
340 221 207 206 
341 207 221 222 
342 222 208 207 
343 208 222 223 
344 223 209 208 
345 209 223 224 
346 224 210 209 
347 210 224 225 
348 225 211 210 
349 211 225 226 
350 226 212 211 
351 212 226 227 
352 227 213 212 
353 213 227 228 
354 228 214 213 
355 214 228 229 
356 229 215 214 
357 215 229 230 
358 230 216 215 
359 216 230 42 
360 42 41 216 
361 14 15 231 
362 231 217 14 
363 217 231 232 
364 232 218 217 
365 218 232 233 
366 233 219 218 
367 219 233 234 
368 234 220 219 
369 220 234 235 
370 235 221 220 
371 221 235 236 
372 236 222 221 
373 222 236 237 
374 237 223 222 
375 223 237 238 
376 238 224 223 
377 224 238 239 
378 239 225 224 
379 225 239 240 
380 240 226 225 
381 226 240 241 
382 241 227 226 
383 227 241 242 
384 242 228 227 
385 228 242 243 
386 243 229 228 
387 229 243 244 
388 244 230 229 
389 230 244 43 
390 43 42 230 
391 15 16 245 
392 245 231 15 
393 231 245 246 
394 246 232 231 
395 232 246 247 
396 247 233 232 
397 233 247 248 
398 248 234 233 
399 234 248 249 
400 249 235 234 
401 235 249 250 
402 250 236 235 
403 236 250 251 
404 251 237 236 
405 237 251 252 
406 252 238 237 
407 238 252 253 
408 253 239 238 
409 239 253 254 
410 254 240 239 
411 240 254 255 
412 255 241 240 
413 241 255 256 
414 256 242 241 
415 242 256 257 
416 257 243 242 
417 243 257 258 
418 258 244 243 
419 244 258 44 
420 44 43 244 
421 16 17 259 
422 259 245 16 
423 245 259 260 
424 260 246 245 
425 246 260 261 
426 261 247 246 
427 247 261 262 
428 262 248 247 
429 248 262 263 
430 263 249 248 
431 249 263 264 
432 264 250 249 
433 250 264 265 
434 265 251 250 
435 251 265 266 
436 266 252 251 
437 252 266 267 
438 267 253 252 
439 253 267 268 
440 268 254 253 
441 254 268 269 
442 269 255 254 
443 255 269 270 
444 270 256 255 
445 256 270 271 
446 271 257 256 
447 257 271 272 
448 272 258 257 
449 258 272 45 
450 45 44 258 
451 17 18 273 
452 273 259 17 
453 259 273 274 
454 274 260 259 
455 260 274 275 
456 275 261 260 
457 261 275 276 
458 276 262 261 
459 262 276 277 
460 277 263 262 
461 263 277 278 
462 278 264 263 
463 264 278 279 
464 279 265 264 
465 265 279 280 
466 280 266 265 
467 266 280 281 
468 281 267 266 
469 267 281 282 
470 282 268 267 
471 268 282 283 
472 283 269 268 
473 269 283 284 
474 284 270 269 
475 270 284 285 
476 285 271 270 
477 271 285 286 
478 286 272 271 
479 272 286 46 
480 46 45 272 
481 18 19 287 
482 287 273 18 
483 273 287 288 
484 288 274 273 
485 274 288 289 
486 289 275 274 
487 275 289 290 
488 290 276 275 
489 276 290 291 
490 291 277 276 
491 277 291 292 
492 292 278 277 
493 278 292 293 
494 293 279 278 
495 279 293 294 
496 294 280 279 
497 280 294 295 
498 295 281 280 
499 281 295 296 
500 296 282 281 
501 282 296 297 
502 297 283 282 
503 283 297 298 
504 298 284 283 
505 284 298 299 
506 299 285 284 
507 285 299 300 
508 300 286 285 
509 286 300 47 
510 47 46 286 
511 19 20 301 
512 301 287 19 
513 287 301 302 
514 302 288 287 
515 288 302 303 
516 303 289 288 
517 289 303 304 
518 304 290 289 
519 290 304 305 
520 305 291 290 
521 291 305 306 
522 306 292 291 
523 292 306 307 
524 307 293 292 
525 293 307 308 
526 308 294 293 
527 294 308 309 
528 309 295 294 
529 295 309 310 
530 310 296 295 
531 296 310 311 
532 311 297 296 
533 297 311 312 
534 312 298 297 
535 298 312 313 
536 313 299 298 
537 299 313 314 
538 314 300 299 
539 300 314 48 
540 48 47 300 
541 20 2 21 
542 21 301 20 
543 301 21 22 
544 22 302 301 
545 302 22 23 
546 23 303 302 
547 303 23 24 
548 24 304 303 
549 304 24 25 
550 25 305 304 
551 305 25 26 
552 26 306 305 
553 306 26 27 
554 27 307 306 
555 307 27 28 
556 28 308 307 
557 308 28 29 
558 29 309 308 
559 309 29 30 
560 30 310 309 
561 310 30 31 
562 31 311 310 
563 311 31 32 
564 32 312 311 
565 312 32 33 
566 33 313 312 
567 313 33 34 
568 34 314 313 
569 314 34 6 
570 6 48 314 
2 2 2 450
571 5 63 118 
572 118 63 315 
573 118 315 117 
574 117 315 316 
575 117 316 116 
576 116 316 317 
577 116 317 115 
578 115 317 318 
579 115 318 114 
580 114 318 319 
581 114 319 113 
582 113 319 320 
583 113 320 112 
584 112 320 321 
585 112 321 111 
586 111 321 322 
587 111 322 110 
588 110 322 323 
589 110 323 109 
590 109 323 324 
591 109 324 108 
592 108 324 325 
593 108 325 107 
594 107 325 326 
595 107 326 106 
596 106 326 327 
597 106 327 105 
598 105 327 328 
599 105 328 4 
600 4 328 104 
601 63 64 315 
602 315 64 329 
603 315 329 316 
604 316 329 330 
605 316 330 317 
606 317 330 331 
607 317 331 318 
608 318 331 332 
609 318 332 319 
610 319 332 333 
611 319 333 320 
612 320 333 334 
613 320 334 321 
614 321 334 335 
615 321 335 322 
616 322 335 336 
617 322 336 323 
618 323 336 337 
619 323 337 324 
620 324 337 338 
621 324 338 325 
622 325 338 339 
623 325 339 326 
624 326 339 340 
625 326 340 327 
626 327 340 341 
627 327 341 328 
628 328 341 342 
629 328 342 104 
630 104 342 103 
631 64 65 329 
632 329 65 343 
633 329 343 330 
634 330 343 344 
635 330 344 331 
636 331 344 345 
637 331 345 332 
638 332 345 346 
639 332 346 333 
640 333 346 347 
641 333 347 334 
642 334 347 348 
643 334 348 335 
644 335 348 349 
645 335 349 336 
646 336 349 350 
647 336 350 337 
648 337 350 351 
649 337 351 338 
650 338 351 352 
651 338 352 339 
652 339 352 353 
653 339 353 340 
654 340 353 354 
655 340 354 341 
656 341 354 355 
657 341 355 342 
658 342 355 356 
659 342 356 103 
660 103 356 102 
661 65 66 343 
662 343 66 357 
663 343 357 344 
664 344 357 358 
665 344 358 345 
666 345 358 359 
667 345 359 346 
668 346 359 360 
669 346 360 347 
670 347 360 361 
671 347 361 348 
672 348 361 362 
673 348 362 349 
674 349 362 363 
675 349 363 350 
676 350 363 364 
677 350 364 351 
678 351 364 365 
679 351 365 352 
680 352 365 366 
681 352 366 353 
682 353 366 367 
683 353 367 354 
684 354 367 368 
685 354 368 355 
686 355 368 369 
687 355 369 356 
688 356 369 370 
689 356 370 102 
690 102 370 101 
691 66 67 357 
692 357 67 371 
693 357 371 358 
694 358 371 372 
695 358 372 359 
696 359 372 373 
697 359 373 360 
698 360 373 374 
699 360 374 361 
700 361 374 375 
701 361 375 362 
702 362 375 376 
703 362 376 363 
704 363 376 377 
705 363 377 364 
706 364 377 378 
707 364 378 365 
708 365 378 379 
709 365 379 366 
710 366 379 380 
711 366 380 367 
712 367 380 381 
713 367 381 368 
714 368 381 382 
715 368 382 369 
716 369 382 383 
717 369 383 370 
718 370 383 384 
719 370 384 101 
720 101 384 100 
721 67 68 371 
722 371 68 385 
723 371 385 372 
724 372 385 386 
725 372 386 373 
726 373 386 387 
727 373 387 374 
728 374 387 388 
729 374 388 375 
730 375 388 389 
731 375 389 376 
732 376 389 390 
733 376 390 377 
734 377 390 391 
735 377 391 378 
736 378 391 392 
737 378 392 379 
738 379 392 393 
739 379 393 380 
740 380 393 394 
741 380 394 381 
742 381 394 395 
743 381 395 382 
744 382 395 396 
745 382 396 383 
746 383 396 397 
747 383 397 384 
748 384 397 398 
749 384 398 100 
750 100 398 99 
751 68 69 385 
752 385 69 399 
753 385 399 386 
754 386 399 400 
755 386 400 387 
756 387 400 401 
757 387 401 388 
758 388 401 402 
759 388 402 389 
760 389 402 403 
761 389 403 390 
762 390 403 404 
763 390 404 391 
764 391 404 405 
765 391 405 392 
766 392 405 406 
767 392 406 393 
768 393 406 407 
769 393 407 394 
770 394 407 408 
771 394 408 395 
772 395 408 409 
773 395 409 396 
774 396 409 410 
775 396 410 397 
776 397 410 411 
777 397 411 398 
778 398 411 412 
779 398 412 99 
780 99 412 98 
781 69 70 399 
782 399 70 413 
783 399 413 400 
784 400 413 414 
785 400 414 401 
786 401 414 415 
787 401 415 402 
788 402 415 416 
789 402 416 403 
790 403 416 417 
791 403 417 404 
792 404 417 418 
793 404 418 405 
794 405 418 419 
795 405 419 406 
796 406 419 420 
797 406 420 407 
798 407 420 421 
799 407 421 408 
800 408 421 422 
801 408 422 409 
802 409 422 423 
803 409 423 410 
804 410 423 424 
805 410 424 411 
806 411 424 425 
807 411 425 412 
808 412 425 426 
809 412 426 98 
810 98 426 97 
811 70 71 413 
812 413 71 427 
813 413 427 414 
814 414 427 428 
815 414 428 415 
816 415 428 429 
817 415 429 416 
818 416 429 430 
819 416 430 417 
820 417 430 431 
821 417 431 418 
822 418 431 432 
823 418 432 419 
824 419 432 433 
825 419 433 420 
826 420 433 434 
827 420 434 421 
828 421 434 435 
829 421 435 422 
830 422 435 436 
831 422 436 423 
832 423 436 437 
833 423 437 424 
834 424 437 438 
835 424 438 425 
836 425 438 439 
837 425 439 426 
838 426 439 440 
839 426 440 97 
840 97 440 96 
841 71 72 427 
842 427 72 441 
843 427 441 428 
844 428 441 442 
845 428 442 429 
846 429 442 443 
847 429 443 430 
848 430 443 444 
849 430 444 431 
850 431 444 445 
851 431 445 432 
852 432 445 446 
853 432 446 433 
854 433 446 447 
855 433 447 434 
856 434 447 448 
857 434 448 435 
858 435 448 449 
859 435 449 436 
860 436 449 450 
861 436 450 437 
862 437 450 451 
863 437 451 438 
864 438 451 452 
865 438 452 439 
866 439 452 453 
867 439 453 440 
868 440 453 454 
869 440 454 96 
870 96 454 95 
871 72 73 441 
872 441 73 455 
873 441 455 442 
874 442 455 456 
875 442 456 443 
876 443 456 457 
877 443 457 444 
878 444 457 458 
879 444 458 445 
880 445 458 459 
881 445 459 446 
882 446 459 460 
883 446 460 447 
884 447 460 461 
885 447 461 448 
886 448 461 462 
887 448 462 449 
888 449 462 463 
889 449 463 450 
890 450 463 464 
891 450 464 451 
892 451 464 465 
893 451 465 452 
894 452 465 466 
895 452 466 453 
896 453 466 467 
897 453 467 454 
898 454 467 468 
899 454 468 95 
900 95 468 94 
901 73 74 455 
902 455 74 469 
903 455 469 456 
904 456 469 470 
905 456 470 457 
906 457 470 471 
907 457 471 458 
908 458 471 472 
909 458 472 459 
910 459 472 473 
911 459 473 460 
912 460 473 474 
913 460 474 461 
914 461 474 475 
915 461 475 462 
916 462 475 476 
917 462 476 463 
918 463 476 477 
919 463 477 464 
920 464 477 478 
921 464 478 465 
922 465 478 479 
923 465 479 466 
924 466 479 480 
925 466 480 467 
926 467 480 481 
927 467 481 468 
928 468 481 482 
929 468 482 94 
930 94 482 93 
931 74 75 469 
932 469 75 483 
933 469 483 470 
934 470 483 484 
935 470 484 471 
936 471 484 485 
937 471 485 472 
938 472 485 486 
939 472 486 473 
940 473 486 487 
941 473 487 474 
942 474 487 488 
943 474 488 475 
944 475 488 489 
945 475 489 476 
946 476 489 490 
947 476 490 477 
948 477 490 491 
949 477 491 478 
950 478 491 492 
951 478 492 479 
952 479 492 493 
953 479 493 480 
954 480 493 494 
955 480 494 481 
956 481 494 495 
957 481 495 482 
958 482 495 496 
959 482 496 93 
960 93 496 92 
961 75 76 483 
962 483 76 497 
963 483 497 484 
964 484 497 498 
965 484 498 485 
966 485 498 499 
967 485 499 486 
968 486 499 500 
969 486 500 487 
970 487 500 501 
971 487 501 488 
972 488 501 502 
973 488 502 489 
974 489 502 503 
975 489 503 490 
976 490 503 504 
977 490 504 491 
978 491 504 505 
979 491 505 492 
980 492 505 506 
981 492 506 493 
982 493 506 507 
983 493 507 494 
984 494 507 508 
985 494 508 495 
986 495 508 509 
987 495 509 496 
988 496 509 510 
989 496 510 92 
990 92 510 91 
991 76 6 497 
992 497 6 77 
993 497 77 498 
994 498 77 78 
995 498 78 499 
996 499 78 79 
997 499 79 500 
998 500 79 80 
999 500 80 501 
1000 501 80 81 
1001 501 81 502 
1002 502 81 82 
1003 502 82 503 
1004 503 82 83 
1005 503 83 504 
1006 504 83 84 
1007 504 84 505 
1008 505 84 85 
1009 505 85 506 
1010 506 85 86 
1011 506 86 507 
1012 507 86 87 
1013 507 87 508 
1014 508 87 88 
1015 508 88 509 
1016 509 88 89 
1017 509 89 510 
1018 510 89 90 
1019 510 90 91 
1020 91 90 3 
$EndElements
